SplineFontDB: 3.0
FontName: ShaidurUnicode
FullName: Shaidur Unicode
FamilyName: Shaidur Unicode
Weight: Medium
Copyright: Copyright 2013-2018 Aleksandr Andreev and Nikita Simmons.\n\nThis font is part of the Ponomar Project Slavonic Computing Initiative. See http://sci.ponomar.net/ for more information.\n\nOriginal glyph design by Nikita Simmons. OpenType features by Aleksandr Andreev and Nikita Simmons.
UComments: "2014-4-19: Created.+AAoA-See README for more information." 
Version: 0.5
ItalicAngle: 0
UnderlinePosition: -80
UnderlineWidth: 50
Ascent: 800
Descent: 200
woffMajor: 1
woffMinor: 1
LayerCount: 3
Layer: 0 0 "Back"  1
Layer: 1 0 "Fore"  0
Layer: 2 1 "TTF"  1
XUID: [1021 1004 1038049950 1172439]
FSType: 8
OS2Version: 0
OS2_WeightWidthSlopeOnly: 0
OS2_UseTypoMetrics: 0
CreationTime: 1397905996
ModificationTime: 1544060453
PfmFamily: 17
TTFWeight: 500
TTFWidth: 5
LineGap: 50
VLineGap: 0
OS2TypoAscent: 0
OS2TypoAOffset: 1
OS2TypoDescent: 0
OS2TypoDOffset: 1
OS2TypoLinegap: 50
OS2WinAscent: 0
OS2WinAOffset: 1
OS2WinDescent: 0
OS2WinDOffset: 1
HheadAscent: 0
HheadAOffset: 1
HheadDescent: 0
HheadDOffset: 1
OS2Vendor: 'PfEd'
Lookup: 4 0 0 "Support for deprecated mappings (ccmp)"  {"Support for deprecated mappings (ccmp)-1"  } ['ccmp' ('DFLT' <'dflt' > 'cyrl' <'dflt' > 'latn' <'dflt' > ) ]
Lookup: 4 0 0 "Canonical Composition (ccmp)"  {"Canonical Composition (ccmp)-1"  } ['ccmp' ('DFLT' <'dflt' > 'cyrl' <'dflt' > 'latn' <'dflt' > ) ]
Lookup: 4 0 0 "Znamenny Priznakification"  {"Znamenny Priznakification-1"  } ['ccmp' ('DFLT' <'dflt' > 'cyrl' <'dflt' > 'latn' <'dflt' > ) ]
Lookup: 4 0 0 "Znamenny Priznakification Round 2"  {"Znamenny Priznakification Round 2-1"  } ['ccmp' ('DFLT' <'dflt' > 'cyrl' <'dflt' > 'latn' <'dflt' > ) ]
Lookup: 4 0 0 "Precomposed forms for Znamenny Notation"  {"Precomposed forms for Znamenny Notation-1"  } ['ccmp' ('DFLT' <'dflt' > 'cyrl' <'dflt' > 'latn' <'dflt' > ) ]

StartChar: uni0002
Encoding: 2 2 0
Width: 500
Flags: W
HStem: 0 19<66 435> 748 22<66 435>
VStem: 37 22<34 733> 442 22<34 733>
DStem2: 66 748 59 733 0.465951 -0.884811<10.0105 395.419 421.078 806.952> 59 34 66 19 0.465951 0.884811<0 385.408 411.068 796.942>
LayerCount: 3
Fore
SplineSet
37 770 m 5
 464 770 l 5
 464 0 l 5
 37 0 l 5
 37 770 l 5
66 748 m 5
 250 398 l 5
 435 748 l 5
 66 748 l 5
258 383 m 5
 442 34 l 5
 442 733 l 5
 258 383 l 5
435 19 m 5
 250 369 l 5
 66 19 l 5
 435 19 l 5
59 733 m 5
 59 34 l 5
 243 383 l 5
 59 733 l 5
EndSplineSet
Validated: 1
Layer: 2
SplineSet
37 770 m 5,0,-1
 464 770 l 1,1,-1
 464 0 l 1,2,-1
 37 0 l 1,3,-1
 37 770 l 5,0,-1
66 748 m 5,4,-1
 250 398 l 1,5,-1
 435 748 l 1,6,-1
 66 748 l 5,4,-1
258 383 m 5,7,-1
 442 34 l 1,8,-1
 442 733 l 1,9,-1
 258 383 l 5,7,-1
435 19 m 5,10,-1
 250 369 l 1,11,-1
 66 19 l 1,12,-1
 435 19 l 5,10,-1
59 733 m 5,13,-1
 59 34 l 1,14,-1
 243 383 l 1,15,-1
 59 733 l 5,13,-1
EndSplineSet
Validated: 1
EndChar

StartChar: uni0001
Encoding: 1 1 2
Width: 500
Flags: W
HStem: 0 19<66 435> 748 22<66 435>
VStem: 37 22<34 733> 442 22<34 733>
DStem2: 66 748 59 733 0.465951 -0.884811<10.0105 395.419 421.078 806.952> 59 34 66 19 0.465951 0.884811<0 385.408 411.068 796.942>
LayerCount: 3
Fore
SplineSet
37 770 m 1
 464 770 l 1
 464 0 l 1
 37 0 l 1
 37 770 l 1
66 748 m 1
 250 398 l 1
 435 748 l 1
 66 748 l 1
258 383 m 1
 442 34 l 1
 442 733 l 1
 258 383 l 1
435 19 m 1
 250 369 l 1
 66 19 l 1
 435 19 l 1
59 733 m 1
 59 34 l 1
 243 383 l 1
 59 733 l 1
EndSplineSet
Validated: 1
Layer: 2
SplineSet
37 770 m 1,0,-1
 464 770 l 1,1,-1
 464 0 l 1,2,-1
 37 0 l 1,3,-1
 37 770 l 1,0,-1
66 748 m 1,4,-1
 250 398 l 1,5,-1
 435 748 l 1,6,-1
 66 748 l 1,4,-1
258 383 m 1,7,-1
 442 34 l 1,8,-1
 442 733 l 1,9,-1
 258 383 l 1,7,-1
435 19 m 1,10,-1
 250 369 l 1,11,-1
 66 19 l 1,12,-1
 435 19 l 1,10,-1
59 733 m 1,13,-1
 59 34 l 1,14,-1
 243 383 l 1,15,-1
 59 733 l 1,13,-1
EndSplineSet
Validated: 1
EndChar

StartChar: uni0003
Encoding: 3 3 3
Width: 500
Flags: W
HStem: 0 19<66 435> 748 22<66 435>
VStem: 37 22<34 733> 442 22<34 733>
DStem2: 66 748 59 733 0.465951 -0.884811<10.0105 395.419 421.078 806.952> 59 34 66 19 0.465951 0.884811<0 385.408 411.068 796.942>
LayerCount: 3
Fore
SplineSet
37 770 m 5
 464 770 l 5
 464 0 l 5
 37 0 l 5
 37 770 l 5
66 748 m 5
 250 398 l 5
 435 748 l 5
 66 748 l 5
258 383 m 5
 442 34 l 5
 442 733 l 5
 258 383 l 5
435 19 m 5
 250 369 l 5
 66 19 l 5
 435 19 l 5
59 733 m 5
 59 34 l 5
 243 383 l 5
 59 733 l 5
EndSplineSet
Validated: 1
Layer: 2
SplineSet
37 770 m 5,0,-1
 464 770 l 1,1,-1
 464 0 l 1,2,-1
 37 0 l 1,3,-1
 37 770 l 5,0,-1
66 748 m 5,4,-1
 250 398 l 1,5,-1
 435 748 l 1,6,-1
 66 748 l 5,4,-1
258 383 m 5,7,-1
 442 34 l 1,8,-1
 442 733 l 1,9,-1
 258 383 l 5,7,-1
435 19 m 5,10,-1
 250 369 l 1,11,-1
 66 19 l 1,12,-1
 435 19 l 5,10,-1
59 733 m 5,13,-1
 59 34 l 1,14,-1
 243 383 l 1,15,-1
 59 733 l 5,13,-1
EndSplineSet
Validated: 1
EndChar

StartChar: uni0004
Encoding: 4 4 4
Width: 500
Flags: W
HStem: 0 19<66 435> 748 22<66 435>
VStem: 37 22<34 733> 442 22<34 733>
DStem2: 66 748 59 733 0.465951 -0.884811<10.0105 395.419 421.078 806.952> 59 34 66 19 0.465951 0.884811<0 385.408 411.068 796.942>
LayerCount: 3
Fore
SplineSet
37 770 m 5
 464 770 l 5
 464 0 l 5
 37 0 l 5
 37 770 l 5
66 748 m 5
 250 398 l 5
 435 748 l 5
 66 748 l 5
258 383 m 5
 442 34 l 5
 442 733 l 5
 258 383 l 5
435 19 m 5
 250 369 l 5
 66 19 l 5
 435 19 l 5
59 733 m 5
 59 34 l 5
 243 383 l 5
 59 733 l 5
EndSplineSet
Validated: 1
Layer: 2
SplineSet
37 770 m 5,0,-1
 464 770 l 1,1,-1
 464 0 l 1,2,-1
 37 0 l 1,3,-1
 37 770 l 5,0,-1
66 748 m 5,4,-1
 250 398 l 1,5,-1
 435 748 l 1,6,-1
 66 748 l 5,4,-1
258 383 m 5,7,-1
 442 34 l 1,8,-1
 442 733 l 1,9,-1
 258 383 l 5,7,-1
435 19 m 5,10,-1
 250 369 l 1,11,-1
 66 19 l 1,12,-1
 435 19 l 5,10,-1
59 733 m 5,13,-1
 59 34 l 1,14,-1
 243 383 l 1,15,-1
 59 733 l 5,13,-1
EndSplineSet
Validated: 1
EndChar

StartChar: uni0005
Encoding: 5 5 5
Width: 500
Flags: W
HStem: 0 19<66 435> 748 22<66 435>
VStem: 37 22<34 733> 442 22<34 733>
DStem2: 66 748 59 733 0.465951 -0.884811<10.0105 395.419 421.078 806.952> 59 34 66 19 0.465951 0.884811<0 385.408 411.068 796.942>
LayerCount: 3
Fore
SplineSet
37 770 m 5
 464 770 l 5
 464 0 l 5
 37 0 l 5
 37 770 l 5
66 748 m 5
 250 398 l 5
 435 748 l 5
 66 748 l 5
258 383 m 5
 442 34 l 5
 442 733 l 5
 258 383 l 5
435 19 m 5
 250 369 l 5
 66 19 l 5
 435 19 l 5
59 733 m 5
 59 34 l 5
 243 383 l 5
 59 733 l 5
EndSplineSet
Validated: 1
Layer: 2
SplineSet
37 770 m 5,0,-1
 464 770 l 1,1,-1
 464 0 l 1,2,-1
 37 0 l 1,3,-1
 37 770 l 5,0,-1
66 748 m 5,4,-1
 250 398 l 1,5,-1
 435 748 l 1,6,-1
 66 748 l 5,4,-1
258 383 m 5,7,-1
 442 34 l 1,8,-1
 442 733 l 1,9,-1
 258 383 l 5,7,-1
435 19 m 5,10,-1
 250 369 l 1,11,-1
 66 19 l 1,12,-1
 435 19 l 5,10,-1
59 733 m 5,13,-1
 59 34 l 1,14,-1
 243 383 l 1,15,-1
 59 733 l 5,13,-1
EndSplineSet
Validated: 1
EndChar

StartChar: uni0006
Encoding: 6 6 6
Width: 500
Flags: W
HStem: 0 19<66 435> 748 22<66 435>
VStem: 37 22<34 733> 442 22<34 733>
DStem2: 66 748 59 733 0.465951 -0.884811<10.0105 395.419 421.078 806.952> 59 34 66 19 0.465951 0.884811<0 385.408 411.068 796.942>
LayerCount: 3
Fore
SplineSet
37 770 m 5
 464 770 l 5
 464 0 l 5
 37 0 l 5
 37 770 l 5
66 748 m 5
 250 398 l 5
 435 748 l 5
 66 748 l 5
258 383 m 5
 442 34 l 5
 442 733 l 5
 258 383 l 5
435 19 m 5
 250 369 l 5
 66 19 l 5
 435 19 l 5
59 733 m 5
 59 34 l 5
 243 383 l 5
 59 733 l 5
EndSplineSet
Validated: 1
Layer: 2
SplineSet
37 770 m 5,0,-1
 464 770 l 1,1,-1
 464 0 l 1,2,-1
 37 0 l 1,3,-1
 37 770 l 5,0,-1
66 748 m 5,4,-1
 250 398 l 1,5,-1
 435 748 l 1,6,-1
 66 748 l 5,4,-1
258 383 m 5,7,-1
 442 34 l 1,8,-1
 442 733 l 1,9,-1
 258 383 l 5,7,-1
435 19 m 5,10,-1
 250 369 l 1,11,-1
 66 19 l 1,12,-1
 435 19 l 5,10,-1
59 733 m 5,13,-1
 59 34 l 1,14,-1
 243 383 l 1,15,-1
 59 733 l 5,13,-1
EndSplineSet
Validated: 1
EndChar

StartChar: uni0007
Encoding: 7 7 7
Width: 500
Flags: W
HStem: 0 19<66 435> 748 22<66 435>
VStem: 37 22<34 733> 442 22<34 733>
DStem2: 66 748 59 733 0.465951 -0.884811<10.0105 395.419 421.078 806.952> 59 34 66 19 0.465951 0.884811<0 385.408 411.068 796.942>
LayerCount: 3
Fore
SplineSet
37 770 m 5
 464 770 l 5
 464 0 l 5
 37 0 l 5
 37 770 l 5
66 748 m 5
 250 398 l 5
 435 748 l 5
 66 748 l 5
258 383 m 5
 442 34 l 5
 442 733 l 5
 258 383 l 5
435 19 m 5
 250 369 l 5
 66 19 l 5
 435 19 l 5
59 733 m 5
 59 34 l 5
 243 383 l 5
 59 733 l 5
EndSplineSet
Validated: 1
Layer: 2
SplineSet
37 770 m 5,0,-1
 464 770 l 1,1,-1
 464 0 l 1,2,-1
 37 0 l 1,3,-1
 37 770 l 5,0,-1
66 748 m 5,4,-1
 250 398 l 1,5,-1
 435 748 l 1,6,-1
 66 748 l 5,4,-1
258 383 m 5,7,-1
 442 34 l 1,8,-1
 442 733 l 1,9,-1
 258 383 l 5,7,-1
435 19 m 5,10,-1
 250 369 l 1,11,-1
 66 19 l 1,12,-1
 435 19 l 5,10,-1
59 733 m 5,13,-1
 59 34 l 1,14,-1
 243 383 l 1,15,-1
 59 733 l 5,13,-1
EndSplineSet
Validated: 1
EndChar

StartChar: uni000B
Encoding: 11 11 11
Width: 500
Flags: W
HStem: 0 19<66 435> 748 22<66 435>
VStem: 37 22<34 733> 442 22<34 733>
DStem2: 66 748 59 733 0.465951 -0.884811<10.0105 395.419 421.078 806.952> 59 34 66 19 0.465951 0.884811<0 385.408 411.068 796.942>
LayerCount: 3
Fore
SplineSet
37 770 m 5
 464 770 l 5
 464 0 l 5
 37 0 l 5
 37 770 l 5
66 748 m 5
 250 398 l 5
 435 748 l 5
 66 748 l 5
258 383 m 5
 442 34 l 5
 442 733 l 5
 258 383 l 5
435 19 m 5
 250 369 l 5
 66 19 l 5
 435 19 l 5
59 733 m 5
 59 34 l 5
 243 383 l 5
 59 733 l 5
EndSplineSet
Validated: 1
Layer: 2
SplineSet
37 770 m 5,0,-1
 464 770 l 1,1,-1
 464 0 l 1,2,-1
 37 0 l 1,3,-1
 37 770 l 5,0,-1
66 748 m 5,4,-1
 250 398 l 1,5,-1
 435 748 l 1,6,-1
 66 748 l 5,4,-1
258 383 m 5,7,-1
 442 34 l 1,8,-1
 442 733 l 1,9,-1
 258 383 l 5,7,-1
435 19 m 5,10,-1
 250 369 l 1,11,-1
 66 19 l 1,12,-1
 435 19 l 5,10,-1
59 733 m 5,13,-1
 59 34 l 1,14,-1
 243 383 l 1,15,-1
 59 733 l 5,13,-1
EndSplineSet
Validated: 1
EndChar

StartChar: uni000C
Encoding: 12 12 12
Width: 500
Flags: W
HStem: 0 19<66 435> 748 22<66 435>
VStem: 37 22<34 733> 442 22<34 733>
DStem2: 66 748 59 733 0.465951 -0.884811<10.0105 395.419 421.078 806.952> 59 34 66 19 0.465951 0.884811<0 385.408 411.068 796.942>
LayerCount: 3
Fore
SplineSet
37 770 m 5
 464 770 l 5
 464 0 l 5
 37 0 l 5
 37 770 l 5
66 748 m 5
 250 398 l 5
 435 748 l 5
 66 748 l 5
258 383 m 5
 442 34 l 5
 442 733 l 5
 258 383 l 5
435 19 m 5
 250 369 l 5
 66 19 l 5
 435 19 l 5
59 733 m 5
 59 34 l 5
 243 383 l 5
 59 733 l 5
EndSplineSet
Validated: 1
Layer: 2
SplineSet
37 770 m 5,0,-1
 464 770 l 1,1,-1
 464 0 l 1,2,-1
 37 0 l 1,3,-1
 37 770 l 5,0,-1
66 748 m 5,4,-1
 250 398 l 1,5,-1
 435 748 l 1,6,-1
 66 748 l 5,4,-1
258 383 m 5,7,-1
 442 34 l 1,8,-1
 442 733 l 1,9,-1
 258 383 l 5,7,-1
435 19 m 5,10,-1
 250 369 l 1,11,-1
 66 19 l 1,12,-1
 435 19 l 5,10,-1
59 733 m 5,13,-1
 59 34 l 1,14,-1
 243 383 l 1,15,-1
 59 733 l 5,13,-1
EndSplineSet
Validated: 1
EndChar

StartChar: uni000E
Encoding: 14 14 14
Width: 500
Flags: W
HStem: 0 19<66 435> 748 22<66 435>
VStem: 37 22<34 733> 442 22<34 733>
DStem2: 66 748 59 733 0.465951 -0.884811<10.0105 395.419 421.078 806.952> 59 34 66 19 0.465951 0.884811<0 385.408 411.068 796.942>
LayerCount: 3
Fore
SplineSet
37 770 m 5
 464 770 l 5
 464 0 l 5
 37 0 l 5
 37 770 l 5
66 748 m 5
 250 398 l 5
 435 748 l 5
 66 748 l 5
258 383 m 5
 442 34 l 5
 442 733 l 5
 258 383 l 5
435 19 m 5
 250 369 l 5
 66 19 l 5
 435 19 l 5
59 733 m 5
 59 34 l 5
 243 383 l 5
 59 733 l 5
EndSplineSet
Validated: 1
Layer: 2
SplineSet
37 770 m 5,0,-1
 464 770 l 1,1,-1
 464 0 l 1,2,-1
 37 0 l 1,3,-1
 37 770 l 5,0,-1
66 748 m 5,4,-1
 250 398 l 1,5,-1
 435 748 l 1,6,-1
 66 748 l 5,4,-1
258 383 m 5,7,-1
 442 34 l 1,8,-1
 442 733 l 1,9,-1
 258 383 l 5,7,-1
435 19 m 5,10,-1
 250 369 l 1,11,-1
 66 19 l 1,12,-1
 435 19 l 5,10,-1
59 733 m 5,13,-1
 59 34 l 1,14,-1
 243 383 l 1,15,-1
 59 733 l 5,13,-1
EndSplineSet
Validated: 1
EndChar

StartChar: uni000F
Encoding: 15 15 15
Width: 500
Flags: W
HStem: 0 19<66 435> 748 22<66 435>
VStem: 37 22<34 733> 442 22<34 733>
DStem2: 66 748 59 733 0.465951 -0.884811<10.0105 395.419 421.078 806.952> 59 34 66 19 0.465951 0.884811<0 385.408 411.068 796.942>
LayerCount: 3
Fore
SplineSet
37 770 m 5
 464 770 l 5
 464 0 l 5
 37 0 l 5
 37 770 l 5
66 748 m 5
 250 398 l 5
 435 748 l 5
 66 748 l 5
258 383 m 5
 442 34 l 5
 442 733 l 5
 258 383 l 5
435 19 m 5
 250 369 l 5
 66 19 l 5
 435 19 l 5
59 733 m 5
 59 34 l 5
 243 383 l 5
 59 733 l 5
EndSplineSet
Validated: 1
Layer: 2
SplineSet
37 770 m 5,0,-1
 464 770 l 1,1,-1
 464 0 l 1,2,-1
 37 0 l 1,3,-1
 37 770 l 5,0,-1
66 748 m 5,4,-1
 250 398 l 1,5,-1
 435 748 l 1,6,-1
 66 748 l 5,4,-1
258 383 m 5,7,-1
 442 34 l 1,8,-1
 442 733 l 1,9,-1
 258 383 l 5,7,-1
435 19 m 5,10,-1
 250 369 l 1,11,-1
 66 19 l 1,12,-1
 435 19 l 5,10,-1
59 733 m 5,13,-1
 59 34 l 1,14,-1
 243 383 l 1,15,-1
 59 733 l 5,13,-1
EndSplineSet
Validated: 1
EndChar

StartChar: uni0010
Encoding: 16 16 16
Width: 500
Flags: W
HStem: 0 19<66 435> 748 22<66 435>
VStem: 37 22<34 733> 442 22<34 733>
DStem2: 66 748 59 733 0.465951 -0.884811<10.0105 395.419 421.078 806.952> 59 34 66 19 0.465951 0.884811<0 385.408 411.068 796.942>
LayerCount: 3
Fore
SplineSet
37 770 m 5
 464 770 l 5
 464 0 l 5
 37 0 l 5
 37 770 l 5
66 748 m 5
 250 398 l 5
 435 748 l 5
 66 748 l 5
258 383 m 5
 442 34 l 5
 442 733 l 5
 258 383 l 5
435 19 m 5
 250 369 l 5
 66 19 l 5
 435 19 l 5
59 733 m 5
 59 34 l 5
 243 383 l 5
 59 733 l 5
EndSplineSet
Validated: 1
Layer: 2
SplineSet
37 770 m 5,0,-1
 464 770 l 1,1,-1
 464 0 l 1,2,-1
 37 0 l 1,3,-1
 37 770 l 5,0,-1
66 748 m 5,4,-1
 250 398 l 1,5,-1
 435 748 l 1,6,-1
 66 748 l 5,4,-1
258 383 m 5,7,-1
 442 34 l 1,8,-1
 442 733 l 1,9,-1
 258 383 l 5,7,-1
435 19 m 5,10,-1
 250 369 l 1,11,-1
 66 19 l 1,12,-1
 435 19 l 5,10,-1
59 733 m 5,13,-1
 59 34 l 1,14,-1
 243 383 l 1,15,-1
 59 733 l 5,13,-1
EndSplineSet
Validated: 1
EndChar

StartChar: uni0011
Encoding: 17 17 17
Width: 500
Flags: W
HStem: 0 19<66 435> 748 22<66 435>
VStem: 37 22<34 733> 442 22<34 733>
DStem2: 66 748 59 733 0.465951 -0.884811<10.0105 395.419 421.078 806.952> 59 34 66 19 0.465951 0.884811<0 385.408 411.068 796.942>
LayerCount: 3
Fore
SplineSet
37 770 m 5
 464 770 l 5
 464 0 l 5
 37 0 l 5
 37 770 l 5
66 748 m 5
 250 398 l 5
 435 748 l 5
 66 748 l 5
258 383 m 5
 442 34 l 5
 442 733 l 5
 258 383 l 5
435 19 m 5
 250 369 l 5
 66 19 l 5
 435 19 l 5
59 733 m 5
 59 34 l 5
 243 383 l 5
 59 733 l 5
EndSplineSet
Validated: 1
Layer: 2
SplineSet
37 770 m 5,0,-1
 464 770 l 1,1,-1
 464 0 l 1,2,-1
 37 0 l 1,3,-1
 37 770 l 5,0,-1
66 748 m 5,4,-1
 250 398 l 1,5,-1
 435 748 l 1,6,-1
 66 748 l 5,4,-1
258 383 m 5,7,-1
 442 34 l 1,8,-1
 442 733 l 1,9,-1
 258 383 l 5,7,-1
435 19 m 5,10,-1
 250 369 l 1,11,-1
 66 19 l 1,12,-1
 435 19 l 5,10,-1
59 733 m 5,13,-1
 59 34 l 1,14,-1
 243 383 l 1,15,-1
 59 733 l 5,13,-1
EndSplineSet
Validated: 1
EndChar

StartChar: uni0012
Encoding: 18 18 18
Width: 500
Flags: W
HStem: 0 19<66 435> 748 22<66 435>
VStem: 37 22<34 733> 442 22<34 733>
DStem2: 66 748 59 733 0.465951 -0.884811<10.0105 395.419 421.078 806.952> 59 34 66 19 0.465951 0.884811<0 385.408 411.068 796.942>
LayerCount: 3
Fore
SplineSet
37 770 m 5
 464 770 l 5
 464 0 l 5
 37 0 l 5
 37 770 l 5
66 748 m 5
 250 398 l 5
 435 748 l 5
 66 748 l 5
258 383 m 5
 442 34 l 5
 442 733 l 5
 258 383 l 5
435 19 m 5
 250 369 l 5
 66 19 l 5
 435 19 l 5
59 733 m 5
 59 34 l 5
 243 383 l 5
 59 733 l 5
EndSplineSet
Validated: 1
Layer: 2
SplineSet
37 770 m 5,0,-1
 464 770 l 1,1,-1
 464 0 l 1,2,-1
 37 0 l 1,3,-1
 37 770 l 5,0,-1
66 748 m 5,4,-1
 250 398 l 1,5,-1
 435 748 l 1,6,-1
 66 748 l 5,4,-1
258 383 m 5,7,-1
 442 34 l 1,8,-1
 442 733 l 1,9,-1
 258 383 l 5,7,-1
435 19 m 5,10,-1
 250 369 l 1,11,-1
 66 19 l 1,12,-1
 435 19 l 5,10,-1
59 733 m 5,13,-1
 59 34 l 1,14,-1
 243 383 l 1,15,-1
 59 733 l 5,13,-1
EndSplineSet
Validated: 1
EndChar

StartChar: uni0013
Encoding: 19 19 19
Width: 500
Flags: W
HStem: 0 19<66 435> 748 22<66 435>
VStem: 37 22<34 733> 442 22<34 733>
DStem2: 66 748 59 733 0.465951 -0.884811<10.0105 395.419 421.078 806.952> 59 34 66 19 0.465951 0.884811<0 385.408 411.068 796.942>
LayerCount: 3
Fore
SplineSet
37 770 m 5
 464 770 l 5
 464 0 l 5
 37 0 l 5
 37 770 l 5
66 748 m 5
 250 398 l 5
 435 748 l 5
 66 748 l 5
258 383 m 5
 442 34 l 5
 442 733 l 5
 258 383 l 5
435 19 m 5
 250 369 l 5
 66 19 l 5
 435 19 l 5
59 733 m 5
 59 34 l 5
 243 383 l 5
 59 733 l 5
EndSplineSet
Validated: 1
Layer: 2
SplineSet
37 770 m 5,0,-1
 464 770 l 1,1,-1
 464 0 l 1,2,-1
 37 0 l 1,3,-1
 37 770 l 5,0,-1
66 748 m 5,4,-1
 250 398 l 1,5,-1
 435 748 l 1,6,-1
 66 748 l 5,4,-1
258 383 m 5,7,-1
 442 34 l 1,8,-1
 442 733 l 1,9,-1
 258 383 l 5,7,-1
435 19 m 5,10,-1
 250 369 l 1,11,-1
 66 19 l 1,12,-1
 435 19 l 5,10,-1
59 733 m 5,13,-1
 59 34 l 1,14,-1
 243 383 l 1,15,-1
 59 733 l 5,13,-1
EndSplineSet
Validated: 1
EndChar

StartChar: uni0014
Encoding: 20 20 20
Width: 500
Flags: W
HStem: 0 19<66 435> 748 22<66 435>
VStem: 37 22<34 733> 442 22<34 733>
DStem2: 66 748 59 733 0.465951 -0.884811<10.0105 395.419 421.078 806.952> 59 34 66 19 0.465951 0.884811<0 385.408 411.068 796.942>
LayerCount: 3
Fore
SplineSet
37 770 m 5
 464 770 l 5
 464 0 l 5
 37 0 l 5
 37 770 l 5
66 748 m 5
 250 398 l 5
 435 748 l 5
 66 748 l 5
258 383 m 5
 442 34 l 5
 442 733 l 5
 258 383 l 5
435 19 m 5
 250 369 l 5
 66 19 l 5
 435 19 l 5
59 733 m 5
 59 34 l 5
 243 383 l 5
 59 733 l 5
EndSplineSet
Validated: 1
Layer: 2
SplineSet
37 770 m 5,0,-1
 464 770 l 1,1,-1
 464 0 l 1,2,-1
 37 0 l 1,3,-1
 37 770 l 5,0,-1
66 748 m 5,4,-1
 250 398 l 1,5,-1
 435 748 l 1,6,-1
 66 748 l 5,4,-1
258 383 m 5,7,-1
 442 34 l 1,8,-1
 442 733 l 1,9,-1
 258 383 l 5,7,-1
435 19 m 5,10,-1
 250 369 l 1,11,-1
 66 19 l 1,12,-1
 435 19 l 5,10,-1
59 733 m 5,13,-1
 59 34 l 1,14,-1
 243 383 l 1,15,-1
 59 733 l 5,13,-1
EndSplineSet
Validated: 1
EndChar

StartChar: uni0015
Encoding: 21 21 21
Width: 500
Flags: W
HStem: 0 19<66 435> 748 22<66 435>
VStem: 37 22<34 733> 442 22<34 733>
DStem2: 66 748 59 733 0.465951 -0.884811<10.0105 395.419 421.078 806.952> 59 34 66 19 0.465951 0.884811<0 385.408 411.068 796.942>
LayerCount: 3
Fore
SplineSet
37 770 m 5
 464 770 l 5
 464 0 l 5
 37 0 l 5
 37 770 l 5
66 748 m 5
 250 398 l 5
 435 748 l 5
 66 748 l 5
258 383 m 5
 442 34 l 5
 442 733 l 5
 258 383 l 5
435 19 m 5
 250 369 l 5
 66 19 l 5
 435 19 l 5
59 733 m 5
 59 34 l 5
 243 383 l 5
 59 733 l 5
EndSplineSet
Validated: 1
Layer: 2
SplineSet
37 770 m 5,0,-1
 464 770 l 1,1,-1
 464 0 l 1,2,-1
 37 0 l 1,3,-1
 37 770 l 5,0,-1
66 748 m 5,4,-1
 250 398 l 1,5,-1
 435 748 l 1,6,-1
 66 748 l 5,4,-1
258 383 m 5,7,-1
 442 34 l 1,8,-1
 442 733 l 1,9,-1
 258 383 l 5,7,-1
435 19 m 5,10,-1
 250 369 l 1,11,-1
 66 19 l 1,12,-1
 435 19 l 5,10,-1
59 733 m 5,13,-1
 59 34 l 1,14,-1
 243 383 l 1,15,-1
 59 733 l 5,13,-1
EndSplineSet
Validated: 1
EndChar

StartChar: uni0016
Encoding: 22 22 22
Width: 500
Flags: W
HStem: 0 19<66 435> 748 22<66 435>
VStem: 37 22<34 733> 442 22<34 733>
DStem2: 66 748 59 733 0.465951 -0.884811<10.0105 395.419 421.078 806.952> 59 34 66 19 0.465951 0.884811<0 385.408 411.068 796.942>
LayerCount: 3
Fore
SplineSet
37 770 m 5
 464 770 l 5
 464 0 l 5
 37 0 l 5
 37 770 l 5
66 748 m 5
 250 398 l 5
 435 748 l 5
 66 748 l 5
258 383 m 5
 442 34 l 5
 442 733 l 5
 258 383 l 5
435 19 m 5
 250 369 l 5
 66 19 l 5
 435 19 l 5
59 733 m 5
 59 34 l 5
 243 383 l 5
 59 733 l 5
EndSplineSet
Validated: 1
Layer: 2
SplineSet
37 770 m 5,0,-1
 464 770 l 1,1,-1
 464 0 l 1,2,-1
 37 0 l 1,3,-1
 37 770 l 5,0,-1
66 748 m 5,4,-1
 250 398 l 1,5,-1
 435 748 l 1,6,-1
 66 748 l 5,4,-1
258 383 m 5,7,-1
 442 34 l 1,8,-1
 442 733 l 1,9,-1
 258 383 l 5,7,-1
435 19 m 5,10,-1
 250 369 l 1,11,-1
 66 19 l 1,12,-1
 435 19 l 5,10,-1
59 733 m 5,13,-1
 59 34 l 1,14,-1
 243 383 l 1,15,-1
 59 733 l 5,13,-1
EndSplineSet
Validated: 1
EndChar

StartChar: uni0017
Encoding: 23 23 23
Width: 500
Flags: W
HStem: 0 19<66 435> 748 22<66 435>
VStem: 37 22<34 733> 442 22<34 733>
DStem2: 66 748 59 733 0.465951 -0.884811<10.0105 395.419 421.078 806.952> 59 34 66 19 0.465951 0.884811<0 385.408 411.068 796.942>
LayerCount: 3
Fore
SplineSet
37 770 m 5
 464 770 l 5
 464 0 l 5
 37 0 l 5
 37 770 l 5
66 748 m 5
 250 398 l 5
 435 748 l 5
 66 748 l 5
258 383 m 5
 442 34 l 5
 442 733 l 5
 258 383 l 5
435 19 m 5
 250 369 l 5
 66 19 l 5
 435 19 l 5
59 733 m 5
 59 34 l 5
 243 383 l 5
 59 733 l 5
EndSplineSet
Validated: 1
Layer: 2
SplineSet
37 770 m 5,0,-1
 464 770 l 1,1,-1
 464 0 l 1,2,-1
 37 0 l 1,3,-1
 37 770 l 5,0,-1
66 748 m 5,4,-1
 250 398 l 1,5,-1
 435 748 l 1,6,-1
 66 748 l 5,4,-1
258 383 m 5,7,-1
 442 34 l 1,8,-1
 442 733 l 1,9,-1
 258 383 l 5,7,-1
435 19 m 5,10,-1
 250 369 l 1,11,-1
 66 19 l 1,12,-1
 435 19 l 5,10,-1
59 733 m 5,13,-1
 59 34 l 1,14,-1
 243 383 l 1,15,-1
 59 733 l 5,13,-1
EndSplineSet
Validated: 1
EndChar

StartChar: uni0018
Encoding: 24 24 24
Width: 500
Flags: W
HStem: 0 19<66 435> 748 22<66 435>
VStem: 37 22<34 733> 442 22<34 733>
DStem2: 66 748 59 733 0.465951 -0.884811<10.0105 395.419 421.078 806.952> 59 34 66 19 0.465951 0.884811<0 385.408 411.068 796.942>
LayerCount: 3
Fore
SplineSet
37 770 m 5
 464 770 l 5
 464 0 l 5
 37 0 l 5
 37 770 l 5
66 748 m 5
 250 398 l 5
 435 748 l 5
 66 748 l 5
258 383 m 5
 442 34 l 5
 442 733 l 5
 258 383 l 5
435 19 m 5
 250 369 l 5
 66 19 l 5
 435 19 l 5
59 733 m 5
 59 34 l 5
 243 383 l 5
 59 733 l 5
EndSplineSet
Validated: 1
Layer: 2
SplineSet
37 770 m 5,0,-1
 464 770 l 1,1,-1
 464 0 l 1,2,-1
 37 0 l 1,3,-1
 37 770 l 5,0,-1
66 748 m 5,4,-1
 250 398 l 1,5,-1
 435 748 l 1,6,-1
 66 748 l 5,4,-1
258 383 m 5,7,-1
 442 34 l 1,8,-1
 442 733 l 1,9,-1
 258 383 l 5,7,-1
435 19 m 5,10,-1
 250 369 l 1,11,-1
 66 19 l 1,12,-1
 435 19 l 5,10,-1
59 733 m 5,13,-1
 59 34 l 1,14,-1
 243 383 l 1,15,-1
 59 733 l 5,13,-1
EndSplineSet
Validated: 1
EndChar

StartChar: uni0019
Encoding: 25 25 25
Width: 500
Flags: W
HStem: 0 19<66 435> 748 22<66 435>
VStem: 37 22<34 733> 442 22<34 733>
DStem2: 66 748 59 733 0.465951 -0.884811<10.0105 395.419 421.078 806.952> 59 34 66 19 0.465951 0.884811<0 385.408 411.068 796.942>
LayerCount: 3
Fore
SplineSet
37 770 m 5
 464 770 l 5
 464 0 l 5
 37 0 l 5
 37 770 l 5
66 748 m 5
 250 398 l 5
 435 748 l 5
 66 748 l 5
258 383 m 5
 442 34 l 5
 442 733 l 5
 258 383 l 5
435 19 m 5
 250 369 l 5
 66 19 l 5
 435 19 l 5
59 733 m 5
 59 34 l 5
 243 383 l 5
 59 733 l 5
EndSplineSet
Validated: 1
Layer: 2
SplineSet
37 770 m 5,0,-1
 464 770 l 1,1,-1
 464 0 l 1,2,-1
 37 0 l 1,3,-1
 37 770 l 5,0,-1
66 748 m 5,4,-1
 250 398 l 1,5,-1
 435 748 l 1,6,-1
 66 748 l 5,4,-1
258 383 m 5,7,-1
 442 34 l 1,8,-1
 442 733 l 1,9,-1
 258 383 l 5,7,-1
435 19 m 5,10,-1
 250 369 l 1,11,-1
 66 19 l 1,12,-1
 435 19 l 5,10,-1
59 733 m 5,13,-1
 59 34 l 1,14,-1
 243 383 l 1,15,-1
 59 733 l 5,13,-1
EndSplineSet
Validated: 1
EndChar

StartChar: uni001A
Encoding: 26 26 26
Width: 500
Flags: W
HStem: 0 19<66 435> 748 22<66 435>
VStem: 37 22<34 733> 442 22<34 733>
DStem2: 66 748 59 733 0.465951 -0.884811<10.0105 395.419 421.078 806.952> 59 34 66 19 0.465951 0.884811<0 385.408 411.068 796.942>
LayerCount: 3
Fore
SplineSet
37 770 m 5
 464 770 l 5
 464 0 l 5
 37 0 l 5
 37 770 l 5
66 748 m 5
 250 398 l 5
 435 748 l 5
 66 748 l 5
258 383 m 5
 442 34 l 5
 442 733 l 5
 258 383 l 5
435 19 m 5
 250 369 l 5
 66 19 l 5
 435 19 l 5
59 733 m 5
 59 34 l 5
 243 383 l 5
 59 733 l 5
EndSplineSet
Validated: 1
Layer: 2
SplineSet
37 770 m 5,0,-1
 464 770 l 1,1,-1
 464 0 l 1,2,-1
 37 0 l 1,3,-1
 37 770 l 5,0,-1
66 748 m 5,4,-1
 250 398 l 1,5,-1
 435 748 l 1,6,-1
 66 748 l 5,4,-1
258 383 m 5,7,-1
 442 34 l 1,8,-1
 442 733 l 1,9,-1
 258 383 l 5,7,-1
435 19 m 5,10,-1
 250 369 l 1,11,-1
 66 19 l 1,12,-1
 435 19 l 5,10,-1
59 733 m 5,13,-1
 59 34 l 1,14,-1
 243 383 l 1,15,-1
 59 733 l 5,13,-1
EndSplineSet
Validated: 1
EndChar

StartChar: uni001B
Encoding: 27 27 27
Width: 500
Flags: W
HStem: 0 19<66 435> 748 22<66 435>
VStem: 37 22<34 733> 442 22<34 733>
DStem2: 66 748 59 733 0.465951 -0.884811<10.0105 395.419 421.078 806.952> 59 34 66 19 0.465951 0.884811<0 385.408 411.068 796.942>
LayerCount: 3
Fore
SplineSet
37 770 m 5
 464 770 l 5
 464 0 l 5
 37 0 l 5
 37 770 l 5
66 748 m 5
 250 398 l 5
 435 748 l 5
 66 748 l 5
258 383 m 5
 442 34 l 5
 442 733 l 5
 258 383 l 5
435 19 m 5
 250 369 l 5
 66 19 l 5
 435 19 l 5
59 733 m 5
 59 34 l 5
 243 383 l 5
 59 733 l 5
EndSplineSet
Validated: 1
Layer: 2
SplineSet
37 770 m 5,0,-1
 464 770 l 1,1,-1
 464 0 l 1,2,-1
 37 0 l 1,3,-1
 37 770 l 5,0,-1
66 748 m 5,4,-1
 250 398 l 1,5,-1
 435 748 l 1,6,-1
 66 748 l 5,4,-1
258 383 m 5,7,-1
 442 34 l 1,8,-1
 442 733 l 1,9,-1
 258 383 l 5,7,-1
435 19 m 5,10,-1
 250 369 l 1,11,-1
 66 19 l 1,12,-1
 435 19 l 5,10,-1
59 733 m 5,13,-1
 59 34 l 1,14,-1
 243 383 l 1,15,-1
 59 733 l 5,13,-1
EndSplineSet
Validated: 1
EndChar

StartChar: uni001C
Encoding: 28 28 28
Width: 500
Flags: W
HStem: 0 19<66 435> 748 22<66 435>
VStem: 37 22<34 733> 442 22<34 733>
DStem2: 66 748 59 733 0.465951 -0.884811<10.0105 395.419 421.078 806.952> 59 34 66 19 0.465951 0.884811<0 385.408 411.068 796.942>
LayerCount: 3
Fore
SplineSet
37 770 m 5
 464 770 l 5
 464 0 l 5
 37 0 l 5
 37 770 l 5
66 748 m 5
 250 398 l 5
 435 748 l 5
 66 748 l 5
258 383 m 5
 442 34 l 5
 442 733 l 5
 258 383 l 5
435 19 m 5
 250 369 l 5
 66 19 l 5
 435 19 l 5
59 733 m 5
 59 34 l 5
 243 383 l 5
 59 733 l 5
EndSplineSet
Validated: 1
Layer: 2
SplineSet
37 770 m 5,0,-1
 464 770 l 1,1,-1
 464 0 l 1,2,-1
 37 0 l 1,3,-1
 37 770 l 5,0,-1
66 748 m 5,4,-1
 250 398 l 1,5,-1
 435 748 l 1,6,-1
 66 748 l 5,4,-1
258 383 m 5,7,-1
 442 34 l 1,8,-1
 442 733 l 1,9,-1
 258 383 l 5,7,-1
435 19 m 5,10,-1
 250 369 l 1,11,-1
 66 19 l 1,12,-1
 435 19 l 5,10,-1
59 733 m 5,13,-1
 59 34 l 1,14,-1
 243 383 l 1,15,-1
 59 733 l 5,13,-1
EndSplineSet
Validated: 1
EndChar

StartChar: uni001E
Encoding: 30 30 30
Width: 500
Flags: W
HStem: 0 19<66 435> 748 22<66 435>
VStem: 37 22<34 733> 442 22<34 733>
DStem2: 66 748 59 733 0.465951 -0.884811<10.0105 395.419 421.078 806.952> 59 34 66 19 0.465951 0.884811<0 385.408 411.068 796.942>
LayerCount: 3
Fore
SplineSet
37 770 m 5
 464 770 l 5
 464 0 l 5
 37 0 l 5
 37 770 l 5
66 748 m 5
 250 398 l 5
 435 748 l 5
 66 748 l 5
258 383 m 5
 442 34 l 5
 442 733 l 5
 258 383 l 5
435 19 m 5
 250 369 l 5
 66 19 l 5
 435 19 l 5
59 733 m 5
 59 34 l 5
 243 383 l 5
 59 733 l 5
EndSplineSet
Validated: 1
Layer: 2
SplineSet
37 770 m 5,0,-1
 464 770 l 1,1,-1
 464 0 l 1,2,-1
 37 0 l 1,3,-1
 37 770 l 5,0,-1
66 748 m 5,4,-1
 250 398 l 1,5,-1
 435 748 l 1,6,-1
 66 748 l 5,4,-1
258 383 m 5,7,-1
 442 34 l 1,8,-1
 442 733 l 1,9,-1
 258 383 l 5,7,-1
435 19 m 5,10,-1
 250 369 l 1,11,-1
 66 19 l 1,12,-1
 435 19 l 5,10,-1
59 733 m 5,13,-1
 59 34 l 1,14,-1
 243 383 l 1,15,-1
 59 733 l 5,13,-1
EndSplineSet
Validated: 1
EndChar

StartChar: uni001F
Encoding: 31 31 31
Width: 500
Flags: W
HStem: 0 19<66 435> 748 22<66 435>
VStem: 37 22<34 733> 442 22<34 733>
DStem2: 66 748 59 733 0.465951 -0.884811<10.0105 395.419 421.078 806.952> 59 34 66 19 0.465951 0.884811<0 385.408 411.068 796.942>
LayerCount: 3
Fore
SplineSet
37 770 m 5
 464 770 l 5
 464 0 l 5
 37 0 l 5
 37 770 l 5
66 748 m 5
 250 398 l 5
 435 748 l 5
 66 748 l 5
258 383 m 5
 442 34 l 5
 442 733 l 5
 258 383 l 5
435 19 m 5
 250 369 l 5
 66 19 l 5
 435 19 l 5
59 733 m 5
 59 34 l 5
 243 383 l 5
 59 733 l 5
EndSplineSet
Validated: 1
Layer: 2
SplineSet
37 770 m 5,0,-1
 464 770 l 1,1,-1
 464 0 l 1,2,-1
 37 0 l 1,3,-1
 37 770 l 5,0,-1
66 748 m 5,4,-1
 250 398 l 1,5,-1
 435 748 l 1,6,-1
 66 748 l 5,4,-1
258 383 m 5,7,-1
 442 34 l 1,8,-1
 442 733 l 1,9,-1
 258 383 l 5,7,-1
435 19 m 5,10,-1
 250 369 l 1,11,-1
 66 19 l 1,12,-1
 435 19 l 5,10,-1
59 733 m 5,13,-1
 59 34 l 1,14,-1
 243 383 l 1,15,-1
 59 733 l 5,13,-1
EndSplineSet
Validated: 1
EndChar

StartChar: uni25CC
Encoding: 9676 9676 34
Width: 525
GlyphClass: 2
Flags: W
HStem: -11 69<228.499 293.116> 42 69<94.4993 160.204 360.499 425.204> 174 69<34.1933 99.4636 422.499 487.204> 319 69<94.7991 159.92 363.219 422.698> 376 69<228.508 293.246>
VStem: 33 67<174.596 241.864> 93 68<42.7508 109.864 319.837 385.91> 227 67<-9.86539 56.8636 376.837 443.492> 359 67<42.7508 109.97 324.788 392.864> 421 67<174.796 241.864>
AnchorPoint: "Lomka" 525 150 basechar 0
AnchorPoint: "Tikhaya" 30 150 basechar 0
AnchorPoint: "Borzaya" 0 150 basechar 0
AnchorPoint: "Zevok" 500 160 basechar 0
AnchorPoint: "Kachka" 0 270 basechar 0
AnchorPoint: "Kupnaya" 0 100 basechar 0
AnchorPoint: "Auxiliary" 125 560 basechar 0
AnchorPoint: "Podvertka" 595 160 basechar 0
AnchorPoint: "Flexion" 395 640 basechar 0
AnchorPoint: "Podtinka" 30 -50 basechar 0
AnchorPoint: "TonalRange" 415 660 basechar 0
AnchorPoint: "Zaderzhka" 500 320 basechar 0
AnchorPoint: "Tochka" 535 345 basechar 0
AnchorPoint: "Podchashie" 260 -30 basechar 0
AnchorPoint: "PitchMark" 0 500 basechar 0
LayerCount: 3
Fore
SplineSet
67 243 m 0x25
 81 243 84 243 93 233 c 0x23
 102 223 100 223 100 208 c 0
 100 193 100 193 91 183.5 c 0
 82 174 82 174 67 174 c 0
 52 174 52 174 42.5 184 c 0
 33 194 33 194 33 208 c 0
 33 222 33 222 43.5 232.5 c 0
 54 243 54 243 67 243 c 0x25
127 111 m 0x63
 142 111 142 111 151.5 101 c 0
 161 91 161 91 161 76 c 0
 161 62 161 62 151 52 c 0
 141 42 141 42 127 42 c 0
 113 42 113 42 103 52 c 0
 93 62 93 62 93 76 c 0
 93 89 93 89 103.5 100 c 0
 114 111 114 111 127 111 c 0x63
127 388 m 0x33
 141 388 141 386 151 376 c 0x2b
 161 366 161 368 161 354 c 0
 161 339 161 339 151.5 329 c 0
 142 319 142 319 127 319 c 0x33
 113 319 113 319 103 329.5 c 0
 93 340 93 340 93 354 c 0
 93 366 93 365 104 376 c 0x2b
 115 387 115 388 127 388 c 0x33
261 58 m 0xa1
 276 58 276 58 285 48 c 0
 294 38 294 38 294 23 c 0
 294 9 294 10 284.5 0 c 0
 275 -10 275 -11 261 -11 c 0
 247 -11 247 -10 237 0 c 0
 227 10 227 9 227 23 c 0
 227 36 227 36 237.5 47 c 0
 248 58 248 58 261 58 c 0xa1
261 445 m 0x29
 275 445 275 445 284.5 435 c 0
 294 425 294 425 294 411 c 0
 294 396 294 396 285 386 c 0
 276 376 276 376 261 376 c 0
 247 376 247 376 237 386.5 c 0
 227 397 227 397 227 411 c 0
 227 423 227 423 238 434 c 0
 249 445 249 445 261 445 c 0x29
392 111 m 0x6180
 407 111 407 111 416.5 101 c 0
 426 91 426 91 426 76 c 0
 426 61 426 61 416.5 51.5 c 0
 407 42 407 42 392 42 c 0
 379 42 379 42 369 52 c 0
 359 62 359 62 359 76 c 0
 359 89 359 89 369.5 100 c 0
 380 111 380 111 392 111 c 0x6180
392 394 m 0
 407 394 407 394 416.5 384 c 0
 426 374 426 374 426 359 c 0
 426 344 426 344 416.5 334 c 0
 407 324 407 324 392 324 c 0
 379 324 379 324 369 334.5 c 0
 359 345 359 345 359 359 c 0
 359 371 359 371 369.5 382.5 c 0
 380 394 380 394 392 394 c 0
455 243 m 0
 469 243 469 243 478.5 233 c 0
 488 223 488 223 488 208 c 0
 488 193 488 193 479 183.5 c 0
 470 174 470 174 455 174 c 0
 441 174 441 174 431 184 c 0
 421 194 421 194 421 208 c 0x2140
 421 221 421 221 431.5 232 c 0
 442 243 442 243 455 243 c 0
EndSplineSet
Validated: 19457
Layer: 2
SplineSet
100 220 m 2,0,-1
 100 208 l 2,1,2
 100 197 100 197 99.5 195 c 128,-1,3
 99 193 99 193 91.5 184.5 c 128,-1,4
 84 176 84 176 81 175 c 128,-1,5
 78 174 78 174 67 174 c 128,-1,6
 56 174 56 174 54 175 c 128,-1,7
 52 176 52 176 43 184 c 0,8,9
 35 192 35 192 34 195 c 128,-1,10
 33 198 33 198 33 208.5 c 128,-1,11
 33 219 33 219 34.5 222 c 128,-1,12
 36 225 36 225 43.5 232.5 c 128,-1,13
 51 240 51 240 54 241.5 c 128,-1,14
 57 243 57 243 70.5 243 c 128,-1,15
 84 243 84 243 89.5 236.5 c 128,-1,16
 95 230 95 230 97.5 227.5 c 128,-1,17
 100 225 100 225 100 220 c 2,0,-1
114 109.5 m 128,-1,19
 117 111 117 111 127.5 111 c 128,-1,20
 138 111 138 111 141 110 c 128,-1,21
 144 109 144 109 151.5 101.5 c 128,-1,22
 159 94 159 94 160 90.5 c 128,-1,23
 161 87 161 87 161 74.5 c 128,-1,24
 161 62 161 62 151 52 c 128,-1,25
 141 42 141 42 127 42 c 128,-1,26
 113 42 113 42 103 52 c 128,-1,27
 93 62 93 62 93 75 c 128,-1,28
 93 88 93 88 94.5 90 c 128,-1,29
 96 92 96 92 103.5 100 c 128,-1,18
 111 108 111 108 114 109.5 c 128,-1,19
94 365 m 128,-1,31
 95 367 95 367 105.5 377.5 c 128,-1,32
 116 388 116 388 125 388 c 128,-1,33
 134 388 134 388 138 387 c 128,-1,34
 142 386 142 386 149 379 c 128,-1,35
 156 372 156 372 158 368 c 0,36,37
 161 364 161 364 161 354 c 128,-1,38
 161 344 161 344 160 338 c 0,39,40
 158 331 158 331 141 320 c 0,41,42
 139 319 139 319 127 319 c 0,43,44
 116 319 116 319 114 320 c 128,-1,45
 112 321 112 321 104 329 c 128,-1,46
 96 337 96 337 94.5 340.5 c 128,-1,47
 93 344 93 344 93 353.5 c 128,-1,30
 93 363 93 363 94 365 c 128,-1,31
248 56.5 m 128,-1,49
 251 58 251 58 261.5 58 c 128,-1,50
 272 58 272 58 276 56 c 0,51,52
 294 45 294 45 294 28.5 c 128,-1,53
 294 12 294 12 293 10 c 128,-1,54
 292 8 292 8 284.5 0 c 128,-1,55
 277 -8 277 -8 274 -9.5 c 128,-1,56
 271 -11 271 -11 259.5 -11 c 128,-1,57
 248 -11 248 -11 240 -3 c 2,58,-1
 231 6 l 2,59,60
 227 10 227 10 227 14 c 2,61,-1
 227 23 l 2,62,63
 227 34 227 34 228.5 36.5 c 128,-1,64
 230 39 230 39 237.5 47 c 128,-1,48
 245 55 245 55 248 56.5 c 128,-1,49
261 445 m 128,-1,66
 273 445 273 445 275 444 c 128,-1,67
 277 443 277 443 284.5 435.5 c 128,-1,68
 292 428 292 428 293 425 c 128,-1,69
 294 422 294 422 294 409 c 128,-1,70
 294 396 294 396 286 387 c 128,-1,71
 278 378 278 378 275 377 c 128,-1,72
 272 376 272 376 260 376 c 128,-1,73
 248 376 248 376 248 376 c 2,74,-1
 237 387 l 2,75,76
 230 394 230 394 228 397 c 0,77,78
 227 400 227 400 227 411.5 c 128,-1,79
 227 423 227 423 238 434 c 128,-1,65
 249 445 249 445 261 445 c 128,-1,66
380 109.5 m 128,-1,81
 383 111 383 111 393.5 111 c 128,-1,82
 404 111 404 111 406.5 109.5 c 128,-1,83
 409 108 409 108 416.5 101 c 128,-1,84
 424 94 424 94 425 90.5 c 128,-1,85
 426 87 426 87 426 76 c 128,-1,86
 426 65 426 65 425 62 c 128,-1,87
 424 59 424 59 416.5 51.5 c 128,-1,88
 409 44 409 44 406 43 c 128,-1,89
 403 42 403 42 391 42 c 128,-1,90
 379 42 379 42 369 52 c 128,-1,91
 359 62 359 62 359 75 c 128,-1,92
 359 88 359 88 360.5 90 c 128,-1,93
 362 92 362 92 369.5 100 c 128,-1,80
 377 108 377 108 380 109.5 c 128,-1,81
380 392.5 m 128,-1,95
 383 394 383 394 393 394 c 128,-1,96
 403 394 403 394 405.5 393 c 128,-1,97
 408 392 408 392 416 384 c 128,-1,98
 424 376 424 376 425 373 c 128,-1,99
 426 370 426 370 426 359.5 c 128,-1,100
 426 349 426 349 425 345 c 128,-1,101
 424 341 424 341 416.5 333.5 c 128,-1,102
 409 326 409 326 406 325 c 128,-1,103
 403 324 403 324 391.5 324 c 128,-1,104
 380 324 380 324 380 324 c 2,105,-1
 369 335 l 2,106,107
 362 342 362 342 360 345 c 0,108,109
 359 348 359 348 359 359 c 128,-1,110
 359 370 359 370 360.5 372 c 128,-1,111
 362 374 362 374 369.5 382.5 c 128,-1,94
 377 391 377 391 380 392.5 c 128,-1,95
442 241.5 m 128,-1,113
 445 243 445 243 456 243 c 128,-1,114
 467 243 467 243 468 242.5 c 128,-1,115
 469 242 469 242 477.5 233.5 c 128,-1,116
 486 225 486 225 487 222 c 128,-1,117
 488 219 488 219 488 208 c 128,-1,118
 488 197 488 197 487.5 195 c 128,-1,119
 487 193 487 193 479.5 184.5 c 128,-1,120
 472 176 472 176 469 175 c 128,-1,121
 466 174 466 174 453.5 174 c 128,-1,122
 441 174 441 174 431 184 c 128,-1,123
 421 194 421 194 421 207 c 128,-1,124
 421 220 421 220 422.5 222 c 128,-1,125
 424 224 424 224 431.5 232 c 128,-1,112
 439 240 439 240 442 241.5 c 128,-1,113
EndSplineSet
Validated: 1
EndChar

StartChar: uni2010
Encoding: 8208 8208 52
Width: 333
Flags: W
HStem: 194 63<39 285>
VStem: 39 246<194 257>
LayerCount: 3
Fore
SplineSet
39 257 m 1
 285 257 l 1
 285 194 l 1
 39 194 l 1
 39 257 l 1
EndSplineSet
Validated: 1
Layer: 2
SplineSet
39 257 m 1,0,-1
 285 257 l 1,1,-1
 285 194 l 1,2,-1
 39 194 l 1,3,-1
 39 257 l 1,0,-1
EndSplineSet
Validated: 1
EndChar

StartChar: uni2011
Encoding: 8209 8209 53
Width: 333
Flags: W
HStem: 194 63<39 285>
VStem: 39 246<194 257>
LayerCount: 3
Fore
SplineSet
39 257 m 1
 285 257 l 1
 285 194 l 1
 39 194 l 1
 39 257 l 1
EndSplineSet
Validated: 1
Layer: 2
SplineSet
39 257 m 1,0,-1
 285 257 l 1,1,-1
 285 194 l 1,2,-1
 39 194 l 1,3,-1
 39 257 l 1,0,-1
EndSplineSet
Validated: 1
EndChar

StartChar: endash
Encoding: 8211 8211 55
Width: 500
Flags: W
HStem: 194 63<0 500>
LayerCount: 3
Fore
SplineSet
0 257 m 1
 500 257 l 1
 500 194 l 1
 0 194 l 1
 0 257 l 1
EndSplineSet
Validated: 1
Layer: 2
SplineSet
0 257 m 1,0,-1
 500 257 l 1,1,-1
 500 194 l 1,2,-1
 0 194 l 1,3,-1
 0 257 l 1,0,-1
EndSplineSet
Validated: 1
EndChar

StartChar: emdash
Encoding: 8212 8212 56
Width: 1000
Flags: W
HStem: 194 63<0 1000>
LayerCount: 3
Fore
SplineSet
0 257 m 1
 1000 257 l 1
 1000 194 l 1
 0 194 l 1
 0 257 l 1
EndSplineSet
Validated: 1
Layer: 2
SplineSet
0 257 m 1,0,-1
 1000 257 l 1,1,-1
 1000 194 l 1,2,-1
 0 194 l 1,3,-1
 0 257 l 1,0,-1
EndSplineSet
Validated: 1
EndChar

StartChar: bar
Encoding: 124 124 58
Width: 241
VWidth: 999
Flags: W
HStem: -82 79<25.3325 77.3699 104 146.621> 592 80<96.3325 138 163.77 217.62>
VStem: 10 221
DStem2: 76 1 104 -3 0.103333 0.994647<0 598.131>
LayerCount: 3
Fore
SplineSet
25 -16 m 1
 32 -2 45 1 61 1 c 0
 66 1 71 1 76 1 c 1
 90 142 124 454 138 596 c 1
 131 596 124 597 117 597 c 0
 102 597 88 593 81 581 c 1
 96 659 l 1
 103 673 116 676 132 676 c 0
 150 676 172 672 191 672 c 0
 207 672 221 675 231 686 c 1
 218 611 l 1
 210 596 195 592 177 592 c 0
 173 592 170 592 166 593 c 1
 151 452 117 140 104 -3 c 1
 109 -3 115 -3 120 -3 c 0
 136 -3 150 -0 160 11 c 1
 147 -64 l 1
 139 -78 125 -82 108 -82 c 0
 89 -82 67 -77 48 -77 c 0
 31 -77 18 -81 10 -94 c 1
 25 -16 l 1
EndSplineSet
Validated: 1
Layer: 2
SplineSet
76 1 m 1,0,-1
 138 596 l 1,1,-1
 117 597 l 1,2,3
 90 597 90 597 81 581 c 1,4,-1
 96 659 l 1,5,6
 104 676 104 676 132 676 c 1,7,-1
 191 672 l 1,8,9
 218 672 218 672 231 686 c 1,10,-1
 218 611 l 1,11,12
 208 592 208 592 177 592 c 0,13,14
 170 592 170 592 166 593 c 1,15,16
 112 88 112 88 104 -3 c 1,17,-1
 120 -3 l 2,18,19
 147 -3 147 -3 160 11 c 1,20,-1
 147 -64 l 1,21,22
 137 -82 137 -82 108 -82 c 1,23,-1
 48 -77 l 1,24,25
 20 -77 20 -77 10 -94 c 1,26,-1
 25 -16 l 1,27,28
 34 1 34 1 61 1 c 2,29,-1
 76 1 l 1,0,-1
EndSplineSet
Validated: 1
EndChar

StartChar: currency
Encoding: 164 164 59
Width: 399
Flags: W
HStem: 141 40<151.324 249.875> 320 40<151.257 249.875>
VStem: 90 40<202.106 298.687> 270 40<201.008 299.791>
LayerCount: 3
Fore
SplineSet
151 300 m 0
 144 293 138 286 135 277 c 0
 132 268 130 259 130 250 c 0
 130 241 132 233 135 224 c 0
 138 215 143 208 150 202 c 0
 157 195 165 189 174 186 c 0
 183 183 192 181 201 181 c 0
 210 181 217 183 226 186 c 0
 235 189 243 194 250 201 c 0
 256 208 263 215 266 224 c 0
 269 233 270 241 270 250 c 0
 270 259 269 268 266 277 c 0
 263 286 257 293 250 300 c 0
 243 307 235 312 226 315 c 0
 217 318 210 320 201 320 c 0
 192 320 183 318 174 315 c 0
 165 312 158 307 151 300 c 0
307 117 m 1
 263 160 l 1
 253 154 243 149 233 146 c 0
 223 143 212 141 201 141 c 0
 190 141 179 143 168 146 c 0
 157 149 148 155 138 161 c 1
 92 116 l 1
 78 117 l 1
 76 121 74 125 72 130 c 0
 70 135 68 137 66 142 c 1
 110 187 l 1
 104 196 98 207 95 217 c 0
 92 227 90 239 90 250 c 0
 90 261 93 271 96 282 c 0
 99 293 104 303 110 313 c 1
 66 358 l 1
 67 371 l 1
 71 373 74 376 79 378 c 0
 84 380 88 382 93 384 c 1
 138 340 l 1
 148 346 157 352 168 355 c 0
 179 358 190 360 201 360 c 0
 212 360 223 358 233 355 c 0
 243 352 253 347 263 340 c 1
 307 384 l 1
 321 384 l 1
 334 357 l 1
 290 313 l 1
 296 303 302 293 305 282 c 0
 308 271 310 261 310 250 c 0
 310 239 308 227 305 217 c 0
 302 207 296 196 290 186 c 1
 334 143 l 1
 334 129 l 1
 307 117 l 1
EndSplineSet
Validated: 19457
EndChar

StartChar: section
Encoding: 167 167 60
Width: 399
Flags: W
HStem: -13 41<139.927 256.103> 562 37<144.176 237.781>
VStem: 50 54<287.191 385.941> 78 54<467.113 551.951> 82 17<86.8636 118> 272 54<41.2973 128.559> 296 54<202.096 301.9>
LayerCount: 3
Fore
SplineSet
224 220 m 0xe2
 231 216 239 213 246 209 c 2
 267 197 l 1
 276 203 283 209 288 218 c 0
 293 227 296 237 296 247 c 0
 296 260 293 272 288 282 c 0
 283 292 275 302 265 312 c 0
 255 322 241 332 225 342 c 0
 209 352 191 362 169 374 c 0
 163 377 156 381 150 385 c 0
 144 389 139 392 133 396 c 1
 128 394 124 391 120 387 c 0
 116 383 113 379 111 373 c 0
 109 367 108 363 106 357 c 0
 104 351 104 347 104 342 c 0
 104 329 106 318 111 308 c 0
 116 298 123 289 133 280 c 0
 143 271 155 262 170 252 c 0
 185 242 203 232 224 220 c 0xe2
350 273 m 0
 350 261 348 248 346 238 c 0
 344 228 340 219 335 210 c 0
 330 201 326 192 320 186 c 0
 314 180 308 175 302 170 c 1
 309 162 315 153 319 143 c 0
 323 133 326 123 326 110 c 0xc4
 326 90 324 73 318 59 c 0
 312 45 305 35 296 26 c 0
 287 17 277 9 266 4 c 0
 255 -1 244 -5 234 -7 c 0
 224 -9 215 -11 205 -12 c 0
 195 -13 188 -13 182 -13 c 0
 176 -13 168 -12 160 -10 c 0
 152 -8 143 -6 134 -3 c 0
 125 0 116 4 106 8 c 0
 96 12 87 17 78 22 c 0xd2
 76 23 75 27 74 35 c 0
 73 43 73 54 74 64 c 0
 75 74 75 85 77 96 c 0
 79 107 80 116 82 122 c 1
 99 118 l 1
 100 106 103 94 109 84 c 0
 115 74 121 63 131 55 c 0
 141 47 151 40 163 35 c 0
 175 30 189 28 203 28 c 0
 223 28 240 32 253 42 c 0
 266 52 272 66 272 86 c 0
 272 97 268 107 262 115 c 0
 256 123 249 131 239 137 c 0
 229 143 218 149 206 155 c 0
 194 161 182 167 169 174 c 0
 151 184 133 195 119 205 c 0
 105 215 92 226 82 237 c 0xcc
 72 248 64 261 58 275 c 0
 52 289 50 304 50 322 c 0xe0
 50 332 51 342 54 352 c 0
 57 362 61 370 67 379 c 0
 73 388 79 396 86 402 c 0
 93 408 100 415 108 420 c 1
 98 431 92 443 86 456 c 0
 80 469 78 483 78 499 c 0
 78 516 81 531 88 544 c 0
 95 557 105 567 116 575 c 0
 127 583 140 590 155 594 c 0
 170 598 186 599 202 599 c 0
 211 599 220 598 230 596 c 0
 240 594 251 591 261 588 c 0
 271 585 280 581 289 577 c 0
 298 573 304 568 310 563 c 0
 312 561 313 558 311 552 c 0
 309 546 308 540 306 533 c 0
 304 526 300 519 297 513 c 0
 294 507 292 503 290 501 c 1
 274 504 l 1
 260 524 246 538 232 548 c 0
 218 558 204 562 190 562 c 0
 172 562 157 558 147 550 c 0
 137 542 132 530 132 516 c 0xd0
 132 506 134 498 138 490 c 0
 142 482 147 473 155 466 c 0
 163 459 173 451 184 444 c 0
 195 437 209 429 224 420 c 0
 242 410 259 400 274 390 c 0
 289 380 303 369 314 358 c 0
 325 347 335 336 341 322 c 0
 347 308 350 292 350 273 c 0
EndSplineSet
Validated: 19457
EndChar

StartChar: brokenbar
Encoding: 166 166 61
Width: 208
Flags: W
VStem: 75 58<-198 188 294 686>
LayerCount: 3
Fore
SplineSet
133 -186 m 1
 127 -191 121 -195 113 -199 c 0
 105 -203 97 -206 90 -208 c 1
 75 -198 l 1
 75 177 l 1
 83 182 90 186 96 189 c 0
 102 192 109 196 118 198 c 1
 133 188 l 1
 133 -186 l 1
133 306 m 1
 127 301 121 298 113 294 c 0
 105 290 97 288 90 286 c 1
 75 294 l 1
 75 674 l 1
 83 679 90 683 96 686 c 0
 102 689 109 692 118 694 c 1
 133 686 l 1
 133 306 l 1
EndSplineSet
Validated: 19457
EndChar

StartChar: logicalnot
Encoding: 172 172 62
Width: 399
Flags: W
HStem: 210 47<36 325>
VStem: 325 45<86 210>
LayerCount: 3
Fore
SplineSet
370 97 m 1
 364 93 360 89 354 85 c 0
 348 81 342 78 335 76 c 1
 325 86 l 1
 325 210 l 1
 36 210 l 1
 26 221 l 1
 28 227 29 232 31 238 c 0
 33 244 36 251 38 257 c 1
 358 257 l 1
 370 248 l 1
 370 97 l 1
EndSplineSet
Validated: 19457
EndChar

StartChar: uni00AD
Encoding: 173 173 63
Width: 286
Flags: W
HStem: 190 47<36 251>
VStem: 26 236
LayerCount: 3
Fore
SplineSet
262 227 m 1
 260 221 258 214 256 207 c 0
 254 200 251 195 249 190 c 1
 36 190 l 1
 26 199 l 1
 28 205 29 212 31 218 c 0
 33 224 36 231 38 237 c 1
 251 237 l 1
 262 227 l 1
EndSplineSet
Validated: 3073
EndChar

StartChar: macron
Encoding: 175 175 64
Width: 420
Flags: W
HStem: 489 54<78 342>
VStem: 70 280
LayerCount: 3
Fore
SplineSet
350 533 m 1
 349 530 350 526 348 522 c 0
 346 518 345 514 343 510 c 0
 341 506 340 502 338 498 c 0
 336 494 335 491 334 489 c 1
 78 489 l 1
 70 499 l 1
 71 502 70 506 72 510 c 0
 74 514 75 518 77 522 c 0
 79 526 80 529 82 533 c 0
 84 537 84 541 86 543 c 1
 342 543 l 1
 350 533 l 1
EndSplineSet
Validated: 19457
EndChar

StartChar: paragraph
Encoding: 182 182 65
Width: 472
Flags: W
HStem: -104 18<185 222.608 403.624 439> 219 35<155.559 245.766> 502 35<141.653 246> 506 18<402.456 439>
VStem: 20 70<314.073 454.524> 246 50<-73.9219 222 254 491> 329 49<-73.926 488.334>
LayerCount: 3
Fore
SplineSet
185 -104 m 1xde
 185 -86 l 1
 204 -82 220 -79 230 -74 c 0
 240 -69 246 -64 246 -60 c 2
 246 222 l 1
 241 221 236 220 230 219 c 0
 224 218 217 219 210 219 c 0
 184 219 160 223 137 229 c 0
 114 235 94 245 76 258 c 0
 58 271 45 288 35 307 c 0
 25 326 20 350 20 376 c 0
 20 399 24 421 34 441 c 0
 44 461 57 477 74 491 c 0
 91 505 111 517 134 525 c 0
 157 533 183 537 211 537 c 0xee
 217 537 225 537 234 536 c 0
 243 535 252 535 262 534 c 0
 272 533 284 534 295 533 c 2
 328 530 l 2
 354 528 381 526 409 524 c 1
 439 524 l 1
 439 506 l 1
 420 502 405 499 394 494 c 0
 383 489 378 485 378 481 c 2
 378 -60 l 2
 378 -64 384 -68 394 -73 c 0
 404 -78 419 -82 439 -86 c 1
 439 -104 l 1
 185 -104 l 1xde
246 254 m 1
 246 499 l 1
 229 501 214 502 203 502 c 0
 186 502 172 499 158 493 c 0
 144 487 132 480 122 470 c 0
 112 460 104 448 98 434 c 0
 92 420 90 405 90 390 c 0
 90 375 92 360 98 344 c 0
 104 328 111 313 122 299 c 0
 133 285 147 275 165 266 c 0
 183 257 202 254 227 254 c 2
 246 254 l 1
329 482 m 1
 323 484 319 485 313 487 c 2
 296 491 l 1
 296 -60 l 2
 296 -63 298 -67 302 -69 c 2
 312 -74 l 1
 315 -73 319 -71 323 -69 c 0
 327 -67 329 -63 329 -60 c 2
 329 482 l 1
EndSplineSet
Validated: 19489
EndChar

StartChar: degree
Encoding: 176 176 66
Width: 304
Flags: W
HStem: 316 38<115.203 187.699> 475 39<117.503 190.771>
VStem: 58 46<360.892 463.108> 202 44<365.834 466.852>
LayerCount: 3
Fore
SplineSet
202 414 m 0
 202 422 200 430 198 437 c 0
 196 444 194 451 190 457 c 0
 186 463 181 467 175 470 c 0
 169 473 164 475 158 475 c 0
 151 475 144 473 138 471 c 0
 132 469 125 465 120 459 c 0
 115 453 111 447 108 440 c 0
 105 433 104 424 104 415 c 0
 104 407 105 400 107 393 c 0
 109 386 111 379 115 373 c 0
 119 367 123 362 129 359 c 0
 135 356 141 354 148 354 c 0
 154 354 161 356 167 358 c 0
 173 360 180 365 185 370 c 0
 190 375 194 381 197 388 c 0
 200 395 202 404 202 414 c 0
246 434 m 0
 246 417 243 401 237 387 c 0
 231 373 221 360 211 350 c 0
 201 340 188 331 175 325 c 0
 162 319 150 316 137 316 c 0
 126 316 116 318 106 322 c 0
 96 326 87 332 80 339 c 0
 73 346 68 354 64 364 c 0
 60 374 58 383 58 394 c 0
 58 411 62 428 68 442 c 0
 74 456 84 470 94 480 c 0
 104 490 116 499 129 505 c 0
 142 511 155 514 168 514 c 0
 179 514 188 511 198 507 c 0
 208 503 217 497 224 490 c 0
 231 483 237 475 241 465 c 0
 245 455 246 444 246 434 c 0
EndSplineSet
Validated: 19457
EndChar

StartChar: uniEE02
Encoding: 60930 60930 69
Width: 0
VWidth: 999
GlyphClass: 4
Flags: W
HStem: 203 13<-217.991 -194 -157.66 -80 -44.416 -32>
VStem: -197 38<216 347.894> -111 34<94.0207 133.074> -82 35<216 347.734>
AnchorPoint: "PitchMark" 0 345 mark 0
LayerCount: 3
Fore
SplineSet
-151 348 m 4xe0
 -157 323 -159 296 -159 268 c 4
 -159 251 -159 233 -157 216 c 5
 -80 216 l 5
 -81 229 -82 244 -82 259 c 4
 -82 292 -79 325 -72 350 c 4
 -70 357 -62 356 -55 356 c 4
 -47 356 -36 355 -38 348 c 4
 -44 319 -47 297 -47 265 c 4xd0
 -47 247 -45 233 -44 216 c 5
 -9 216 l 6
 -4 216 0 213 0 210 c 4
 0 209 0 209 -1 208 c 4
 -12 198 -39 178 -55 152 c 4
 -67 134 -76 108 -77 100 c 4
 -77 95 -83 94 -89 94 c 4
 -91 94 -94 94 -97 94 c 4
 -105 94 -114 95 -111 102 c 4
 -109 108 -93 138 -78 158 c 5
 -62 177 -39 196 -32 203 c 5
 -211 203 l 6
 -217 203 -218 206 -218 210 c 4
 -218 214 -215 216 -209 216 c 6
 -194 216 l 5
 -195 231 -197 248 -197 266 c 4
 -197 295 -192 328 -186 350 c 4
 -184 357 -176 357 -168 357 c 5
 -161 356 -150 355 -151 348 c 4xe0
EndSplineSet
Validated: 19457
Layer: 2
SplineSet
-79 265 m 1,0,-1
 -76 216 l 1,1,-1
 -41 216 l 2,2,3
 -32 216 -32 216 -32 210 c 0,4,5
 -32 209 -32 209 -33 208 c 0,6,7
 -35 207 -35 207 -43.5 199 c 128,-1,8
 -52 191 -52 191 -62 182 c 0,9,10
 -73 174 -73 174 -89.5 148.5 c 128,-1,11
 -106 123 -106 123 -109 100 c 0,12,13
 -109 94 -109 94 -121 94 c 2,14,-1
 -129 94 l 2,15,16
 -137 94 -137 94 -141 95.5 c 128,-1,17
 -145 97 -145 97 -140.5 110.5 c 128,-1,18
 -136 124 -136 124 -119.5 145 c 128,-1,19
 -103 166 -103 166 -93.5 175.5 c 128,-1,20
 -84 185 -84 185 -75 193 c 128,-1,21
 -66 201 -66 201 -64 203 c 1,22,-1
 -243 203 l 2,23,24
 -250 203 -250 203 -250 209.5 c 128,-1,25
 -250 216 -250 216 -241 216 c 2,26,-1
 -226 216 l 1,27,28
 -229 261 -229 261 -229 286 c 0,29,30
 -229 312 -229 312 -218 350 c 0,31,32
 -216 357 -216 357 -210 357 c 128,-1,33
 -204 357 -204 357 -197.5 356.5 c 128,-1,34
 -191 356 -191 356 -186.5 354.5 c 128,-1,35
 -182 353 -182 353 -183 348 c 0,36,37
 -191 315 -191 315 -191 274 c 128,-1,38
 -191 233 -191 233 -189 216 c 1,39,-1
 -112 216 l 1,40,41
 -114 242 -114 242 -114 278 c 128,-1,42
 -114 314 -114 314 -104 350 c 0,43,44
 -102 356 -102 356 -90.5 356 c 128,-1,45
 -79 356 -79 356 -74 354.5 c 128,-1,46
 -69 353 -69 353 -70 348 c 0,47,48
 -79 304 -79 304 -79 265 c 1,0,-1
EndSplineSet
Validated: 1
Colour: ffc259
EndChar

StartChar: uniEE03
Encoding: 60931 60931 70
Width: 0
VWidth: 999
GlyphClass: 4
Flags: W
HStem: 302 52<-34.8514 -8.6301> 341 13<-156.993 -131 -96.9138 -34>
VStem: -140 36<201.023 339.69> -35 27<306.22 340.717>
AnchorPoint: "PitchMark" 0 345 mark 0
LayerCount: 3
Fore
SplineSet
-140 260 m 4x70
 -140 287 -136 323 -131 341 c 5
 -150 341 l 6
 -156 341 -157 344 -157 348 c 4
 -157 352 -155 353 -148 354 c 5x70
 -102 354 -55 354 -9 354 c 4
 -1 354 0 350 0 346 c 4
 -1 340 -7 334 -8 326 c 4
 -11 312 -4 302 -11 302 c 4xb0
 -18 302 -32 312 -35 321 c 4
 -36 327 -36 335 -34 341 c 5
 -55 341 -75 341 -96 341 c 5
 -101 313 -104 288 -104 258 c 4
 -104 240 -101 227 -101 207 c 4
 -101 201 -113 201 -119 201 c 4
 -125 201 -137 201 -137 207 c 4
 -137 223 -140 241 -140 260 c 4x70
EndSplineSet
Validated: 19457
Layer: 2
SplineSet
-166 207 m 2,0,-1
 -169 260 l 1,1,2
 -169 309 -169 309 -160 341 c 1,3,-1
 -179 341 l 2,4,5
 -186 341 -186 341 -186 348 c 0,6,7
 -186 353 -186 353 -177 354 c 1,8,-1
 -38 354 l 2,9,10
 -29 354 -29 354 -29 346 c 0,11,12
 -29 343 -29 343 -34 334 c 0,13,14
 -38 325 -38 325 -37 313.5 c 128,-1,15
 -36 302 -36 302 -40.5 302 c 128,-1,16
 -45 302 -45 302 -55 309 c 128,-1,17
 -65 316 -65 316 -65 325 c 0,18,19
 -65 335 -65 335 -63 341 c 1,20,-1
 -125 341 l 1,21,22
 -133 296 -133 296 -133 258 c 1,23,-1
 -130 207 l 2,24,25
 -130 201 -130 201 -148 201 c 128,-1,26
 -166 201 -166 201 -166 207 c 2,0,-1
EndSplineSet
Validated: 1
Colour: ffc259
EndChar

StartChar: uniEE04
Encoding: 60932 60932 71
Width: 0
VWidth: 999
GlyphClass: 4
Flags: W
HStem: 270 14<-119 -45>
VStem: -156 37<201.04 270 284 342.247> -46 37<204.51 343.01> -45 45<201.001 257.157 258.188 263.02 284.839 344.154>
AnchorPoint: "PitchMark" 0 345 mark 0
LayerCount: 3
Fore
SplineSet
0 344 m 4xd0
 0 323 -9 294 -9 264 c 4
 -9 243 -6 228 -6 207 c 4
 -6 201 -16 201 -23 201 c 4
 -31 201 -42 201 -42 207 c 4
 -44 223 -46 240 -46 258 c 4xe0
 -46 262 -46 266 -45 270 c 5
 -119 270 l 5
 -119 267 -119 264 -119 261 c 4
 -119 241 -116 228 -116 207 c 4
 -116 201 -126 201 -133 201 c 4
 -141 201 -152 201 -152 207 c 4
 -154 223 -156 242 -156 261 c 4
 -156 291 -151 322 -145 345 c 4
 -144 350 -137 351 -132 351 c 4
 -130 351 -128 351 -127 351 c 4
 -122 351 -108 350 -110 343 c 4
 -113 327 -117 307 -119 284 c 5
 -45 284 l 5
 -42 306 -39 327 -35 345 c 4
 -34 350 -27 351 -22 351 c 4
 -20 351 -18 351 -17 351 c 4
 -12 351 0 350 0 344 c 4xd0
EndSplineSet
Validated: 19457
Layer: 2
SplineSet
-144 261 m 1,0,-1
 -141 207 l 2,1,2
 -141 201 -141 201 -159 201 c 128,-1,3
 -177 201 -177 201 -177 207 c 0,4,5
 -181 239 -181 239 -181 271 c 128,-1,6
 -181 303 -181 303 -170 345 c 0,7,8
 -169 351 -169 351 -157 351 c 2,9,-1
 -152 351 l 2,10,11
 -146 351 -146 351 -140 349.5 c 128,-1,12
 -134 348 -134 348 -135 343 c 0,13,14
 -142 305 -142 305 -144 284 c 1,15,-1
 -70 284 l 1,16,17
 -64 325 -64 325 -60 345 c 0,18,19
 -59 351 -59 351 -47 351 c 2,20,-1
 -42 351 l 2,21,22
 -25 351 -25 351 -25 344 c 0,23,24
 -25 335 -25 335 -29.5 307.5 c 128,-1,25
 -34 280 -34 280 -34 264 c 2,26,-1
 -31 207 l 2,27,28
 -31 201 -31 201 -49 201 c 128,-1,29
 -67 201 -67 201 -67 207 c 0,30,31
 -71 239 -71 239 -71 252.5 c 128,-1,32
 -71 266 -71 266 -70 270 c 1,33,-1
 -144 270 l 1,34,-1
 -144 261 l 1,0,-1
EndSplineSet
Validated: 1
Colour: ffc259
EndChar

StartChar: uniEE05
Encoding: 60933 60933 72
Width: 0
VWidth: 999
GlyphClass: 4
Flags: W
HStem: 256 57<-63.1341 -11.1074>
VStem: -64 54<256.797 312.152>
AnchorPoint: "PitchMark" 0 345 mark 0
LayerCount: 3
Fore
SplineSet
-38 256 m 4
 -54 256 -64 270 -64 285 c 4
 -64 301 -52 313 -35 313 c 4
 -21 313 -10 301 -10 286 c 4
 -10 270 -22 256 -38 256 c 4
EndSplineSet
Validated: 19457
Layer: 2
SplineSet
-77 256 m 128,-1,1
 -89 256 -89 256 -96 264.5 c 128,-1,2
 -103 273 -103 273 -103 285 c 128,-1,3
 -103 297 -103 297 -95 305 c 128,-1,4
 -87 313 -87 313 -75.5 313 c 128,-1,5
 -64 313 -64 313 -56.5 305 c 128,-1,6
 -49 297 -49 297 -49 285.5 c 128,-1,7
 -49 274 -49 274 -57 265 c 128,-1,0
 -65 256 -65 256 -77 256 c 128,-1,1
EndSplineSet
Validated: 1
Colour: ffc259
EndChar

StartChar: uniEE06
Encoding: 60934 60934 73
Width: 0
VWidth: 999
GlyphClass: 4
Flags: W
HStem: 197 152
VStem: -181 39<254.814 321> -60 38<228.149 317>
AnchorPoint: "PitchMark" 0 345 mark 0
LayerCount: 3
Fore
SplineSet
-22 341 m 4
 -22 337 -22 333 -22 328 c 4
 -22 288 0 234 0 203 c 4
 0 198 -11 197 -19 197 c 4
 -27 197 -35 198 -36 204 c 4
 -42 224 -46 235 -50 256 c 5
 -56 281 -60 297 -60 317 c 5
 -71 307 -87 284 -103 261 c 4
 -118 240 -136 210 -140 205 c 5
 -142 200 -155 198 -156 204 c 4
 -162 224 -166 235 -170 256 c 5
 -176 281 -181 302 -181 321 c 5
 -193 309 -209 285 -223 266 c 4
 -228 260 -256 210 -260 205 c 5
 -262 198 -275 198 -275 206 c 4
 -275 222 -235 281 -227 292 c 4
 -209 316 -188 337 -175 345 c 4
 -171 348 -163 349 -158 349 c 4
 -152 349 -141 348 -142 341 c 4
 -142 339 -142 336 -142 334 c 4
 -142 312 -137 271 -131 254 c 5
 -109 292 -81 329 -55 345 c 4
 -51 348 -43 349 -38 349 c 4
 -32 349 -21 348 -22 341 c 4
EndSplineSet
Validated: 19457
Layer: 2
SplineSet
-53 341 m 1,0,1
 -53 328 l 2,2,3
 -53 307 -53 307 -42 262 c 128,-1,4
 -31 217 -31 217 -31 203 c 0,5,6
 -31 197 -31 197 -48.5 197 c 128,-1,7
 -66 197 -66 197 -67 204 c 1,8,9
 -91 285 -91 285 -91 317 c 1,10,11
 -111 299 -111 299 -140 253 c 128,-1,12
 -169 207 -169 207 -171 204 c 128,-1,13
 -173 201 -173 201 -179.5 200.5 c 128,-1,14
 -186 200 -186 200 -187 204 c 0,15,16
 -212 288 -212 288 -212 321 c 1,17,18
 -218 315 -218 315 -237.5 289 c 128,-1,19
 -257 263 -257 263 -273 235 c 128,-1,20
 -289 207 -289 207 -291 205 c 1,21,22
 -292 200 -292 200 -299 200 c 128,-1,23
 -306 200 -306 200 -306 206 c 0,24,25
 -306 226 -306 226 -267.5 278.5 c 128,-1,26
 -229 331 -229 331 -206 345 c 0,27,28
 -201 349 -201 349 -186.5 349 c 128,-1,29
 -172 349 -172 349 -173 341 c 1,30,-1
 -173 334 l 2,31,32
 -173 285 -173 285 -162 254 c 1,33,34
 -122 323 -122 323 -86 345 c 0,35,36
 -81 349 -81 349 -66.5 349 c 128,-1,37
 -52 349 -52 349 -53 341 c 1,0,1
EndSplineSet
Validated: 1
Colour: ffc259
EndChar

StartChar: uniEE07
Encoding: 60935 60935 74
Width: 0
VWidth: 999
GlyphClass: 4
Flags: W
HStem: 341 13<-198.946 -173 -139.117 -63 -29.1174 -0.0468979>
VStem: -183 38<201.03 339.827> -73 38<201.03 339.827>
AnchorPoint: "PitchMark" 0 345 mark 0
LayerCount: 3
Fore
SplineSet
-73 261 m 4
 -73 289 -69 320 -63 341 c 5
 -138 341 l 5
 -143 316 -145 290 -145 263 c 4
 -145 244 -143 225 -143 207 c 4
 -143 201 -153 201 -160 201 c 4
 -168 201 -179 201 -179 207 c 4
 -181 223 -183 242 -183 261 c 4
 -183 289 -179 320 -173 341 c 5
 -192 341 l 6
 -197 341 -199 343 -199 346 c 4
 -199 351 -198 354 -190 354 c 4
 -175 354 -155 354 -133 354 c 4
 -89 354 -38 354 -9 354 c 4
 -1 354 0 351 0 346 c 5
 -1 342 -2 341 -9 341 c 6
 -28 341 l 5
 -33 316 -35 290 -35 263 c 4
 -35 244 -34 225 -33 207 c 4
 -33 201 -43 201 -50 201 c 4
 -58 201 -69 201 -69 207 c 4
 -71 223 -73 242 -73 261 c 4
EndSplineSet
Validated: 19457
Layer: 2
SplineSet
-166 263 m 1,0,-1
 -164 207 l 2,1,2
 -164 201 -164 201 -182 201 c 128,-1,3
 -200 201 -200 201 -200 207 c 0,4,5
 -204 239 -204 239 -204 272.5 c 128,-1,6
 -204 306 -204 306 -194 341 c 1,7,-1
 -213 341 l 2,8,9
 -220 341 -220 341 -220 346 c 0,10,11
 -220 354 -220 354 -211 354 c 2,12,-1
 -30 354 l 2,13,14
 -21 354 -21 354 -21 346 c 1,15,16
 -22 341 -22 341 -30 341 c 2,17,-1
 -49 341 l 1,18,19
 -56 306 -56 306 -56 274.5 c 128,-1,20
 -56 243 -56 243 -54 207 c 0,21,22
 -54 201 -54 201 -72 201 c 128,-1,23
 -90 201 -90 201 -90 207 c 0,24,25
 -94 239 -94 239 -94 272.5 c 128,-1,26
 -94 306 -94 306 -84 341 c 1,27,-1
 -159 341 l 1,28,29
 -166 306 -166 306 -166 263 c 1,0,-1
EndSplineSet
Validated: 1
Colour: ffc259
EndChar

StartChar: uniEE08
Encoding: 60936 60936 75
Width: 0
VWidth: 999
GlyphClass: 4
Flags: W
HStem: 203 13<-212.991 -184 -147.373 -74 -37.4191 -14.076> 344 13<-190 -67 -33.1174 -0.0468979>
VStem: -187 38<216 342.941> -77 38<216 342.941>
AnchorPoint: "PitchMark" 0 345 mark 0
LayerCount: 3
Fore
SplineSet
-77 265 m 4
 -77 293 -73 323 -67 344 c 5
 -142 344 l 5
 -147 320 -149 294 -149 267 c 4
 -149 250 -148 233 -147 216 c 5
 -74 216 l 5
 -75 230 -77 248 -77 265 c 4
-187 265 m 4
 -187 293 -183 323 -177 344 c 5
 -192 344 l 6
 -198 344 -200 347 -199 351 c 4
 -199 355 -197 357 -190 357 c 4
 -176 357 -156 357 -134 357 c 4
 -89 357 -38 357 -9 357 c 4
 -1 357 0 354 0 349 c 5
 -1 345 -2 344 -9 344 c 6
 -32 344 l 5
 -37 320 -39 294 -39 267 c 4
 -39 250 -38 232 -37 215 c 5
 -22 215 l 6
 -15 215 -14 212 -14 208 c 4
 -14 204 -15 203 -23 203 c 6
 -206 203 l 6
 -212 203 -213 206 -213 210 c 4
 -213 214 -210 215 -204 215 c 4
 -198 216 -191 216 -184 216 c 5
 -185 231 -187 248 -187 265 c 4
EndSplineSet
Validated: 19457
Layer: 2
SplineSet
-99 216 m 5,0,1
 -102 258 -102 258 -102 283.5 c 132,-1,2
 -102 309 -102 309 -92 344 c 5,3,-1
 -167 344 l 5,4,5
 -174 310 -174 310 -174 280 c 132,-1,6
 -174 250 -174 250 -172 216 c 5,7,-1
 -99 216 l 5,0,1
-209 216 m 5,8,9
 -212 261 -212 261 -212 285 c 132,-1,10
 -212 309 -212 309 -202 344 c 5,11,-1
 -217 344 l 6,12,13
 -226 344 -226 344 -224 351 c 5,14,15
 -224 357 -224 357 -215 357 c 6,16,-1
 -34 357 l 6,17,18
 -25 357 -25 357 -25 349 c 5,19,20
 -26 344 -26 344 -34 344 c 6,21,-1
 -57 344 l 5,22,23
 -64 310 -64 310 -64 279.5 c 132,-1,24
 -64 249 -64 249 -62 215 c 5,25,-1
 -47 215 l 6,26,27
 -39 215 -39 215 -39 208 c 4,28,29
 -39 203 -39 203 -48 203 c 6,30,-1
 -231 203 l 6,31,32
 -238 203 -238 203 -238 210 c 4,33,34
 -238 215 -238 215 -230.5 215.5 c 132,-1,35
 -223 216 -223 216 -209 216 c 5,8,9
EndSplineSet
Colour: ffc259
EndChar

StartChar: uniEE09
Encoding: 60937 60937 76
Width: 0
VWidth: 999
GlyphClass: 4
Flags: W
HStem: 382 48<-128.426 -86.5738>
VStem: -181 39<254.814 321> -129 43<382.091 429.909> -60 38<228.149 317>
AnchorPoint: "PitchMark" 0 345 mark 0
LayerCount: 3
Fore
SplineSet
-109 382 m 4
 -122 382 -129 394 -129 403 c 4
 -129 416 -119 430 -106 430 c 4
 -93 430 -86 418 -86 409 c 4
 -86 396 -96 382 -109 382 c 4
-22 341 m 4
 -22 337 -22 333 -22 328 c 4
 -22 288 0 234 0 203 c 4
 0 198 -11 197 -19 197 c 4
 -27 197 -35 198 -36 204 c 4
 -42 224 -46 235 -50 256 c 5
 -56 281 -60 297 -60 317 c 5
 -71 307 -87 284 -103 261 c 4
 -118 240 -136 210 -140 205 c 5
 -142 200 -155 198 -156 204 c 4
 -162 224 -166 235 -170 256 c 5
 -176 281 -181 302 -181 321 c 5
 -193 309 -209 285 -223 266 c 4
 -228 260 -256 210 -260 205 c 5
 -262 198 -275 198 -275 206 c 4
 -275 222 -235 281 -227 292 c 4
 -209 316 -188 337 -175 345 c 4
 -171 348 -163 349 -158 349 c 4
 -152 349 -141 348 -142 341 c 4
 -142 339 -142 336 -142 334 c 4
 -142 312 -137 271 -131 254 c 5
 -109 292 -81 329 -55 345 c 4
 -51 348 -43 349 -38 349 c 4
 -32 349 -21 348 -22 341 c 4
EndSplineSet
Validated: 19457
Layer: 2
SplineSet
-142 382 m 132,-1,1
 -151 382 -151 382 -156.5 388.5 c 132,-1,2
 -162 395 -162 395 -162 404 c 132,-1,3
 -162 413 -162 413 -155 421.5 c 132,-1,4
 -148 430 -148 430 -139 430 c 132,-1,5
 -130 430 -130 430 -124.5 423.5 c 132,-1,6
 -119 417 -119 417 -119 408 c 132,-1,7
 -119 399 -119 399 -126 390.5 c 132,-1,0
 -133 382 -133 382 -142 382 c 132,-1,1
-55 341 m 1,8,-1
 -55 328 l 2,9,10
 -55 307 -55 307 -44 262 c 128,-1,11
 -33 217 -33 217 -33 203 c 0,12,13
 -33 197 -33 197 -50.5 197 c 128,-1,14
 -68 197 -68 197 -69 204 c 1,15,16
 -93 285 -93 285 -93 317 c 1,17,18
 -113 299 -113 299 -142 253 c 128,-1,19
 -171 207 -171 207 -173 204 c 128,-1,20
 -175 201 -175 201 -181.5 200.5 c 128,-1,21
 -188 200 -188 200 -189 204 c 0,22,23
 -214 288 -214 288 -214 321 c 1,24,25
 -220 315 -220 315 -239.5 289 c 128,-1,26
 -259 263 -259 263 -275 235 c 128,-1,27
 -291 207 -291 207 -293 205 c 1,28,29
 -294 200 -294 200 -301 200 c 128,-1,30
 -308 200 -308 200 -308 206 c 0,31,32
 -308 226 -308 226 -269.5 278.5 c 128,-1,33
 -231 331 -231 331 -208 345 c 0,34,35
 -203 349 -203 349 -188.5 349 c 128,-1,36
 -174 349 -174 349 -175 341 c 1,37,-1
 -175 334 l 2,38,39
 -175 285 -175 285 -164 254 c 1,40,41
 -124 323 -124 323 -88 345 c 0,42,43
 -83 349 -83 349 -68.5 349 c 128,-1,44
 -54 349 -54 349 -55 341 c 1,8,-1
EndSplineSet
Colour: ffc259
EndChar

StartChar: uniEE0A
Encoding: 60938 60938 77
Width: 0
VWidth: 999
GlyphClass: 4
Flags: W
HStem: 341 13<-198.98 -173 -139.135 -63 -29.1348 -0.00147247> 397 48<-117.429 -75.3691>
VStem: -182 36<201.05 339.737> -118 43<397.084 444.99> -72 36<201.05 339.737>
AnchorPoint: "PitchMark" 0 345 mark 0
LayerCount: 3
Fore
SplineSet
-182 260 m 4
 -182 289 -178 319 -173 341 c 5
 -191 341 l 6
 -197 341 -199 344 -199 348 c 4
 -199 352 -196 354 -190 354 c 4
 -175 354 -155 354 -133 354 c 4
 -89 354 -37 354 -8 354 c 4
 -2 354 0 352 0 348 c 4
 0 343 0 341 -9 341 c 6
 -28 341 l 5
 -33 314 -36 290 -36 259 c 4
 -36 241 -34 227 -33 207 c 4
 -32 201 -42 201 -49 201 c 4
 -57 201 -68 201 -69 207 c 4
 -70 223 -72 241 -72 260 c 4
 -72 289 -68 319 -63 341 c 5
 -138 341 l 5
 -143 314 -146 290 -146 259 c 4
 -146 241 -144 227 -143 207 c 4
 -142 201 -152 201 -159 201 c 4
 -167 201 -178 201 -179 207 c 4
 -180 223 -182 241 -182 260 c 4
-98 397 m 4
 -110 397 -118 408 -118 418 c 4
 -118 431 -108 445 -96 445 c 4
 -83 445 -75 433 -75 423 c 4
 -75 410 -85 397 -98 397 c 4
EndSplineSet
Validated: 19457
Layer: 2
SplineSet
-176 259 m 1,0,-1
 -173 207 l 2,1,2
 -172 203 -172 203 -176.5 202 c 128,-1,3
 -181 201 -181 201 -194.5 201 c 128,-1,4
 -208 201 -208 201 -209 207 c 0,5,6
 -212 255 -212 255 -212 278 c 128,-1,7
 -212 301 -212 301 -203 341 c 1,8,-1
 -221 341 l 2,9,10
 -229 341 -229 341 -229 347.5 c 128,-1,11
 -229 354 -229 354 -220 354 c 2,12,-1
 -38 354 l 2,13,14
 -30 354 -30 354 -30 347.5 c 128,-1,15
 -30 341 -30 341 -39 341 c 2,16,-1
 -58 341 l 1,17,18
 -66 298 -66 298 -66 259 c 1,19,-1
 -63 207 l 2,20,21
 -62 203 -62 203 -66.5 202 c 128,-1,22
 -71 201 -71 201 -84.5 201 c 128,-1,23
 -98 201 -98 201 -99 207 c 0,24,25
 -102 255 -102 255 -102 278 c 128,-1,26
 -102 301 -102 301 -93 341 c 1,27,-1
 -168 341 l 1,28,29
 -176 298 -176 298 -176 259 c 1,0,-1
-128 397 m 132,-1,31
 -137 397 -137 397 -142.5 403.5 c 132,-1,32
 -148 410 -148 410 -148 419 c 132,-1,33
 -148 428 -148 428 -141.5 436.5 c 132,-1,34
 -135 445 -135 445 -126 445 c 132,-1,35
 -117 445 -117 445 -111 438 c 132,-1,36
 -105 431 -105 431 -105 422 c 132,-1,37
 -105 413 -105 413 -112 405 c 132,-1,30
 -119 397 -119 397 -128 397 c 132,-1,31
EndSplineSet
Colour: ffc259
EndChar

StartChar: uniEE0B
Encoding: 60939 60939 78
Width: 0
GlyphClass: 4
Flags: W
HStem: 203 13<-212.98 -183 -147.419 -73 -37.4191 -13.0939> 344 13<-198.98 -177 -143.117 -67 -33.1174 -0.00147247> 400 48<-121.429 -79.3691>
VStem: -185 36<216 342.848> -122 43<400.084 447.99> -75 36<216.634 342.848>
AnchorPoint: "PitchMark" 0 345 mark 0
LayerCount: 3
Fore
SplineSet
-73 216 m 5
 -74 229 -75 244 -75 260 c 4
 -75 290 -72 321 -67 344 c 5
 -142 344 l 5
 -147 318 -149 289 -149 260 c 4
 -149 245 -148 231 -147 216 c 5
 -73 216 l 5
-183 216 m 5
 -184 230 -185 245 -185 261 c 4
 -185 290 -182 321 -177 344 c 5
 -191 344 l 6
 -197 344 -199 347 -199 351 c 4
 -199 355 -196 357 -190 357 c 4
 -175 357 -155 357 -133 357 c 4
 -89 357 -37 357 -8 357 c 4
 -2 357 0 355 0 351 c 4
 0 346 0 344 -9 344 c 6
 -32 344 l 5
 -37 318 -39 289 -39 260 c 4
 -39 245 -38 230 -37 216 c 5
 -22 215 l 6
 -14 215 -13 212 -13 208 c 4
 -14 204 -15 203 -22 203 c 6
 -205 203 l 6
 -211 203 -213 206 -213 210 c 4
 -213 214 -210 215 -203 215 c 5
 -197 216 -191 216 -183 216 c 5
-102 400 m 4
 -114 400 -122 411 -122 421 c 4
 -122 434 -112 448 -100 448 c 4
 -87 448 -79 436 -79 426 c 4
 -79 413 -89 400 -102 400 c 4
EndSplineSet
Validated: 19457
Layer: 2
SplineSet
-117 216 m 1,0,1
 -119 242 -119 242 -119 274.5 c 128,-1,2
 -119 307 -119 307 -111 344 c 1,3,-1
 -186 344 l 1,4,5
 -193 308 -193 308 -193 277 c 128,-1,6
 -193 246 -193 246 -191 216 c 1,7,-1
 -117 216 l 1,0,1
-227 216 m 1,8,9
 -229 244 -229 244 -229 275.5 c 128,-1,10
 -229 307 -229 307 -221 344 c 1,11,-1
 -235 344 l 2,12,13
 -243 344 -243 344 -243 350.5 c 128,-1,14
 -243 357 -243 357 -234 357 c 2,15,-1
 -52 357 l 2,16,17
 -44 357 -44 357 -44 350.5 c 128,-1,18
 -44 344 -44 344 -53 344 c 2,19,-1
 -76 344 l 1,20,21
 -83 308 -83 308 -83 276 c 128,-1,22
 -83 244 -83 244 -81 216 c 1,23,-1
 -66 215 l 2,24,25
 -57 215 -57 215 -57 208 c 1,26,27
 -58 203 -58 203 -66 203 c 2,28,-1
 -249 203 l 2,29,30
 -257 203 -257 203 -257 210 c 0,31,32
 -257 215 -257 215 -249 215.5 c 128,-1,33
 -241 216 -241 216 -227 216 c 1,8,9
-129.5 408 m 132,-1,35
 -136 400 -136 400 -145.5 400 c 132,-1,36
 -155 400 -155 400 -160.5 406.5 c 132,-1,37
 -166 413 -166 413 -166 422 c 132,-1,38
 -166 431 -166 431 -159.5 439.5 c 132,-1,39
 -153 448 -153 448 -144 448 c 132,-1,40
 -135 448 -135 448 -129 441 c 132,-1,41
 -123 434 -123 434 -123 425 c 132,-1,34
 -123 416 -123 416 -129.5 408 c 132,-1,35
EndSplineSet
Colour: ffc259
EndChar

StartChar: uniEE50
Encoding: 61008 61008 82
Width: 1
GlyphClass: 4
Flags: W
HStem: 389 196
VStem: -421 96
AnchorPoint: "TonalRange" -375 500 mark 0
LayerCount: 3
Fore
SplineSet
-409 515 m 5
 -399 544 -370 574 -341 581 c 6
 -325 585 l 5
 -335 461 l 5
 -370 455 -405 421 -421 389 c 5
 -409 515 l 5
EndSplineSet
Validated: 3073
Layer: 2
SplineSet
-409 515 m 1,0,1
 -400 542 -400 542 -379 559.5 c 128,-1,2
 -358 577 -358 577 -341 581 c 2,3,-1
 -325 585 l 1,4,-1
 -335 461 l 1,5,6
 -341 460 -341 460 -351 457 c 128,-1,7
 -361 454 -361 454 -384 435.5 c 128,-1,8
 -407 417 -407 417 -421 389 c 1,9,-1
 -409 515 l 1,0,1
EndSplineSet
Colour: ffc259
EndChar

StartChar: uniEE51
Encoding: 61009 61009 83
Width: 1
GlyphClass: 4
Flags: W
HStem: 270 315
VStem: -551 226
AnchorPoint: "TonalRange" -375 500 mark 0
LayerCount: 3
Fore
SplineSet
-539 397 m 5
 -529 426 -500 456 -471 463 c 5
 -455 466 l 5
 -465 342 l 5
 -500 336 -535 302 -551 270 c 5
 -539 397 l 5
-409 516 m 5
 -399 545 -370 576 -341 581 c 5
 -325 585 l 5
 -335 461 l 5
 -370 455 -405 421 -421 389 c 5
 -409 516 l 5
EndSplineSet
Validated: 3073
Layer: 2
SplineSet
-472 467 m 1,0,1
 -463 494 -463 494 -442 511.5 c 128,-1,2
 -421 529 -421 529 -404 533 c 2,3,-1
 -388 536 l 1,4,-1
 -398 412 l 1,5,6
 -404 411 -404 411 -414 408 c 128,-1,7
 -424 405 -424 405 -447 386.5 c 128,-1,8
 -470 368 -470 368 -484 340 c 1,9,-1
 -472 467 l 1,0,1
-342 586 m 1,10,11
 -333 613 -333 613 -312 630.5 c 128,-1,12
 -291 648 -291 648 -274 651 c 1,13,-1
 -258 655 l 1,14,-1
 -268 531 l 1,15,16
 -274 530 -274 530 -284 527 c 128,-1,17
 -294 524 -294 524 -317 505.5 c 128,-1,18
 -340 487 -340 487 -354 459 c 1,19,-1
 -342 586 l 1,10,11
EndSplineSet
Colour: ffc259
EndChar

StartChar: uniEE52
Encoding: 61010 61010 84
Width: 1
GlyphClass: 4
Flags: W
AnchorPoint: "TonalRange" -395 480 mark 0
LayerCount: 3
Fore
SplineSet
-409 516 m 5
 -399 545 -370 576 -341 581 c 5
 -325 585 l 5
 -335 461 l 5
 -370 455 -405 421 -421 389 c 5
 -409 516 l 5
-669 277 m 5
 -659 306 -630 336 -601 343 c 6
 -585 347 l 5
 -595 223 l 5
 -630 217 -665 183 -681 151 c 5
 -669 277 l 5
-539 396 m 5
 -529 425 -500 455 -471 462 c 6
 -455 466 l 5
 -465 342 l 5
 -500 336 -535 302 -551 270 c 5
 -539 396 l 5
EndSplineSet
Validated: 3073
Layer: 2
SplineSet
-555 398 m 1,0,1
 -546 425 -546 425 -525 442.5 c 128,-1,2
 -504 460 -504 460 -487 464 c 2,3,-1
 -471 468 l 1,4,-1
 -481 344 l 1,5,6
 -487 343 -487 343 -497 340 c 128,-1,7
 -507 337 -507 337 -530 318.5 c 128,-1,8
 -553 300 -553 300 -567 272 c 1,9,-1
 -555 398 l 1,0,1
-294 636 m 1,10,11
 -285 663 -285 663 -264 680.5 c 128,-1,12
 -243 698 -243 698 -227 702 c 2,13,-1
 -210 706 l 1,14,-1
 -221 582 l 1,15,16
 -227 581 -227 581 -237 578 c 128,-1,17
 -247 575 -247 575 -269.5 556.5 c 128,-1,18
 -292 538 -292 538 -306 510 c 1,19,-1
 -294 636 l 1,10,11
-425 517 m 1,20,21
 -416 544 -416 544 -395 561.5 c 128,-1,22
 -374 579 -374 579 -357 583 c 2,23,-1
 -341 587 l 1,24,-1
 -351 463 l 1,25,26
 -357 462 -357 462 -367 459 c 128,-1,27
 -377 456 -377 456 -400 437.5 c 128,-1,28
 -423 419 -423 419 -437 391 c 1,29,-1
 -425 517 l 1,20,21
EndSplineSet
Colour: ffc259
EndChar

StartChar: uniEE54
Encoding: 61012 61012 85
Width: 0
VWidth: 999
GlyphClass: 4
Flags: W
HStem: 355 247
VStem: 58 46
AnchorPoint: "Zaderzhka" 20 440 mark 0
LayerCount: 3
Fore
SplineSet
104 602 m 1
 80 361 l 1
 58 355 l 1
 82 594 l 1
 104 602 l 1
EndSplineSet
Validated: 3073
Layer: 2
SplineSet
84 422 m 1,0,-1
 60 181 l 1,1,-1
 38 175 l 1,2,-1
 62 414 l 1,3,-1
 84 422 l 1,0,-1
EndSplineSet
Colour: ffc259
EndChar

StartChar: uniEE53
Encoding: 61011 61011 86
Width: 0
GlyphClass: 4
Flags: W
HStem: 389 196
VStem: 37 96
AnchorPoint: "Zaderzhka" 20 440 mark 0
LayerCount: 3
Fore
SplineSet
49 515 m 1
 59 544 88 574 117 581 c 2
 133 585 l 1
 123 461 l 1
 88 455 53 421 37 389 c 1
 49 515 l 1
EndSplineSet
Validated: 3073
Layer: 2
SplineSet
49 515 m 1,0,1
 58 542 58 542 79 559.5 c 128,-1,2
 100 577 100 577 117 581 c 2,3,-1
 133 585 l 1,4,-1
 123 461 l 1,5,6
 117 460 117 460 107 457 c 128,-1,7
 97 454 97 454 74 435.5 c 128,-1,8
 51 417 51 417 37 389 c 1,9,-1
 49 515 l 1,0,1
EndSplineSet
Colour: ffc259
EndChar

StartChar: uniEE55
Encoding: 61013 61013 87
Width: 0
VWidth: 999
GlyphClass: 4
Flags: W
HStem: 0 94<-138.665 -66.337>
VStem: -174 31<48 151.966> -30 10<178.868 202.647>
AnchorPoint: "Podchashie" -93 200 mark 0
LayerCount: 3
Fore
SplineSet
-20 186 m 4
 -20 111 -47 0 -109 0 c 4
 -152 0 -174 24 -174 72 c 4
 -174 101 -166 134 -151 173 c 4
 -144 188 -141 177 -142 162 c 4
 -143 153 -143 144 -143 134 c 4
 -143 111 -125 94 -100 94 c 4
 -66 94 -36 163 -30 194 c 4
 -29 200 -27 203 -23 203 c 4
 -21 203 -20 197 -20 186 c 4
EndSplineSet
Validated: 3073
Layer: 2
SplineSet
-109 0 m 4,0,1
 -174 0 -174 0 -174 72 c 4,2,3
 -174 115 -174 115 -151 173 c 4,4,5
 -146 183 -146 183 -143.5 179.5 c 132,-1,6
 -141 176 -141 176 -142 162.5 c 132,-1,7
 -143 149 -143 149 -143 134.5 c 132,-1,8
 -143 120 -143 120 -132 107 c 132,-1,9
 -121 94 -121 94 -100 94 c 132,-1,10
 -79 94 -79 94 -57.5 127.5 c 132,-1,11
 -36 161 -36 161 -30 194 c 4,12,13
 -29 203 -29 203 -23 203 c 4,14,15
 -20 203 -20 203 -20 186 c 4,16,17
 -20 123 -20 123 -39 70 c 4,18,19
 -65 0 -65 0 -109 0 c 4,0,1
EndSplineSet
Colour: ffc259
EndChar

StartChar: uniEE57
Encoding: 61015 61015 88
Width: 0
VWidth: 999
GlyphClass: 4
Flags: W
HStem: 550 94<-157.076 -85.8671>
VStem: -194 31<598 709.699> -171 9<712.188 727.031> -50 10<727.094 752.497>
AnchorPoint: "Flexion" -70 640 mark 0
LayerCount: 3
Fore
SplineSet
-163 690 m 4xd0
 -163 663 -147 644 -120 644 c 4
 -86 644 -56 713 -50 744 c 4
 -49 750 -46 753 -43 753 c 4
 -41 753 -40 751 -40 748 c 4
 -40 743 -40 743 -40 738 c 4
 -40 696 -47 655 -62 615 c 4
 -78 572 -101 550 -130 550 c 4
 -173 550 -194 574 -194 622 c 4xd0
 -194 651 -186 684 -171 723 c 4
 -166 735 -161 729 -162 718 c 4xb0
 -162 712 -163 703 -163 690 c 4xd0
-82 792 m 1
 -95 704 l 1
 -183 763 l 1
 -170 850 l 1
 -82 792 l 1
EndSplineSet
Validated: 3073
Layer: 2
SplineSet
-378 460 m 0,0,1
 -442 460 -442 460 -442 532 c 0,2,3
 -442 575 -442 575 -419 633 c 0,4,5
 -415 642 -415 642 -412.5 639 c 128,-1,6
 -410 636 -410 636 -410.5 627.5 c 128,-1,7
 -411 619 -411 619 -411 599.5 c 128,-1,8
 -411 580 -411 580 -400 567 c 128,-1,9
 -389 554 -389 554 -368 554 c 128,-1,10
 -347 554 -347 554 -325.5 587.5 c 128,-1,11
 -304 621 -304 621 -298 654 c 0,12,13
 -296 663 -296 663 -291 663 c 0,14,15
 -288 663 -288 663 -288 658 c 128,-1,17
 -288 653 -288 653 -288 648 c 0,18,19
 -288 585 -288 585 -310 525 c 0,20,21
 -334 460 -334 460 -378 460 c 0,0,1
-330 702 m 1,22,-1
 -343 614 l 1,23,-1
 -431 673 l 1,24,-1
 -418 760 l 1,25,-1
 -330 702 l 1,22,-1
EndSplineSet
Colour: ffc259
EndChar

StartChar: uniEE58
Encoding: 61016 61016 89
Width: 0
VWidth: 999
GlyphClass: 4
Flags: W
HStem: 650 98<-133.018 -41.2218>
VStem: -203 13<512.371 545.082> -41 31<608.443 647.656> -41 12<592.054 612.443>
AnchorPoint: "Flexion" -70 640 mark 0
LayerCount: 3
Fore
SplineSet
-77 748 m 0xe0
 -38 748 -10 722 -10 679 c 0xe0
 -10 655 -16 628 -29 599 c 0
 -30 594 -32 592 -36 592 c 0
 -40 592 -42 596 -41 603 c 2xd0
 -41 626 l 2
 -41 642 -52 650 -73 650 c 0
 -110 650 -139 632 -160 596 c 0
 -175 572 -185 547 -190 521 c 0
 -191 515 -194 512 -199 512 c 0
 -202 512 -203 520 -203 534 c 0
 -203 571 -191 642 -178 669 c 0
 -154 722 -120 748 -77 748 c 0xe0
EndSplineSet
Validated: 3073
Layer: 2
SplineSet
-309 506 m 2,0,1
 -309 530 -309 530 -341 530 c 0,2,3
 -396 530 -396 530 -428 476 c 0,4,5
 -450 440 -450 440 -458 401 c 0,6,7
 -459 392 -459 392 -467 392 c 0,8,9
 -471 392 -471 392 -471 413.5 c 128,-1,10
 -471 435 -471 435 -465 478 c 128,-1,11
 -459 521 -459 521 -446 549 c 0,12,13
 -410 628 -410 628 -345 628 c 1,14,15
 -320 628 -320 628 -299 611.5 c 128,-1,16
 -278 595 -278 595 -278 559 c 128,-1,17
 -278 523 -278 523 -297 479 c 0,18,19
 -299 472 -299 472 -304.5 472.5 c 128,-1,20
 -310 473 -310 473 -309 483 c 1,21,-1
 -309 506 l 2,0,1
EndSplineSet
Colour: ffc259
EndChar

StartChar: uniEE59
Encoding: 61017 61017 90
Width: 0
GlyphClass: 4
Flags: W
HStem: 460 253
VStem: 40 31<502.5 627.462> 157 14<615.528 693.755>
AnchorPoint: "Zaderzhka" 20 440 mark 0
LayerCount: 3
Fore
SplineSet
97 460 m 0
 62 460 40 485 40 520 c 0
 40 537 43 563 49 596 c 0
 58 645 66 673 73 678 c 0
 76 681 78 677 78 668 c 0
 73 621 71 598 71 597 c 0
 71 574 79 560 94 555 c 1
 110 705 l 1
 132 713 l 1
 116 556 l 1
 127 560 136 569 141 584 c 0
 151 614 153 624 157 657 c 0
 159 673 158 695 167 695 c 0
 170 695 171 678 171 644 c 0
 171 610 167 577 160 544 c 0
 149 488 128 460 97 460 c 0
EndSplineSet
Validated: 3073
Layer: 2
SplineSet
94 462 m 0,0,1
 68 462 68 462 52.5 479 c 128,-1,2
 37 496 37 496 37 522.5 c 0,3,4
 37 548 37 548 46 598 c 0,5,6
 59 672 59 672 70 680 c 0,7,8
 75 684 75 684 75 670 c 0,9,10
 68 600 68 600 68 599 c 0,11,12
 68 564 68 564 91 557 c 1,13,-1
 107 707 l 1,14,-1
 129 715 l 1,15,-1
 113 558 l 1,16,17
 130 564 130 564 137.5 586.5 c 128,-1,18
 145 609 145 609 148 623 c 128,-1,19
 151 637 151 637 153.5 659 c 128,-1,20
 156 681 156 681 157.5 689 c 128,-1,21
 159 697 159 697 164 697 c 0,22,23
 168 697 168 697 168 646.5 c 128,-1,24
 168 596 168 596 157 546 c 0,25,26
 140 462 140 462 94 462 c 0,0,1
EndSplineSet
Colour: ffc259
EndChar

StartChar: uniEEE0
Encoding: 61152 61152 91
Width: 829
VWidth: 0
GlyphClass: 1
Flags: W
HStem: 17 88<16 55 780 819> 17 39<55 106 158 249 301 392 443 534 586 677 729 780> 156 88<16 55 780 819> 229 67<705.003 731> 230 29<126.018 182 211 326.98 511 705> 295 88<16 55 780 819> 391 29<211 363.153> 434 88<16 55 780 819> 573 89<16 55 780 819> 594 28<126.004 182 211 365.135 557.458 666.901> 712 89<16 55 780 819> 762 39<55 106 158 249 301 392 443 534 586 677 729 780>
VStem: 16 90<17 56 762 801> 16 39<56 105 156 244 295 383 434 522 573 662 712 762> 158 91<17 56 762 801> 182 29<259 391 420 594> 301 91<17 56 762 801> 415 29<465.349 549.573> 443 91<17 56 762 801> 487 24<255 266.363> 499 25<519.019 557.542> 586 91<17 56 762 801> 705 26<255 295.996 479.015 552.646> 729 90<17 56 762 801> 780 39<56 105 156 244 295 383 434 522 573 662 712 762>
LayerCount: 3
Fore
SplineSet
511 519 m 0x130094
 505.396 519 499 525.4 499 531 c 0x13008c
 499 550 511 571 533 593 c 0
 555 615 582 626 614 626 c 0
 672.695 626 728 573.645 728 515 c 0
 728 496 723 479 712 463 c 0
 677.686 413.088 548.879 290.287 511 257 c 1
 511 255 l 1
 705 255 l 1
 705 278 l 2
 705 290 709 296 718 296 c 0
 726 296 731 290 731 278 c 2
 731 229 l 1
 487 229 l 1
 487 267 l 1x130096
 633 410 l 1
 662 440 680 461 689 474 c 0
 698 487 703 501 703 516 c 0
 703 560.49 659.383 599 614 599 c 0
 569.829 599 533.402 567.729 524 532 c 0x13008c
 522 523 517 519 511 519 c 0x130094
312 622 m 2x0b41c4
 382.138 622 444 575.044 444 507 c 0
 444 475 429 448 402 425 c 0
 375 402 341 391 302 391 c 2
 211 391 l 1
 211 259 l 1
 307 259 l 2
 320 259 327 254 327 245 c 0
 327 235 320 230 307 230 c 2
 145 230 l 2
 132 230 126 235 126 245 c 0
 126 254 132 259 145 259 c 2
 182 259 l 1
 182 594 l 1
 145 594 l 2
 132 594 126 598 126 608 c 0
 126 617 132 622 145 622 c 2
 312 622 l 2x0b41c4
415 507 m 0
 415 556.14 365.109 594 315 594 c 2
 211 594 l 1
 211 420 l 1
 304 420 l 2
 358.687 420 415 454.665 415 507 c 0
819 712 m 1x03208480
 780 712 l 1x03208480
 780 762 l 1x03108480
 729 762 l 1
 729 801 l 1x031085
 819 801 l 1x032085
 819 712 l 1x03208480
677 762 m 1x031084
 586 762 l 1
 586 801 l 1
 677 801 l 1
 677 762 l 1x031084
819 573 m 1x03808480
 780 573 l 1
 780 662 l 1
 819 662 l 1
 819 573 l 1x03808480
534 762 m 1x0310a4
 443 762 l 1
 443 801 l 1
 534 801 l 1
 534 762 l 1x0310a4
819 434 m 1x03008480
 780 434 l 1
 780 522 l 1
 819 522 l 1
 819 434 l 1x03008480
392 762 m 1x031084
 301 762 l 1
 301 801 l 1
 392 801 l 1
 392 762 l 1x031084
819 295 m 1x07008480
 780 295 l 1
 780 383 l 1
 819 383 l 1
 819 295 l 1x07008480
249 762 m 1x031284
 158 762 l 1
 158 801 l 1
 249 801 l 1
 249 762 l 1x031284
819 156 m 1x23008480
 780 156 l 1
 780 244 l 1
 819 244 l 1
 819 156 l 1x23008480
106 762 m 1x031884
 55 762 l 1x031484
 55 712 l 1
 16 712 l 1x032484
 16 801 l 1x032884
 106 801 l 1
 106 762 l 1x031884
819 17 m 1x830085
 729 17 l 1
 729 56 l 1x430085
 780 56 l 1x43008480
 780 105 l 1
 819 105 l 1x83008480
 819 17 l 1x830085
55 573 m 1x038484
 16 573 l 1
 16 662 l 1
 55 662 l 1
 55 573 l 1x038484
677 17 m 1x430084
 586 17 l 1
 586 56 l 1
 677 56 l 1
 677 17 l 1x430084
55 434 m 1x030484
 16 434 l 1
 16 522 l 1
 55 522 l 1
 55 434 l 1x030484
534 17 m 1x4300a4
 443 17 l 1
 443 56 l 1
 534 56 l 1
 534 17 l 1x4300a4
55 295 m 1x070484
 16 295 l 1
 16 383 l 1
 55 383 l 1
 55 295 l 1x070484
392 17 m 1x430084
 301 17 l 1
 301 56 l 1
 392 56 l 1
 392 17 l 1x430084
55 156 m 1x230484
 16 156 l 1
 16 244 l 1
 55 244 l 1
 55 156 l 1x230484
249 17 m 1x430284
 158 17 l 1
 158 56 l 1
 249 56 l 1
 249 17 l 1x430284
106 17 m 1x430884
 16 17 l 1x830884
 16 105 l 1
 55 105 l 1x830484
 55 56 l 1x430484
 106 56 l 1
 106 17 l 1x430884
EndSplineSet
Validated: 1
Layer: 2
SplineSet
511 519 m 0,0,1
 507 519 507 519 503 523 c 128,-1,2
 499 527 499 527 499 531 c 0,3,4
 499 559 499 559 532.5 592.5 c 128,-1,5
 566 626 566 626 612 626 c 128,-1,6
 658 626 658 626 693 592.5 c 128,-1,7
 728 559 728 559 728 515 c 0,8,9
 728 486 728 486 708.5 458 c 128,-1,10
 689 430 689 430 620 361 c 128,-1,11
 551 292 551 292 511 257 c 1,12,-1
 511 255 l 1,13,-1
 705 255 l 1,14,-1
 705 278 l 2,15,16
 705 296 705 296 718 296 c 128,-1,17
 731 296 731 296 731 278 c 2,18,-1
 731 229 l 1,19,-1
 487 229 l 1,20,-1
 487 267 l 1,21,-1
 633 410 l 1,22,23
 674 453 674 453 688.5 473.5 c 128,-1,24
 703 494 703 494 703 521.5 c 128,-1,25
 703 549 703 549 675.5 574 c 128,-1,26
 648 599 648 599 615 599 c 128,-1,27
 582 599 582 599 556.5 579.5 c 128,-1,28
 531 560 531 560 524 532 c 0,29,30
 521 519 521 519 511 519 c 0,0,1
312 622 m 2,31,32
 366 622 366 622 405 589.5 c 128,-1,33
 444 557 444 557 444 509 c 128,-1,34
 444 461 444 461 403 426 c 128,-1,35
 362 391 362 391 302 391 c 2,36,-1
 211 391 l 1,37,-1
 211 259 l 1,38,-1
 307 259 l 2,39,40
 327 259 327 259 327 244.5 c 128,-1,41
 327 230 327 230 307 230 c 2,42,-1
 145 230 l 2,43,44
 126 230 126 230 126 244.5 c 128,-1,45
 126 259 126 259 145 259 c 2,46,-1
 182 259 l 1,47,-1
 182 594 l 1,48,-1
 145 594 l 2,49,50
 126 594 126 594 126 608 c 128,-1,51
 126 622 126 622 145 622 c 2,52,-1
 312 622 l 2,31,32
381 444.5 m 128,-1,54
 415 469 415 469 415 506 c 128,-1,55
 415 543 415 543 384.5 568.5 c 128,-1,56
 354 594 354 594 315 594 c 2,57,-1
 211 594 l 1,58,-1
 211 420 l 1,59,-1
 304 420 l 2,60,53
 347 420 347 420 381 444.5 c 128,-1,54
819 712 m 1,61,-1
 780 712 l 1,62,-1
 780 762 l 1,63,-1
 729 762 l 1,64,-1
 729 801 l 1,65,-1
 819 801 l 1,66,-1
 819 712 l 1,61,-1
677 762 m 1,67,-1
 586 762 l 1,68,-1
 586 801 l 1,69,-1
 677 801 l 1,70,-1
 677 762 l 1,67,-1
819 573 m 1,71,-1
 780 573 l 1,72,-1
 780 662 l 1,73,-1
 819 662 l 1,74,-1
 819 573 l 1,71,-1
534 762 m 1,75,-1
 443 762 l 1,76,-1
 443 801 l 1,77,-1
 534 801 l 1,78,-1
 534 762 l 1,75,-1
819 434 m 1,79,-1
 780 434 l 1,80,-1
 780 522 l 1,81,-1
 819 522 l 1,82,-1
 819 434 l 1,79,-1
392 762 m 1,83,-1
 301 762 l 1,84,-1
 301 801 l 1,85,-1
 392 801 l 1,86,-1
 392 762 l 1,83,-1
819 295 m 1,87,-1
 780 295 l 1,88,-1
 780 383 l 1,89,-1
 819 383 l 1,90,-1
 819 295 l 1,87,-1
249 762 m 1,91,-1
 158 762 l 1,92,-1
 158 801 l 1,93,-1
 249 801 l 1,94,-1
 249 762 l 1,91,-1
819 156 m 1,95,-1
 780 156 l 1,96,-1
 780 244 l 1,97,-1
 819 244 l 1,98,-1
 819 156 l 1,95,-1
106 762 m 1,99,-1
 55 762 l 1,100,-1
 55 712 l 1,101,-1
 16 712 l 1,102,-1
 16 801 l 1,103,-1
 106 801 l 1,104,-1
 106 762 l 1,99,-1
819 17 m 1,105,-1
 729 17 l 1,106,-1
 729 56 l 1,107,-1
 780 56 l 1,108,-1
 780 105 l 1,109,-1
 819 105 l 1,110,-1
 819 17 l 1,105,-1
55 573 m 1,111,-1
 16 573 l 1,112,-1
 16 662 l 1,113,-1
 55 662 l 1,114,-1
 55 573 l 1,111,-1
677 17 m 1,115,-1
 586 17 l 1,116,-1
 586 56 l 1,117,-1
 677 56 l 1,118,-1
 677 17 l 1,115,-1
55 434 m 1,119,-1
 16 434 l 1,120,-1
 16 522 l 1,121,-1
 55 522 l 1,122,-1
 55 434 l 1,119,-1
534 17 m 1,123,-1
 443 17 l 1,124,-1
 443 56 l 1,125,-1
 534 56 l 1,126,-1
 534 17 l 1,123,-1
55 295 m 1,127,-1
 16 295 l 1,128,-1
 16 383 l 1,129,-1
 55 383 l 1,130,-1
 55 295 l 1,127,-1
392 17 m 1,131,-1
 301 17 l 1,132,-1
 301 56 l 1,133,-1
 392 56 l 1,134,-1
 392 17 l 1,131,-1
55 156 m 1,135,-1
 16 156 l 1,136,-1
 16 244 l 1,137,-1
 55 244 l 1,138,-1
 55 156 l 1,135,-1
249 17 m 1,139,-1
 158 17 l 1,140,-1
 158 56 l 1,141,-1
 249 56 l 1,142,-1
 249 17 l 1,139,-1
106 17 m 1,143,-1
 16 17 l 1,144,-1
 16 105 l 1,145,-1
 55 105 l 1,146,-1
 55 56 l 1,147,-1
 106 56 l 1,148,-1
 106 17 l 1,143,-1
EndSplineSet
Validated: 1
Colour: ffc259
EndChar

StartChar: uniEEE1
Encoding: 61153 61153 92
Width: 837
VWidth: 0
GlyphClass: 1
Flags: W
HStem: 17 88<16 55 780 819> 17 38<55 106 159 249 301 391 443 535 586 677 729 780> 156 89<16 55 780 819> 223 27<552.193 664.306> 230 29<126.018 182 211 326.98> 295 88<16 55 780 819> 391 29<211 363.172> 434 88<16 55 780 819> 437 27<589.018 669.703> 573 89<16 55 780 819> 594 29<126.215 182 211 367.336> 610 27<559.482 668.685> 712 89<16 55 780 819> 762 39<55 106 158 249 301 391 443 535 586 677 729 780>
VStem: 15 40<55 105 156 245 295 383 434 522 573 662 712 762> 16 90<17 55 762 801> 158 91<17 55 762 801> 182 29<259 391 420 594> 301 90<17 55 762 801> 415 28<465.683 549.628> 443 92<17 55 762 801> 586 91<17 55 762 801> 702 26<495.516 576.775> 716 25<300.914 385.071> 729 90<17 55 762 801> 780 39<55 105 156 245 295 383 434 522 573 662 712 762>
LayerCount: 3
Fore
SplineSet
523 566 m 0x169026
 515.081 566 511 571.61 511 579 c 0
 511 584 514 590 522 599 c 0
 541.185 618.185 578.753 637 620 637 c 0
 678.852 637 728 594.191 728 537 c 0x169026
 728 492.92 699.177 464.588 668 449 c 0
 667 449 666 448 665 447 c 1
 705.458 430.142 741 395.443 741 343 c 0
 741 275.686 680.518 223 612 223 c 0
 579.989 223 493 250.401 493 279 c 0
 493 283.717 499.105 291 504 291 c 0
 507 291 513 288 521 281 c 0
 540.732 265.653 575.249 250 613 250 c 0
 666.026 250 716 291.281 716 343 c 0x169025
 716 398.074 662.324 437 605 437 c 0
 595 437 589 442 589 451 c 0
 589 460 595 464 605 464 c 0
 656.156 464 671.914 471.756 691 498 c 1
 698 510 702 523 702 536 c 0
 702 582.329 665.076 610 618 610 c 0
 588.165 610 562.149 602.149 549 589 c 1
 543.51 580.766 533.004 566 523 566 c 0x169026
443 508 m 0x0e2074
 443 437.801 373.806 391 301 391 c 2
 211 391 l 1
 211 259 l 1
 307 259 l 2x0e2074
 320 259 327 254 327 245 c 0x260074
 327 236 320 230 307 230 c 2
 144 230 l 2x0e0074
 132 230 126 236 126 245 c 0x260074
 126 254 132 259 144 259 c 2
 182 259 l 1
 182 594 l 1
 144 594 l 2
 132 594 126 602 126 611 c 0
 126 620 132 623 144 623 c 2
 312 623 l 2
 381.005 623 443 575.935 443 508 c 0x0e2074
415 508 m 0
 415 557.644 365.072 594 314 594 c 2
 211 594 l 1
 211 420 l 1
 304 420 l 2
 360.085 420 415 454.611 415 508 c 0
819 712 m 1x06082440
 779 712 l 1x06082440
 780 762 l 1x06042440
 729 762 l 1
 729 801 l 1x06042480
 819 801 l 1x06082480
 819 712 l 1x06082440
677 762 m 1x060424
 586 762 l 1
 586 801 l 1
 677 801 l 1
 677 762 l 1x060424
819 573 m 1x06402440
 779 573 l 1
 780 662 l 1
 819 662 l 1
 819 573 l 1x06402440
535 762 m 1x06042c
 443 762 l 1
 443 801 l 1
 535 801 l 1
 535 762 l 1x06042c
819 434 m 1x07002440
 779 434 l 1
 780 522 l 1
 819 522 l 1
 819 434 l 1x07002440
391 762 m 1x060424
 301 762 l 1
 301 801 l 1
 391 801 l 1
 391 762 l 1x060424
819 295 m 1x06002440
 779 295 l 1
 780 383 l 1
 819 383 l 1
 819 295 l 1x06002440
249 762 m 1x0604a4
 158 762 l 1
 158 801 l 1
 249 801 l 1
 249 762 l 1x0604a4
819 156 m 1x26002440
 779 156 l 1
 780 245 l 1
 819 245 l 1
 819 156 l 1x26002440
106 762 m 1x060524
 55 762 l 1x060624
 55 712 l 1
 15 712 l 1x060a24
 16 801 l 1x060924
 106 801 l 1
 106 762 l 1x060524
819 17 m 1x86002480
 729 17 l 1
 729 55 l 1x46002480
 780 55 l 1x46002440
 780 105 l 1
 819 105 l 1x86002440
 819 17 l 1x86002480
55 573 m 1x064224
 15 573 l 1x064224
 16 662 l 1x064124
 55 662 l 1
 55 573 l 1x064224
677 17 m 1x460024
 586 17 l 1
 586 55 l 1
 677 55 l 1
 677 17 l 1x460024
55 434 m 1x070224
 15 434 l 1x070224
 16 522 l 1x070124
 55 522 l 1
 55 434 l 1x070224
535 17 m 1x46002c
 443 17 l 1
 443 55 l 1
 535 55 l 1
 535 17 l 1x46002c
55 295 m 1x060224
 15 295 l 1x060224
 16 383 l 1x060124
 55 383 l 1
 55 295 l 1x060224
391 17 m 1x460024
 301 17 l 1
 301 55 l 1
 391 55 l 1
 391 17 l 1x460024
55 156 m 1x260224
 15 156 l 1x260224
 16 245 l 1x260124
 55 245 l 1
 55 156 l 1x260224
249 17 m 1x4600a4
 159 17 l 1
 158 55 l 1
 249 55 l 1
 249 17 l 1x4600a4
106 17 m 1x460124
 15 17 l 1x460224
 16 105 l 1x860124
 55 105 l 1x860224
 55 55 l 1x460224
 106 55 l 1
 106 17 l 1x460124
EndSplineSet
Validated: 1
Layer: 2
SplineSet
549 589 m 1,0,1
 534 566 534 566 522.5 566 c 128,-1,2
 511 566 511 566 511 579 c 0,3,4
 511 587 511 587 522 599 c 0,5,6
 560 637 560 637 612.5 637 c 128,-1,7
 665 637 665 637 696.5 608 c 128,-1,8
 728 579 728 579 728 537 c 0,9,10
 728 479 728 479 668 449 c 0,11,12
 667 449 667 449 665 447 c 1,13,14
 741 415 741 415 741 343 c 0,15,16
 741 293 741 293 702.5 258 c 128,-1,17
 664 223 664 223 612 223 c 0,18,19
 583 223 583 223 538 241.5 c 128,-1,20
 493 260 493 260 493 279 c 0,21,22
 493 283 493 283 496.5 287 c 128,-1,23
 500 291 500 291 505 291 c 128,-1,24
 510 291 510 291 521 281 c 1,25,26
 561 250 561 250 607.5 250 c 128,-1,27
 654 250 654 250 685 277.5 c 128,-1,28
 716 305 716 305 716 344 c 128,-1,29
 716 383 716 383 682.5 410 c 128,-1,30
 649 437 649 437 605 437 c 0,31,32
 589 437 589 437 589 450.5 c 128,-1,33
 589 464 589 464 605 464 c 0,34,35
 643 464 643 464 659.5 471 c 128,-1,36
 676 478 676 478 691 498 c 1,37,38
 702 517 702 517 702 543.5 c 128,-1,39
 702 570 702 570 678 590 c 128,-1,40
 654 610 654 610 612 610 c 128,-1,41
 570 610 570 610 549 589 c 1,0,1
404 590.5 m 128,-1,43
 443 558 443 558 443 507.5 c 128,-1,44
 443 457 443 457 400.5 424 c 128,-1,45
 358 391 358 391 301 391 c 2,46,-1
 211 391 l 1,47,-1
 211 259 l 1,48,-1
 307 259 l 2,49,50
 327 259 327 259 327 244.5 c 128,-1,51
 327 230 327 230 307 230 c 2,52,-1
 144 230 l 2,53,54
 126 230 126 230 126 244.5 c 128,-1,55
 126 259 126 259 144 259 c 2,56,-1
 182 259 l 1,57,-1
 182 594 l 1,58,-1
 144 594 l 2,59,60
 126 594 126 594 126 611 c 0,61,62
 126 623 126 623 144 623 c 2,63,-1
 312 623 l 2,64,42
 365 623 365 623 404 590.5 c 128,-1,43
381.5 444.5 m 128,-1,66
 415 469 415 469 415 506.5 c 128,-1,67
 415 544 415 544 384.5 569 c 128,-1,68
 354 594 354 594 314 594 c 2,69,-1
 211 594 l 1,70,-1
 211 420 l 1,71,-1
 304 420 l 2,72,65
 348 420 348 420 381.5 444.5 c 128,-1,66
819 712 m 1,73,-1
 779 712 l 1,74,-1
 780 762 l 1,75,-1
 729 762 l 1,76,-1
 729 801 l 1,77,-1
 819 801 l 1,78,-1
 819 712 l 1,73,-1
677 762 m 1,79,-1
 586 762 l 1,80,-1
 586 801 l 1,81,-1
 677 801 l 1,82,-1
 677 762 l 1,79,-1
819 573 m 1,83,-1
 779 573 l 1,84,-1
 780 662 l 1,85,-1
 819 662 l 1,86,-1
 819 573 l 1,83,-1
535 762 m 1,87,-1
 443 762 l 1,88,-1
 443 801 l 1,89,-1
 535 801 l 1,90,-1
 535 762 l 1,87,-1
819 434 m 1,91,-1
 779 434 l 1,92,-1
 780 522 l 1,93,-1
 819 522 l 1,94,-1
 819 434 l 1,91,-1
391 762 m 1,95,-1
 301 762 l 1,96,-1
 301 801 l 1,97,-1
 391 801 l 1,98,-1
 391 762 l 1,95,-1
819 295 m 1,99,-1
 779 295 l 1,100,-1
 780 383 l 1,101,-1
 819 383 l 1,102,-1
 819 295 l 1,99,-1
249 762 m 1,103,-1
 158 762 l 1,104,-1
 158 801 l 1,105,-1
 249 801 l 1,106,-1
 249 762 l 1,103,-1
819 156 m 1,107,-1
 779 156 l 1,108,-1
 780 245 l 1,109,-1
 819 245 l 1,110,-1
 819 156 l 1,107,-1
106 762 m 1,111,-1
 55 762 l 1,112,-1
 55 712 l 1,113,-1
 15 712 l 1,114,-1
 16 801 l 1,115,-1
 106 801 l 1,116,-1
 106 762 l 1,111,-1
819 17 m 1,117,-1
 729 17 l 1,118,-1
 729 55 l 1,119,-1
 780 55 l 1,120,-1
 780 105 l 1,121,-1
 819 105 l 1,122,-1
 819 17 l 1,117,-1
55 573 m 1,123,-1
 15 573 l 1,124,-1
 16 662 l 1,125,-1
 55 662 l 1,126,-1
 55 573 l 1,123,-1
677 17 m 1,127,-1
 586 17 l 1,128,-1
 586 55 l 1,129,-1
 677 55 l 1,130,-1
 677 17 l 1,127,-1
55 434 m 1,131,-1
 15 434 l 1,132,-1
 16 522 l 1,133,-1
 55 522 l 1,134,-1
 55 434 l 1,131,-1
535 17 m 1,135,-1
 443 17 l 1,136,-1
 443 55 l 1,137,-1
 535 55 l 1,138,-1
 535 17 l 1,135,-1
55 295 m 1,139,-1
 15 295 l 1,140,-1
 16 383 l 1,141,-1
 55 383 l 1,142,-1
 55 295 l 1,139,-1
391 17 m 1,143,-1
 301 17 l 1,144,-1
 301 55 l 1,145,-1
 391 55 l 1,146,-1
 391 17 l 1,143,-1
55 156 m 1,147,-1
 15 156 l 1,148,-1
 16 245 l 1,149,-1
 55 245 l 1,150,-1
 55 156 l 1,147,-1
249 17 m 1,151,-1
 159 17 l 1,152,-1
 158 55 l 1,153,-1
 249 55 l 1,154,-1
 249 17 l 1,151,-1
106 17 m 1,155,-1
 15 17 l 1,156,-1
 16 105 l 1,157,-1
 55 105 l 1,158,-1
 55 55 l 1,159,-1
 106 55 l 1,160,-1
 106 17 l 1,155,-1
EndSplineSet
Validated: 1
Colour: ffc259
EndChar

StartChar: uniEE90
Encoding: 61072 61072 93
Width: 350
VWidth: 0
GlyphClass: 2
Flags: W
HStem: 137 134<231.788 297.641>
VStem: 203 10<83.3571 104.99> 211 118<139.656 250.711> 293 18<-25.8192 26.2847>
AnchorPoint: "Lomka" 540 150 basechar 0
AnchorPoint: "Tikhaya" 0 200 basechar 0
AnchorPoint: "Borzaya" 0 150 basechar 0
AnchorPoint: "Zevok" 140 0 basechar 0
AnchorPoint: "Kachka" 50 660 basechar 0
AnchorPoint: "Kupnaya" 50 -50 basechar 0
AnchorPoint: "Podchashie" 190 0 basechar 0
AnchorPoint: "Auxiliary" 180 670 basechar 0
AnchorPoint: "Podvertka" 220 0 basechar 0
AnchorPoint: "Flexion" 395 640 basechar 0
AnchorPoint: "Podtinka" 0 -100 basechar 0
AnchorPoint: "TonalRange" 415 660 basechar 0
AnchorPoint: "Tochka" 360 325 basechar 0
AnchorPoint: "Zaderzhka" 30 -120 basechar 0
AnchorPoint: "Omet" 205 500 basechar 0
AnchorPoint: "PitchMark" 0 500 basechar 0
LayerCount: 3
Fore
SplineSet
311 -19 m 0x90
 310 -23 303 -26 301 -26 c 0
 299 -26 292 -23 293 -16 c 0
 295 -2 304 69 304 82 c 0
 304 112 296 134 265 137 c 1
 259 137 l 2
 244 137 223 130 213 90 c 0
 211 80 201 77 203 87 c 1xd0
 205 116 207 151 211 183 c 0
 217 231 231 271 274 271 c 0
 311 271 325 230 329 177 c 0xa0
 334 107 320 19 311 -19 c 0x90
106 343 m 1
 112 361 125 377 143 390 c 0
 161 403 177 412 192 416 c 2
 215 423 l 1
 205 299 l 1
 204 298 201 297 197 296 c 1
 181 290.555 163 297.395 142 270 c 1
 121 257 105 240 94 217 c 1
 106 343 l 1
42 87 m 1
 48 105 61 121 79 134 c 0
 97 147 113 156 128 160 c 2
 151 167 l 1
 141 43 l 1
 140 42 137 41 133 40 c 0
 117 36 99 27 78 14 c 0
 57 1 41 -16 30 -39 c 1
 42 87 l 1
EndSplineSet
Validated: 3105
Layer: 2
SplineSet
85 343 m 1,0,1
 94 370 94 370 121.5 390 c 128,-1,2
 149 410 149 410 171 416 c 2,3,-1
 194 423 l 1,4,-1
 184 299 l 1,5,6
 182 298 182 298 176 296 c 0,7,8
 152 290 152 290 121 270.5 c 128,-1,9
 90 251 90 251 73 217 c 1,10,-1
 85 343 l 1,0,1
21 87 m 1,11,12
 30 114 30 114 57.5 134 c 128,-1,13
 85 154 85 154 107 160 c 2,14,-1
 130 167 l 1,15,-1
 120 43 l 1,16,17
 118 42 118 42 112 40 c 0,18,19
 88 34 88 34 57 14.5 c 128,-1,20
 26 -5 26 -5 9 -39 c 1,21,-1
 21 87 l 1,11,12
253 271 m 0,22,23
 310 271 310 271 310 137 c 0,24,25
 310 62 310 62 290 -19 c 0,26,27
 288 -26 288 -26 280 -26 c 0,28,29
 278 -26 278 -26 274.5 -23.5 c 128,-1,30
 271 -21 271 -21 272 -16 c 0,31,32
 283 61 283 61 283 82 c 0,33,34
 283 133 283 133 244 137 c 1,35,-1
 238 137 l 2,36,37
 204 137 204 137 192 90 c 0,38,39
 191 82 191 82 185 81 c 0,40,41
 183 80 183 80 182 83 c 0,42,43
 182 116 182 116 190 183 c 0,44,45
 201 271 201 271 253 271 c 0,22,23
EndSplineSet
Position2: "Advance neume with cinnabar mark-1" dx=200 dy=0 dh=0 dv=0
Colour: ffc259
EndChar

StartChar: uniEE76
Encoding: 61046 61046 94
Width: 500
VWidth: 999
GlyphClass: 2
Flags: W
HStem: 0 21G<32.0417 40.5>
AnchorPoint: "Lomka" -340 150 basechar 0
AnchorPoint: "Tikhaya" 0 370 basechar 0
AnchorPoint: "Borzaya" 220 390 basechar 0
AnchorPoint: "Zevok" 180 60 basechar 0
AnchorPoint: "Kachka" 50 660 basechar 0
AnchorPoint: "Kupnaya" 50 -50 basechar 0
AnchorPoint: "Podchashie" 100 -30 basechar 0
AnchorPoint: "Auxiliary" 265 660 basechar 0
AnchorPoint: "Podvertka" 400 170 basechar 0
AnchorPoint: "Flexion" 395 640 basechar 0
AnchorPoint: "Podtinka" 0 -50 basechar 0
AnchorPoint: "TonalRange" 415 660 basechar 0
AnchorPoint: "Tochka" 510 325 basechar 0
AnchorPoint: "Zaderzhka" 30 -120 basechar 0
AnchorPoint: "Omet" 425 190 basechar 0
AnchorPoint: "PitchMark" 0 500 basechar 0
LayerCount: 3
Fore
SplineSet
70 162 m 1
 83 184 100 203 122 220 c 0
 144 237 162 248 177 254 c 2
 199 262 l 1
 184 122 l 1
 176 120 163 115 146 107 c 0
 90 82 51 46 30 0 c 1
 79 480 l 1
 105 496 l 1
 70 162 l 1
389 351 m 1
 399 380 428 410 457 417 c 2
 473 421 l 1
 460 297 l 1
 425 291 391 257 375 225 c 1
 389 351 l 1
253 271 m 1
 263 300 292 330 321 337 c 2
 337 341 l 1
 324 217 l 1
 289 211 255 177 239 145 c 1
 253 271 l 1
EndSplineSet
Validated: 3073
Layer: 2
SplineSet
70 162 m 1,0,1
 89 195 89 195 121.5 220 c 128,-1,2
 154 245 154 245 177 254 c 2,3,-1
 199 262 l 1,4,-1
 184 122 l 1,5,6
 172 119 172 119 146 107 c 0,7,8
 62 69 62 69 30 0 c 1,9,-1
 79 480 l 1,10,-1
 105 496 l 1,11,-1
 70 162 l 1,0,1
389 351 m 1,12,13
 398 378 398 378 419 395.5 c 128,-1,14
 440 413 440 413 457 417 c 2,15,-1
 473 421 l 1,16,-1
 460 297 l 1,17,18
 454 296 454 296 444 293 c 128,-1,19
 434 290 434 290 411.5 271.5 c 128,-1,20
 389 253 389 253 375 225 c 1,21,-1
 389 351 l 1,12,13
253 271 m 1,22,23
 262 298 262 298 283 315.5 c 128,-1,24
 304 333 304 333 321 337 c 2,25,-1
 337 341 l 1,26,-1
 324 217 l 1,27,28
 318 216 318 216 308 213 c 128,-1,29
 298 210 298 210 275.5 191.5 c 128,-1,30
 253 173 253 173 239 145 c 1,31,-1
 253 271 l 1,22,23
EndSplineSet
Position2: "Advance neume with cinnabar mark-1" dx=200 dy=0 dh=0 dv=0
Colour: ffc259
EndChar

StartChar: uniEE77
Encoding: 61047 61047 95
Width: 385
VWidth: 0
GlyphClass: 2
Flags: W
HStem: 0 21G<32.0417 40.5> 281 134<264.827 330.563>
VStem: 236 10<227.683 248.65> 337 27<154.973 325.5>
AnchorPoint: "Lomka" 540 150 basechar 0
AnchorPoint: "Tikhaya" 0 -30 basechar 0
AnchorPoint: "Borzaya" 0 150 basechar 0
AnchorPoint: "Zevok" 180 60 basechar 0
AnchorPoint: "Kachka" 50 660 basechar 0
AnchorPoint: "Kupnaya" 50 -50 basechar 0
AnchorPoint: "Auxiliary" 265 660 basechar 0
AnchorPoint: "Podvertka" 250 90 basechar 0
AnchorPoint: "Flexion" 395 640 basechar 0
AnchorPoint: "Podtinka" 0 -50 basechar 0
AnchorPoint: "TonalRange" 415 660 basechar 0
AnchorPoint: "Tochka" 395 325 basechar 0
AnchorPoint: "Zaderzhka" 30 -120 basechar 0
AnchorPoint: "Omet" 205 500 basechar 0
AnchorPoint: "Podchashie" 100 -30 basechar 0
AnchorPoint: "PitchMark" 0 500 basechar 0
LayerCount: 3
Fore
SplineSet
70 162 m 1
 83 184 99 203 121 220 c 0
 143 237 162 248 177 254 c 2
 199 262 l 1
 184 122 l 1
 177 120 164 115 147 107 c 0
 90 81 51 45 30 0 c 1
 79 480 l 1
 105 496 l 1
 70 162 l 1
307 415 m 0
 345 415 364 370 364 281 c 0
 364 231 357 179 344 125 c 0
 343 120 339 118 334 118 c 0
 330 118 325 123 326 128 c 0
 333 179 337 212 337 226 c 0
 337 260 324 278 298 281 c 1
 292 281 l 2
 269 281 254 265 246 234 c 0
 245 228 236 219 236 230 c 0
 236 232 243 326 243 327 c 0
 250 386 272 415 307 415 c 0
EndSplineSet
Validated: 3073
Layer: 2
SplineSet
71 162 m 5,0,1
 90 195 90 195 122.5 220 c 132,-1,2
 155 245 155 245 178 254 c 6,3,-1
 200 262 l 5,4,-1
 185 122 l 5,5,6
 174 119 174 119 148 107 c 4,7,8
 63 68 63 68 31 0 c 5,9,-1
 80 480 l 5,10,-1
 106 496 l 5,11,-1
 71 162 l 5,0,1
308 415 m 4,12,13
 365 415 365 415 365 281 c 4,14,15
 365 206 365 206 345 125 c 4,16,17
 343 118 343 118 335 118 c 4,18,19
 333 118 333 118 329.5 120.5 c 132,-1,20
 326 123 326 123 327 128 c 4,21,22
 338 205 338 205 338 226 c 4,23,24
 338 277 338 277 299 281 c 5,25,-1
 293 281 l 6,26,27
 259 281 259 281 247 234 c 4,28,29
 246 226 246 226 240 225 c 4,30,31
 237 224 237 224 237 230 c 132,-1,32
 237 236 237 236 240 278 c 132,-1,33
 243 320 243 320 244 327 c 4,34,35
 255 415 255 415 308 415 c 4,12,13
EndSplineSet
Position2: "Advance neume with cinnabar mark-1" dx=200 dy=0 dh=0 dv=0
Colour: ffc259
EndChar

StartChar: uniEE7C
Encoding: 61052 61052 96
Width: 325
VWidth: 999
GlyphClass: 2
Flags: W
HStem: 206 108<82.3961 151.009>
VStem: 24 27<-42.8409 141.765> 158 32<41.3 254>
AnchorPoint: "Lomka" 370 150 basechar 0
AnchorPoint: "Tikhaya" 0 80 basechar 0
AnchorPoint: "Borzaya" 0 150 basechar 0
AnchorPoint: "Zevok" 50 0 basechar 0
AnchorPoint: "Kachka" 50 660 basechar 0
AnchorPoint: "Kupnaya" 50 -50 basechar 0
AnchorPoint: "Auxiliary" 265 660 basechar 0
AnchorPoint: "Podvertka" 330 110 basechar 0
AnchorPoint: "Flexion" 395 640 basechar 0
AnchorPoint: "Podtinka" 0 -100 basechar 0
AnchorPoint: "TonalRange" 415 660 basechar 0
AnchorPoint: "Tochka" 335 325 basechar 0
AnchorPoint: "Zaderzhka" 30 -120 basechar 0
AnchorPoint: "Omet" 205 500 basechar 0
AnchorPoint: "Podchashie" 100 -30 basechar 0
AnchorPoint: "PitchMark" 0 500 basechar 0
LayerCount: 3
Fore
SplineSet
299 338 m 1
 287 213 l 1
 210 287 l 1
 222 413 l 1
 299 338 l 1
51 -28 m 0
 51 -34 43 -43 36 -43 c 0
 27 -43 23 -35 24 -20 c 0
 24 48 31 123 42 190 c 0
 51 245 74 314 128 314 c 0
 169 314 190 284 190 224 c 0
 190 164 183 95 170 15 c 0
 167 8 163 4 157 4 c 0
 149 4 148 7 145 12 c 1
 154 87 158 130 158 141 c 0
 158 184 146 206 121 206 c 0
 84 206 62 165 55 82 c 0
 54 45 52 8 51 -28 c 0
173 458 m 1
 161 333 l 1
 85 407 l 1
 96 533 l 1
 173 458 l 1
EndSplineSet
Validated: 3073
Layer: 2
SplineSet
299 338 m 1,0,-1
 287 213 l 1,1,-1
 210 287 l 1,2,-1
 222 413 l 1,3,-1
 299 338 l 1,0,-1
145 12 m 1,4,5
 158 125 158 125 158 141 c 0,6,7
 158 206 158 206 121 206 c 0,8,9
 65 206 65 206 55 82 c 0,10,11
 53 26 53 26 51 -28 c 0,12,13
 51 -32 51 -32 46.5 -37.5 c 128,-1,14
 42 -43 42 -43 36 -43 c 0,15,16
 22 -43 22 -43 24 -20 c 0,17,18
 24 -14 24 -14 24.5 13 c 128,-1,19
 25 40 25 40 28.5 87 c 128,-1,20
 32 134 32 134 41.5 190.5 c 128,-1,21
 51 247 51 247 73.5 280.5 c 128,-1,22
 96 314 96 314 128 314 c 0,23,24
 190 314 190 314 190 224.5 c 128,-1,25
 190 135 190 135 170 15 c 0,26,27
 166 4 166 4 157 3.5 c 128,-1,28
 148 3 148 3 146 10 c 1,29,-1
 145 12 l 1,4,5
173 458 m 1,30,-1
 161 333 l 1,31,-1
 85 407 l 1,32,-1
 96 533 l 1,33,-1
 173 458 l 1,30,-1
EndSplineSet
Position2: "Advance neume with cinnabar mark-1" dx=200 dy=0 dh=0 dv=0
Colour: ffc259
EndChar

StartChar: uniEE70
Encoding: 61040 61040 97
Width: 625
VWidth: 999
GlyphClass: 2
Flags: W
HStem: 0 21G<32.0417 47.0833> 451 125<478.289 544.923>
AnchorPoint: "Lomka" 540 150 basechar 0
AnchorPoint: "Tikhaya" 0 370 basechar 0
AnchorPoint: "Borzaya" 0 150 basechar 0
AnchorPoint: "Zevok" 630 350 basechar 0
AnchorPoint: "Kachka" 50 660 basechar 0
AnchorPoint: "Kupnaya" 50 -50 basechar 0
AnchorPoint: "Auxiliary" 265 660 basechar 0
AnchorPoint: "Podvertka" 630 380 basechar 0
AnchorPoint: "Flexion" 395 640 basechar 0
AnchorPoint: "Podtinka" 0 -50 basechar 0
AnchorPoint: "TonalRange" 415 660 basechar 0
AnchorPoint: "Zaderzhka" 630 460 basechar 0
AnchorPoint: "Omet" 485 300 basechar 0
AnchorPoint: "Tochka" 485 325 basechar 0
AnchorPoint: "Podchashie" 378 245 basechar 0
AnchorPoint: "PitchMark" 0 500 basechar 0
LayerCount: 3
Fore
SplineSet
519 576 m 0
 544 576 588 521 588 494 c 0
 588 494 588 493 588 492 c 2
 575 374 l 1
 569 402 553 426 526 447 c 0
 523 450 518 451 513 451 c 0
 497 451 469 436 430 407 c 0
 345 344 225 224 71 48 c 1
 30 0 l 1
 79 480 l 1
 105 496 l 1
 70 162 l 1
 168 283 280 395 406 498 c 0
 468 550 506 576 519 576 c 0
EndSplineSet
Validated: 19457
Layer: 2
SplineSet
519 576 m 132,-1,1
 538 576 538 576 566 545 c 132,-1,2
 594 514 594 514 593 492 c 5,3,-1
 575 374 l 5,4,5
 566 416 566 416 526 447 c 4,6,7
 520.87 450.908 520.87 450.908 513.025 450.908 c 4,8,9
 488.756 450.908 488.756 450.908 430.378 407.454 c 4,10,11
 301.736 311.698 301.736 311.698 71 48 c 5,12,-1
 30 0 l 5,13,-1
 79 480 l 5,14,-1
 105 496 l 5,15,-1
 70 162 l 5,16,17
 216.536 343.529 216.536 343.529 405.5 498.5 c 4,18,0
 500 576 500 576 519 576 c 132,-1,1
EndSplineSet
Position2: "Advance neume with cinnabar mark-1" dx=200 dy=0 dh=0 dv=0
Colour: ffc259
EndChar

StartChar: uniEE85
Encoding: 61061 61061 98
Width: 625
VWidth: 0
GlyphClass: 2
Flags: W
HStem: 0 21G<31.8692 33> 451 125<479.474 545.206>
AnchorPoint: "Lomka" 540 150 basechar 0
AnchorPoint: "Tikhaya" 0 370 basechar 0
AnchorPoint: "Borzaya" 0 150 basechar 0
AnchorPoint: "Zevok" 630 350 basechar 0
AnchorPoint: "Kachka" 50 660 basechar 0
AnchorPoint: "Kupnaya" 50 -50 basechar 0
AnchorPoint: "Auxiliary" 265 660 basechar 0
AnchorPoint: "Podvertka" 630 380 basechar 0
AnchorPoint: "Flexion" 395 640 basechar 0
AnchorPoint: "Podtinka" 0 -50 basechar 0
AnchorPoint: "TonalRange" 415 660 basechar 0
AnchorPoint: "Zaderzhka" 630 460 basechar 0
AnchorPoint: "Omet" 535 300 basechar 0
AnchorPoint: "Tochka" 535 325 basechar 0
AnchorPoint: "Podchashie" 370 70 basechar 0
AnchorPoint: "PitchMark" 0 500 basechar 0
LayerCount: 3
Fore
SplineSet
519 576 m 0
 532 576 546 566 564 545 c 0
 581 525 588 508 588 494 c 0
 588 493 588 493 588 492 c 1
 575 374 l 1
 569 402 553 426 526 447 c 0
 523 450 518 451 513 451 c 0
 512 451 l 0
 495 451 470 439 438 414 c 0
 394 381 347 340 296 290 c 0
 245 240 190 182 130 116 c 0
 70 50 36 11 30 0 c 1
 40 107 l 1
 48 122 75 157 120 212 c 0
 218 332 282 396 406 498 c 0
 469 550 506 576 519 576 c 0
175 59.4004 m 1
 196 120.4 259 129.4 259 129.4 c 1
 249 5.40039 l 1
 249 5.40039 194 -3.59961 163 -66.5996 c 1
 175 59.4004 l 1
436 297.4 m 1
 457 358.4 520 367.4 520 367.4 c 1
 509 243.4 l 1
 509 243.4 455 234.4 424 171.4 c 1
 436 297.4 l 1
305 178.4 m 1
 326 239.4 389 248.4 389 248.4 c 1
 379 124.4 l 1
 379 124.4 324 115.4 293 52.4004 c 1
 305 178.4 l 1
EndSplineSet
Validated: 19457
Layer: 2
SplineSet
162 59 m 1,0,1
 171 86 171 86 192 103.5 c 128,-1,2
 213 121 213 121 230 124 c 1,3,-1
 246 128 l 1,4,-1
 235 4 l 1,5,6
 229 3 229 3 219 0 c 128,-1,7
 209 -3 209 -3 186.5 -21.5 c 128,-1,8
 164 -40 164 -40 150 -68 c 1,9,-1
 162 59 l 1,0,1
422 297 m 1,10,11
 431 324 431 324 452 341.5 c 128,-1,12
 473 359 473 359 490 363 c 2,13,-1
 506 367 l 1,14,-1
 496 243 l 1,15,16
 490 242 490 242 480 239 c 128,-1,17
 470 236 470 236 447 217.5 c 128,-1,18
 424 199 424 199 410 171 c 1,19,-1
 422 297 l 1,10,11
292 178 m 1,20,21
 301 205 301 205 322 222.5 c 128,-1,22
 343 240 343 240 360 244 c 2,23,-1
 376 248 l 1,24,-1
 366 124 l 1,25,26
 360 123 360 123 350 120 c 128,-1,27
 340 117 340 117 317 98.5 c 128,-1,28
 294 80 294 80 280 52 c 1,29,-1
 292 178 l 1,20,21
506 576 m 128,-1,31
 525 576 525 576 553 545 c 128,-1,32
 581 514 581 514 580 492 c 1,33,-1
 562 374 l 1,34,35
 553 416 553 416 513 447 c 0,36,37
 508 451 508 451 500 451 c 0,38,39
 476 451 476 451 417 407 c 0,40,41
 288 311 288 311 58 48 c 1,42,-1
 17 0 l 1,43,-1
 29 123 l 1,44,45
 147 268 147 268 222.5 344.5 c 128,-1,46
 298 421 298 421 392.5 498.5 c 128,-1,30
 487 576 487 576 506 576 c 128,-1,31
EndSplineSet
Position2: "Advance neume with cinnabar mark-1" dx=200 dy=0 dh=0 dv=0
Colour: ffc259
EndChar

StartChar: uniEE80
Encoding: 61056 61056 99
Width: 225
VWidth: 999
GlyphClass: 2
Flags: W
HStem: 0 106<51.5524 150.3>
VStem: 20 34<107.47 184.16> 62 26<388.5 491.999> 80 11<490.513 513.981> 185 22<149.369 256>
AnchorPoint: "Lomka" -340 150 basechar 0
AnchorPoint: "Tikhaya" 0 -30 basechar 0
AnchorPoint: "Borzaya" 0 150 basechar 0
AnchorPoint: "Zevok" 50 0 basechar 0
AnchorPoint: "Kachka" 50 660 basechar 0
AnchorPoint: "Kupnaya" 50 -50 basechar 0
AnchorPoint: "Auxiliary" 20 270 basechar 0
AnchorPoint: "Podvertka" 200 0 basechar 0
AnchorPoint: "Flexion" 395 640 basechar 0
AnchorPoint: "Podtinka" 0 -50 basechar 0
AnchorPoint: "TonalRange" 415 660 basechar 0
AnchorPoint: "Tochka" 235 325 basechar 0
AnchorPoint: "Zaderzhka" 30 -120 basechar 0
AnchorPoint: "Omet" 205 500 basechar 0
AnchorPoint: "Podchashie" 100 -30 basechar 0
AnchorPoint: "PitchMark" -40 500 basechar 0
LayerCount: 3
Fore
SplineSet
21 50 m 0xe8
 21 52 20 64 20 66 c 0
 20 91 26 168 33 185 c 0
 35 189 38 191 43 191 c 0
 50 191 54 189 54 184 c 0
 54 177 49 155 49 147 c 0
 49 120 60 106 82 106 c 0
 122 106 185 138 185 176 c 0
 185 191 181 206 171 220 c 0
 161 234 148 247 131 262 c 0
 114 277 102 291 95 302 c 0
 73 335 62 370 62 407 c 0xe8
 62 429 73 494 80 507 c 0
 80 512 82 514 86 514 c 0
 89 514 91 511 91 508 c 2
 91 507 l 1xd8
 89 498 88 487 88 474 c 0
 88 433 126 387 149 358 c 0
 164 340 174 327 181 318 c 0
 195 300 207 272 207 240 c 0
 207 164 205 113 200 88 c 0
 193 57 182 33 155 18 c 0
 139 9 110 0 84 0 c 0
 48 0 24 18 21 50 c 0xe8
EndSplineSet
Validated: 3073
Layer: 2
SplineSet
53 184 m 2,0,-1
 48 147 l 1,1,2
 48 106 48 106 81 106 c 128,-1,3
 114 106 114 106 149 127.5 c 128,-1,4
 184 149 184 149 184 174.5 c 128,-1,5
 184 200 184 200 170.5 219 c 0,6,7
 158 238 158 238 132 260 c 0,8,9
 62 322 62 322 61 407 c 0,10,11
 61 424 61 424 67.5 461 c 128,-1,12
 74 498 74 498 79 507 c 0,13,14
 79 514 79 514 84.5 514 c 128,-1,15
 90 514 90 514 90 508 c 2,16,-1
 90 507 l 1,17,18
 87 493 87 493 87 474 c 0,19,20
 87 435 87 435 148 358 c 0,21,22
 161 342 161 342 183.5 313.5 c 128,-1,23
 206 285 206 285 206 240 c 0,24,25
 206 123 206 123 199 88 c 0,26,27
 187 37 187 37 154.5 18.5 c 128,-1,28
 122 0 122 0 83 0 c 0,29,30
 25 0 25 0 20 50 c 1,31,-1
 19 66 l 1,32,33
 19 89 19 89 23 131 c 128,-1,34
 27 173 27 173 31 182 c 128,-1,35
 35 191 35 191 44 191 c 128,-1,36
 53 191 53 191 53 184 c 2,0,-1
EndSplineSet
Position2: "Advance neume with cinnabar mark-1" dx=200 dy=0 dh=0 dv=0
Colour: ffc259
EndChar

StartChar: uniEEAC
Encoding: 61100 61100 100
Width: 320
VWidth: 0
GlyphClass: 2
Flags: W
HStem: -7 21G<149 172.258>
VStem: 25 270
AnchorPoint: "Lomka" 540 150 basechar 0
AnchorPoint: "Tikhaya" 0 -30 basechar 0
AnchorPoint: "Borzaya" 0 150 basechar 0
AnchorPoint: "Zevok" 50 0 basechar 0
AnchorPoint: "Kachka" 50 660 basechar 0
AnchorPoint: "Kupnaya" 50 -50 basechar 0
AnchorPoint: "Auxiliary" 265 660 basechar 0
AnchorPoint: "Podvertka" 200 0 basechar 0
AnchorPoint: "Flexion" 395 640 basechar 0
AnchorPoint: "Podtinka" 0 -50 basechar 0
AnchorPoint: "TonalRange" 415 660 basechar 0
AnchorPoint: "Tochka" 330 325 basechar 0
AnchorPoint: "Zaderzhka" 30 -120 basechar 0
AnchorPoint: "Omet" 205 500 basechar 0
AnchorPoint: "Podchashie" 100 -30 basechar 0
AnchorPoint: "PitchMark" 0 500 basechar 0
LayerCount: 3
Fore
SplineSet
160 506 m 0
 162 506 169 496 180 476 c 0
 201 439 227 355 232 302 c 1
 244 302 246 305 262 317 c 0
 274 326 286 340 295 359 c 1
 284 248 l 1
 275 222 256 197 232 194 c 1
 225 144 200 60 179 24 c 2
 160 -7 l 1
 138 26 127 46 110 103 c 0
 99 140 92 172 89 201 c 1
 76 201 74 198 58 186 c 0
 46 177 34 163 25 144 c 1
 35 254 l 1
 44 280 64 306 90 308 c 1
 96 357 120 440 140 476 c 0
 151 496 158 506 160 506 c 0
184 109 m 1
 196 133 202 167 202 210 c 0
 202 253 196 287 186 312 c 0
 176 337 159 363 136 390 c 1
 127 369 122 337 122 296 c 0
 122 213 143 151 184 109 c 1
EndSplineSet
Validated: 3073
Layer: 2
SplineSet
174 506 m 128,-1,1
 177 506 177 506 194 476 c 128,-1,2
 211 446 211 446 226.5 394.5 c 128,-1,3
 242 343 242 343 246 302 c 1,4,5
 257 302 257 302 276 316.5 c 128,-1,6
 295 331 295 331 309 359 c 1,7,-1
 298 248 l 1,8,9
 289 221 289 221 273 208 c 128,-1,10
 257 195 257 195 246 194 c 1,11,12
 241 156 241 156 226 105 c 128,-1,13
 211 54 211 54 193 24 c 2,14,-1
 174 -7 l 1,15,16
 166 5 166 5 153.5 26.5 c 128,-1,17
 141 48 141 48 124 103 c 128,-1,18
 107 158 107 158 103 201 c 1,19,20
 91 201 91 201 72 186.5 c 128,-1,21
 53 172 53 172 39 144 c 1,22,-1
 49 254 l 1,23,24
 58 281 58 281 74.5 294 c 128,-1,25
 91 307 91 307 104 308 c 1,26,27
 109 346 109 346 123.5 396.5 c 128,-1,28
 138 447 138 447 154.5 476.5 c 128,-1,0
 171 506 171 506 174 506 c 128,-1,1
198 109 m 1,29,30
 216 145 216 145 216 209.5 c 128,-1,31
 216 274 216 274 200.5 312 c 128,-1,32
 185 350 185 350 150 390 c 1,33,34
 136 358 136 358 136 296 c 0,35,36
 136 172 136 172 198 109 c 1,29,30
EndSplineSet
Position2: "Advance neume with cinnabar mark-1" dx=200 dy=0 dh=0 dv=0
Colour: ffc259
EndChar

StartChar: uniEEAD
Encoding: 61101 61101 101
Width: 290
VWidth: 0
GlyphClass: 2
Flags: W
HStem: 0 21G<24.0417 40.5714 193.121 208.857>
VStem: 22 243
AnchorPoint: "Lomka" 540 150 basechar 0
AnchorPoint: "Tikhaya" 0 -30 basechar 0
AnchorPoint: "Borzaya" 0 150 basechar 0
AnchorPoint: "Zevok" 50 0 basechar 0
AnchorPoint: "Kachka" 50 660 basechar 0
AnchorPoint: "Kupnaya" 50 -50 basechar 0
AnchorPoint: "Auxiliary" 265 660 basechar 0
AnchorPoint: "Podvertka" 200 0 basechar 0
AnchorPoint: "Flexion" 395 640 basechar 0
AnchorPoint: "Podtinka" 0 -50 basechar 0
AnchorPoint: "TonalRange" 415 660 basechar 0
AnchorPoint: "Tochka" 300 325 basechar 0
AnchorPoint: "Zaderzhka" 30 -120 basechar 0
AnchorPoint: "Omet" 205 500 basechar 0
AnchorPoint: "Podchashie" 100 -30 basechar 0
AnchorPoint: "PitchMark" 0 500 basechar 0
LayerCount: 3
Fore
SplineSet
265 496 m 1
 265 496 249 339 216 28 c 1
 191 0 l 1
 198 66 l 1
 60 146 l 1
 56 109 52 70 48 28 c 1
 22 0 l 1
 71 480 l 1
 96 496 l 1
 95 482 92 459 89 427 c 1
 226 347 l 1
 240 480 l 1
 265 496 l 1
216 245 m 1
 79 325 l 1
 76 302 74 276 71 248 c 1
 208 168 l 1
 216 245 l 1
EndSplineSet
Validated: 3073
Layer: 2
SplineSet
265 496 m 1,0,1
 265 494 265 494 216 28 c 1,2,-1
 191 0 l 1,3,-1
 198 66 l 1,4,-1
 60 146 l 1,5,6
 54 91 54 91 48 28 c 1,7,-1
 22 0 l 1,8,-1
 71 480 l 1,9,-1
 96 496 l 1,10,11
 94 475 94 475 89 427 c 1,12,-1
 226 347 l 1,13,-1
 240 480 l 1,14,-1
 265 496 l 1,0,1
216 245 m 1,15,-1
 79 325 l 1,16,17
 75 290 75 290 71 248 c 1,18,-1
 208 168 l 1,19,-1
 216 245 l 1,15,-1
EndSplineSet
Position2: "Advance neume with cinnabar mark-1" dx=200 dy=0 dh=0 dv=0
Colour: ffc259
EndChar

StartChar: uniEE87
Encoding: 61063 61063 102
Width: 260
VWidth: 999
GlyphClass: 2
Flags: W
HStem: 1 247
VStem: 20 220
AnchorPoint: "Lomka" 330 150 basechar 0
AnchorPoint: "Tikhaya" 0 50 basechar 0
AnchorPoint: "Zaderzhka" 270 180 basechar 0
AnchorPoint: "Borzaya" 0 150 basechar 0
AnchorPoint: "Zevok" 50 0 basechar 0
AnchorPoint: "Kachka" 50 660 basechar 0
AnchorPoint: "Kupnaya" 0 100 basechar 0
AnchorPoint: "Auxiliary" 150 370 basechar 0
AnchorPoint: "Podvertka" 280 0 basechar 0
AnchorPoint: "Flexion" 395 640 basechar 0
AnchorPoint: "Podtinka" 0 -50 basechar 0
AnchorPoint: "TonalRange" 415 660 basechar 0
AnchorPoint: "Tochka" 270 325 basechar 0
AnchorPoint: "Omet" 205 500 basechar 0
AnchorPoint: "Podchashie" 100 -30 basechar 0
AnchorPoint: "PitchMark" 0 500 basechar 0
LayerCount: 3
Fore
SplineSet
159 248 m 1
 240 129 l 1
 228 1 l 1
 147 121 l 1
 159 248 l 1
32 248 m 1
 113 129 l 1
 101 1 l 1
 20 121 l 1
 32 248 l 1
EndSplineSet
Validated: 19457
Layer: 2
SplineSet
158 248 m 1,0,-1
 239 129 l 1,1,-1
 227 1 l 1,2,-1
 146 121 l 1,3,-1
 158 248 l 1,0,-1
30 248 m 1,4,-1
 111 129 l 1,5,-1
 99 1 l 1,6,-1
 18 121 l 1,7,-1
 30 248 l 1,4,-1
EndSplineSet
Position2: "Advance neume with cinnabar mark-1" dx=200 dy=0 dh=0 dv=0
Colour: ffc259
EndChar

StartChar: uniEE89
Encoding: 61065 61065 103
Width: 215
VWidth: 999
GlyphClass: 2
Flags: W
HStem: 0 21G<64.0087 84>
VStem: 16 177
AnchorPoint: "Lomka" 540 150 basechar 0
AnchorPoint: "Tikhaya" 0 -30 basechar 0
AnchorPoint: "Borzaya" 0 150 basechar 0
AnchorPoint: "Zevok" 50 0 basechar 0
AnchorPoint: "Kachka" 50 660 basechar 0
AnchorPoint: "Kupnaya" 50 -50 basechar 0
AnchorPoint: "Auxiliary" 265 660 basechar 0
AnchorPoint: "Podvertka" 140 0 basechar 0
AnchorPoint: "Flexion" 395 640 basechar 0
AnchorPoint: "Podtinka" 0 -50 basechar 0
AnchorPoint: "TonalRange" 415 660 basechar 0
AnchorPoint: "Tochka" 225 325 basechar 0
AnchorPoint: "Zaderzhka" 30 -120 basechar 0
AnchorPoint: "Omet" 205 500 basechar 0
AnchorPoint: "Podchashie" 76 0 basechar 0
AnchorPoint: "PitchMark" -40 500 basechar 0
LayerCount: 3
Fore
SplineSet
28 271 m 2
 32 304 71 338 98 355 c 1
 111 488 l 1
 133 496 l 1
 120 366 l 1
 142 375 162 381 179 382 c 2
 193 383 l 1
 183 259 l 1
 177 260 167.877 262.711 156 261 c 0
 136.333 258.167 129 255 108 244 c 1
 84 5 l 1
 62 0 l 1
 85 229 l 1
 65 214 28 169 16 145 c 1
 28 271 l 2
EndSplineSet
Validated: 3073
Layer: 2
SplineSet
28 271 m 2,0,1
 30 289 30 289 49.5 313 c 128,-1,2
 69 337 69 337 98 355 c 1,3,-1
 111 488 l 1,4,-1
 133 496 l 1,5,-1
 120 366 l 1,6,7
 153 380 153 380 179 382 c 2,8,-1
 193 383 l 1,9,-1
 183 259 l 1,10,11
 174 261 174 261 156.5 261 c 128,-1,12
 139 261 139 261 108 244 c 1,13,-1
 84 5 l 1,14,-1
 62 -1 l 1,15,-1
 85 229 l 1,16,17
 70 218 70 218 48 192 c 128,-1,18
 26 166 26 166 16 145 c 1,19,-1
 28 271 l 2,0,1
EndSplineSet
Position2: "Advance neume with cinnabar mark-1" dx=200 dy=0 dh=0 dv=0
Colour: ffc259
EndChar

StartChar: uniEE71
Encoding: 61041 61041 104
Width: 625
GlyphClass: 2
Flags: W
HStem: 0 20G<32.0417 47.0833 280.024 300> 451 125<478.289 544.923>
AnchorPoint: "Lomka" -340 150 basechar 0
AnchorPoint: "Tikhaya" 0 370 basechar 0
AnchorPoint: "Borzaya" 0 150 basechar 0
AnchorPoint: "Zevok" 630 350 basechar 0
AnchorPoint: "Kachka" 50 660 basechar 0
AnchorPoint: "Kupnaya" 50 -50 basechar 0
AnchorPoint: "Auxiliary" 265 660 basechar 0
AnchorPoint: "Podvertka" 630 380 basechar 0
AnchorPoint: "Flexion" 395 640 basechar 0
AnchorPoint: "Podtinka" 0 -50 basechar 0
AnchorPoint: "TonalRange" 415 660 basechar 0
AnchorPoint: "Zaderzhka" 630 460 basechar 0
AnchorPoint: "Omet" 485 300 basechar 0
AnchorPoint: "Tochka" 485 325 basechar 0
AnchorPoint: "Podchashie" 352 1 basechar 0
AnchorPoint: "PitchMark" 0 500 basechar 0
LayerCount: 3
Fore
SplineSet
519 576 m 0
 544 576 588 521 588 494 c 2
 588 494 588 493 588 492 c 2
 575 374 l 1
 569 402 553 426 526 447 c 0
 523 450 518 451 513 451 c 0
 497 451 469 436 430 407 c 0
 401.382 385.789 368.797 358.117 332.282 324.022 c 1
 300 5 l 1
 278 -1 l 1
 308.616 301.555 l 1
 241.473 236.814 162.198 152.226 71 48 c 1
 30 0 l 1
 79 480 l 1
 105 496 l 1
 70 162 l 1
 168 283 280 395 406 498 c 1
 468 550 506 576 519 576 c 0
EndSplineSet
Validated: 19457
Layer: 2
SplineSet
519 576 m 132,-1,1
 538 576 538 576 566 545 c 132,-1,2
 594 514 594 514 593 492 c 5,3,-1
 575 374 l 5,4,5
 566 416 566 416 526 447 c 4,6,7
 520.596 451.117 520.596 451.117 512.475 451.117 c 4,8,9
 489.036 451.117 489.036 451.117 434.979 410.88 c 132,-1,10
 380.923 370.643 380.923 370.643 326.72 319.163 c 5,11,-1
 332 321 l 5,12,-1
 300 5 l 5,13,-1
 278 -1 l 5,14,-1
 307.799 300.835 l 5,15,16
 195.293 190.049 195.293 190.049 71 48 c 5,17,-1
 30 0 l 5,18,-1
 79 480 l 5,19,-1
 105 496 l 5,20,-1
 70 162 l 5,21,22
 216.536 343.529 216.536 343.529 405.5 498.5 c 4,23,0
 500 576 500 576 519 576 c 132,-1,1
EndSplineSet
Position2: "Advance neume with cinnabar mark-1" dx=200 dy=0 dh=0 dv=0
Colour: ffc259
EndChar

StartChar: uniEE72
Encoding: 61042 61042 105
Width: 625
VWidth: 999
GlyphClass: 2
Flags: W
HStem: 0 21G<32.0168 47.5> 451 125<478.289 545.144>
AnchorPoint: "Lomka" 540 150 basechar 0
AnchorPoint: "Tikhaya" 0 370 basechar 0
AnchorPoint: "Borzaya" 0 150 basechar 0
AnchorPoint: "Zevok" 630 350 basechar 0
AnchorPoint: "Kachka" 50 660 basechar 0
AnchorPoint: "Kupnaya" 50 -50 basechar 0
AnchorPoint: "Auxiliary" 265 660 basechar 0
AnchorPoint: "Podvertka" 630 380 basechar 0
AnchorPoint: "Flexion" 395 640 basechar 0
AnchorPoint: "Podtinka" 0 -50 basechar 0
AnchorPoint: "TonalRange" 415 660 basechar 0
AnchorPoint: "Zaderzhka" 630 460 basechar 0
AnchorPoint: "Omet" 485 300 basechar 0
AnchorPoint: "Tochka" 485 325 basechar 0
AnchorPoint: "Podchashie" 378 245 basechar 0
AnchorPoint: "PitchMark" 0 500 basechar 0
LayerCount: 3
Fore
SplineSet
519 576 m 0
 545 576 588 520 588 493 c 0
 588 492 l 2
 575 374 l 1
 569 402 553 426 526 447 c 0
 523 450 518 451 513 451 c 0
 497 451 469 436 430 407 c 0
 391 378 352 344 312 306 c 0
 227 221 147 136 72 48 c 1
 30 0 l 1
 54 238 l 1
 32 225 16 208 7 188 c 1
 18 290 l 1
 26 314 45 331 65 340 c 1
 79 480 l 1
 81 481 l 1
 93 510 131 542 158 555 c 2
 176 564 l 1
 166 456 l 1
 162 456 153 453 138 447 c 0
 124 441 109 430 96 413 c 1
 70 162 l 1
 168 283 280 395 406 498 c 0
 468 550 506 576 519 576 c 0
EndSplineSet
Validated: 3073
Layer: 2
SplineSet
527 576 m 132,-1,1
 546 576 546 576 571.5 545 c 132,-1,2
 597 514 597 514 596 492 c 5,3,-1
 583 374 l 5,4,5
 574 416 574 416 534 447 c 4,6,7
 528.87 450.908 528.87 450.908 521.025 450.908 c 4,8,9
 496.756 450.908 496.756 450.908 438.378 407.454 c 132,-1,10
 380 364 380 364 320.5 305.5 c 4,11,12
 192.201 179.357 192.201 179.357 80 48 c 5,13,-1
 38 0 l 5,14,-1
 62.3291 238.326 l 5,15,16
 29.247 217.789 29.247 217.789 15 188 c 5,17,-1
 26 290 l 5,18,19
 33 312 33 312 47.6987 323.673 c 132,-1,20
 62.3975 335.346 62.3975 335.346 72.668 339.606 c 5,21,-1
 87 480 l 5,22,-1
 89.1602 481.383 l 5,23,24
 99.1914 505.163 99.1914 505.163 123 525.5 c 132,-1,25
 147 546 147 546 166 555 c 6,26,-1
 184 564 l 5,27,-1
 174 456 l 5,28,29
 167.727 456 167.727 456 146.084 446.843 c 132,-1,30
 124.44 437.686 124.44 437.686 103.569 413.178 c 5,31,-1
 78 162 l 5,32,33
 224.536 343.529 224.536 343.529 413.5 498.5 c 4,34,0
 508 576 508 576 527 576 c 132,-1,1
EndSplineSet
Position2: "Advance neume with cinnabar mark-1" dx=200 dy=0 dh=0 dv=0
Colour: ffc259
EndChar

StartChar: uniEE84
Encoding: 61060 61060 106
Width: 625
VWidth: 0
GlyphClass: 2
Flags: W
HStem: 0 21G<31.8692 33 228.89 242.5> 451 125<479.474 545.206>
AnchorPoint: "Lomka" 540 150 basechar 0
AnchorPoint: "Tikhaya" 0 370 basechar 0
AnchorPoint: "Borzaya" 0 150 basechar 0
AnchorPoint: "Zevok" 630 350 basechar 0
AnchorPoint: "Kachka" 50 660 basechar 0
AnchorPoint: "Kupnaya" 50 -50 basechar 0
AnchorPoint: "Auxiliary" 265 660 basechar 0
AnchorPoint: "Podvertka" 630 380 basechar 0
AnchorPoint: "Flexion" 395 640 basechar 0
AnchorPoint: "Podtinka" 0 -50 basechar 0
AnchorPoint: "TonalRange" 415 660 basechar 0
AnchorPoint: "Zaderzhka" 630 460 basechar 0
AnchorPoint: "Omet" 515 300 basechar 0
AnchorPoint: "Tochka" 515 325 basechar 0
AnchorPoint: "Podchashie" 370 70 basechar 0
AnchorPoint: "PitchMark" 0 500 basechar 0
LayerCount: 3
Fore
SplineSet
519 576 m 0
 532 576 546 566 564 545 c 0
 581 525 588 508 588 494 c 0
 588 493 588 493 588 492 c 1
 575 374 l 1
 569 402 553 426 526 447 c 0
 523 450 518 451 513 451 c 0
 512 451 l 0
 495 451 470 439 438 414 c 0
 394 381 347 340 296 290 c 0
 245 240 190 182 130 116 c 0
 70 50 36 11 30 0 c 1
 40 107 l 1
 48 122 75 157 120 212 c 0
 218 332 282 396 406 498 c 0
 469 550 506 576 519 576 c 0
239 127.6 m 1
 260 188.6 323 196.6 323 196.6 c 1
 313 72.5996 l 1
 313 72.5996 258 63.5996 227 0.599609 c 1
 239 127.6 l 1
369 246.6 m 1
 390 307.6 453 315.6 453 315.6 c 1
 443 191.6 l 1
 443 191.6 388 182.6 357 119.6 c 1
 369 246.6 l 1
EndSplineSet
Validated: 3073
Layer: 2
SplineSet
394 269 m 1,0,1
 403 296 403 296 424 313.5 c 128,-1,2
 445 331 445 331 462 335 c 2,3,-1
 478 339 l 1,4,-1
 468 215 l 1,5,6
 462 214 462 214 452 211 c 128,-1,7
 442 208 442 208 419 189.5 c 128,-1,8
 396 171 396 171 382 143 c 1,9,-1
 394 269 l 1,0,1
264 150 m 1,10,11
 273 177 273 177 294 194.5 c 128,-1,12
 315 212 315 212 332 216 c 2,13,-1
 348 220 l 1,14,-1
 338 96 l 1,15,16
 332 95 332 95 322 92 c 128,-1,17
 312 89 312 89 289 70.5 c 128,-1,18
 266 52 266 52 252 24 c 1,19,-1
 264 150 l 1,10,11
504 576 m 128,-1,21
 523 576 523 576 551 545 c 128,-1,22
 579 514 579 514 578 492 c 1,23,-1
 560 374 l 1,24,25
 551 416 551 416 511 447 c 0,26,27
 506 451 506 451 498 451 c 0,28,29
 474 451 474 451 415 407 c 0,30,31
 286 311 286 311 56 48 c 1,32,-1
 15 0 l 1,33,-1
 27 123 l 1,34,35
 145 268 145 268 220.5 344.5 c 128,-1,36
 296 421 296 421 390.5 498.5 c 128,-1,20
 485 576 485 576 504 576 c 128,-1,21
EndSplineSet
Position2: "Advance neume with cinnabar mark-1" dx=200 dy=0 dh=0 dv=0
Colour: ffc259
EndChar

StartChar: uniEE8C
Encoding: 61068 61068 107
Width: 752
GlyphClass: 2
Flags: W
HStem: -4 47<153.416 216.758> 3 73<578 635.7> 322 81<483.486 609.356> 329 75<150.465 265.879>
VStem: 20 71<115.362 264.116> 668 64<109.396 265.284>
AnchorPoint: "Lomka" 540 150 basechar 0
AnchorPoint: "Tikhaya" 0 -30 basechar 0
AnchorPoint: "Borzaya" 0 150 basechar 0
AnchorPoint: "Zevok" 50 0 basechar 0
AnchorPoint: "Kachka" 50 660 basechar 0
AnchorPoint: "Kupnaya" 50 -50 basechar 0
AnchorPoint: "Auxiliary" 265 660 basechar 0
AnchorPoint: "Podvertka" 200 0 basechar 0
AnchorPoint: "Flexion" 395 640 basechar 0
AnchorPoint: "Podtinka" 0 -50 basechar 0
AnchorPoint: "TonalRange" 415 660 basechar 0
AnchorPoint: "Tochka" 760 325 basechar 0
AnchorPoint: "Zaderzhka" 30 -120 basechar 0
AnchorPoint: "Omet" 205 500 basechar 0
AnchorPoint: "Podchashie" 400 0 basechar 0
AnchorPoint: "PitchMark" 0 500 basechar 0
LayerCount: 3
Fore
SplineSet
389 286 m 1x9c
 422 338 483 403 559 403 c 0
 614 403 656 383 686 342 c 0
 716 301 732 254 732 202 c 0
 732 150 714 104 679 64 c 0
 644 24 608 3 571 3 c 1
 578 76 l 1
 595 76 612 80 630 88 c 0
 662 103 668 140 668 184 c 0
 668 247 641 290 586 313 c 0
 572 319 556 322 537 322 c 0x6c
 519 322 497 315 472 300 c 0
 432 276 397 237 368 184 c 1
 352 219 298 295 250 316 c 0
 231 324 218 329 208 329 c 0
 198 329 190 328 183 326 c 0
 150 313 124 289 107 253 c 0
 96 231 91 211 91 194 c 0
 91 177 93 163 97 151 c 0
 113 102 153 43 210 43 c 0
 220 43 227 46 230 35 c 0
 232 29 230 24 224 21 c 0
 205 11 156 -4 130 -4 c 0
 83 -4 47 57 34 98 c 0
 25 127 20 150 20 168 c 0
 20 268 51 337 114 376 c 0
 143 395 172 404 201 404 c 0
 278 404 341 365 389 286 c 1x9c
EndSplineSet
Validated: 3073
Layer: 2
SplineSet
380 184 m 1,0,1
 363 222 363 222 314 277 c 0,2,3
 290 304 290 304 262 316.5 c 128,-1,4
 234 329 234 329 219.5 329 c 128,-1,5
 205 329 205 329 195 326 c 0,6,7
 145 307 145 307 119 253 c 0,8,9
 103 220 103 220 103 194.5 c 128,-1,10
 103 169 103 169 109 151 c 0,11,12
 125 103 125 103 156.5 73 c 128,-1,13
 188 43 188 43 222 43 c 0,14,15
 226 43 226 43 233 43.5 c 128,-1,16
 240 44 240 44 242.5 35 c 128,-1,17
 245 26 245 26 236 21 c 0,18,19
 216 11 216 11 186.5 3.5 c 128,-1,20
 157 -4 157 -4 142 -4 c 0,21,22
 115 -4 115 -4 87.5 25.5 c 128,-1,23
 60 55 60 55 46 98 c 128,-1,24
 32 141 32 141 32 168 c 0,25,26
 32 318 32 318 126 376 c 0,27,28
 170 404 170 404 213 404 c 0,29,30
 329 404 329 404 401 286 c 1,31,32
 432 335 432 335 477.5 369 c 128,-1,33
 523 403 523 403 571 403 c 0,34,35
 653 403 653 403 698.5 341.5 c 128,-1,36
 744 280 744 280 744 202 c 128,-1,37
 744 124 744 124 691 63.5 c 128,-1,38
 638 3 638 3 583 3 c 1,39,-1
 590 76 l 1,40,41
 615 76 615 76 641.5 88.5 c 128,-1,42
 668 101 668 101 674 128.5 c 128,-1,43
 680 156 680 156 680 184 c 0,44,45
 680 278 680 278 598 313 c 0,46,47
 577 322 577 322 549 322 c 0,48,49
 522 322 522 322 484 300 c 0,50,51
 424 264 424 264 380 184 c 1,0,1
EndSplineSet
Position2: "Advance neume with cinnabar mark-1" dx=200 dy=0 dh=0 dv=0
Colour: ffc259
EndChar

StartChar: uniEE8E
Encoding: 61070 61070 108
Width: 440
VWidth: 0
GlyphClass: 2
Flags: W
HStem: 454 21G<302.5 307.5> 545 117<210.931 296.442>
VStem: 183 19<492.423 522.491> 298 27<462.636 537.411>
AnchorPoint: "Lomka" 540 150 basechar 0
AnchorPoint: "Tikhaya" 0 200 basechar 0
AnchorPoint: "Borzaya" 0 150 basechar 0
AnchorPoint: "Zevok" 50 0 basechar 0
AnchorPoint: "Kachka" 50 660 basechar 0
AnchorPoint: "Kupnaya" 50 -50 basechar 0
AnchorPoint: "Auxiliary" 100 660 basechar 0
AnchorPoint: "Podvertka" 460 -30 basechar 0
AnchorPoint: "Flexion" 395 640 basechar 0
AnchorPoint: "Podtinka" 0 -100 basechar 0
AnchorPoint: "TonalRange" 415 660 basechar 0
AnchorPoint: "Tochka" 450 325 basechar 0
AnchorPoint: "Zaderzhka" 30 -120 basechar 0
AnchorPoint: "Omet" 205 500 basechar 0
AnchorPoint: "Podchashie" 160 -30 basechar 0
AnchorPoint: "PitchMark" 0 500 basechar 0
LayerCount: 3
Fore
SplineSet
261 662 m 2
 314 662 325 611 325 548 c 0
 325 525 322 496 315 461 c 0
 314 456 310 454 305 454 c 0
 300 454 298 459 298 466 c 0
 298 475 301 488 301 495 c 0
 301 498 301 498 301 501 c 0
 301 528 288 542 261 545 c 1
 255 545 l 2
 226 545 209 531 202 503 c 0
 201 497 195 492 190 492 c 0
 186 492 183 495 183 503 c 0
 185 587 192 662 260 662 c 2
 261 662 l 2
294 160 m 1
 415 79 l 1
 406 -46 l 1
 285 35 l 1
 294 160 l 1
270 400 m 1
 391 319 l 1
 382 194 l 1
 261 275 l 1
 270 400 l 1
106 343 m 1
 112 361 124 377 142 390 c 0
 160 403 177 412 192 416 c 2
 215 423 l 1
 205 299 l 1
 152 282 117 263 94 217 c 1
 106 343 l 1
42 87 m 1
 48 105 60 121 78 134 c 0
 96 147 113 156 128 160 c 2
 151 167 l 1
 141 43 l 1
 88 26 53 7 30 -39 c 1
 42 87 l 1
EndSplineSet
Validated: 3073
Layer: 2
SplineSet
299 495 m 0,0,1
 299 498 299 498 299 501 c 0,2,3
 299 541 299 541 259 545 c 1,4,-1
 253 545 l 2,5,6
 210 545 210 545 200 503 c 0,7,8
 199 496 199 496 194 493.5 c 128,-1,9
 189 491 189 491 185 493.5 c 128,-1,10
 181 496 181 496 181 503 c 0,11,12
 183 575 183 575 192 604 c 0,13,14
 208 664 208 664 258 664 c 0,15,16
 259 664 l 0,17,18
 308 664 308 664 319 606 c 0,19,20
 323 583 323 583 323 548.5 c 128,-1,21
 323 514 323 514 313 461 c 0,22,23
 311 454 311 454 303 454 c 0,24,25
 301 454 301 454 297.5 456.5 c 128,-1,26
 294 459 294 459 296.5 470 c 128,-1,27
 299 481 299 481 299 495 c 0,0,1
292 160 m 1,28,-1
 413 79 l 1,29,-1
 404 -46 l 1,30,-1
 283 35 l 1,31,-1
 292 160 l 1,28,-1
268 400 m 1,32,-1
 389 319 l 1,33,-1
 380 194 l 1,34,-1
 259 275 l 1,35,-1
 268 400 l 1,32,-1
104 343 m 1,36,37
 113 370 113 370 140.5 390 c 128,-1,38
 168 410 168 410 190 416 c 2,39,-1
 213 423 l 1,40,-1
 203 299 l 1,41,42
 163 286 163 286 136 268.5 c 128,-1,43
 109 251 109 251 92 217 c 1,44,-1
 104 343 l 1,36,37
40 87 m 1,45,46
 49 114 49 114 76.5 134 c 128,-1,47
 104 154 104 154 126 160 c 2,48,-1
 149 167 l 1,49,-1
 139 43 l 1,50,51
 99 30 99 30 72 12.5 c 128,-1,52
 45 -5 45 -5 28 -39 c 1,53,-1
 40 87 l 1,45,46
EndSplineSet
LCarets2: 1 229 
Position2: "Advance neume with cinnabar mark-1" dx=200 dy=0 dh=0 dv=0
Colour: ffc259
EndChar

StartChar: uniEE8F
Encoding: 61071 61071 109
Width: 240
VWidth: 999
GlyphClass: 2
Flags: W
VStem: 30 185
AnchorPoint: "Lomka" 540 150 basechar 0
AnchorPoint: "Tikhaya" 0 200 basechar 0
AnchorPoint: "Borzaya" 0 150 basechar 0
AnchorPoint: "Zevok" 270 500 basechar 0
AnchorPoint: "Kachka" 50 660 basechar 0
AnchorPoint: "Kupnaya" 50 -50 basechar 0
AnchorPoint: "Auxiliary" 180 670 basechar 0
AnchorPoint: "Podvertka" 220 0 basechar 0
AnchorPoint: "Flexion" 395 640 basechar 0
AnchorPoint: "Podtinka" 0 -100 basechar 0
AnchorPoint: "TonalRange" 415 660 basechar 0
AnchorPoint: "Tochka" 250 325 basechar 0
AnchorPoint: "Zaderzhka" 30 -120 basechar 0
AnchorPoint: "Omet" 205 500 basechar 0
AnchorPoint: "Podchashie" 190 0 basechar 0
AnchorPoint: "PitchMark" 0 500 basechar 0
LayerCount: 3
Fore
SplineSet
106 343 m 1
 112 361 124 377 142 390 c 0
 160 403 177 412 192 416 c 2
 215 423 l 1
 205 299 l 1
 183 292 167 286 142 270 c 0
 122 257 105 240 94 217 c 1
 106 343 l 1
42 87 m 1
 48 105 60 121 78 134 c 0
 96 147 113 156 128 160 c 2
 151 167 l 1
 141 43 l 1
 119 36 103 30 78 14 c 0
 58 1 41 -16 30 -39 c 1
 42 87 l 1
EndSplineSet
Validated: 3073
Layer: 2
SplineSet
86 343 m 1,0,1
 95 370 95 370 122.5 390 c 128,-1,2
 150 410 150 410 172 416 c 2,3,-1
 195 423 l 1,4,-1
 185 299 l 1,5,6
 182 298 182 298 176 296 c 0,7,8
 152 290 152 290 121.5 270.5 c 128,-1,9
 91 251 91 251 74 217 c 1,10,-1
 86 343 l 1,0,1
22 87 m 1,11,12
 31 114 31 114 58.5 134 c 128,-1,13
 86 154 86 154 108 160 c 2,14,-1
 131 167 l 1,15,-1
 121 43 l 1,16,17
 118 42 118 42 112 40 c 0,18,19
 88 34 88 34 57.5 14.5 c 128,-1,20
 27 -5 27 -5 10 -39 c 1,21,-1
 22 87 l 1,11,12
EndSplineSet
Position2: "Advance neume with cinnabar mark-1" dx=200 dy=0 dh=0 dv=0
Colour: ffc259
EndChar

StartChar: uniEE8D
Encoding: 61069 61069 110
Width: 200
VWidth: 999
GlyphClass: 2
Flags: W
VStem: 23 154
AnchorPoint: "Lomka" 540 150 basechar 0
AnchorPoint: "Tikhaya" 0 200 basechar 0
AnchorPoint: "Zaderzhka" 220 180 basechar 0
AnchorPoint: "Borzaya" 0 150 basechar 0
AnchorPoint: "Zevok" 50 0 basechar 0
AnchorPoint: "Kachka" 50 660 basechar 0
AnchorPoint: "Kupnaya" 50 -50 basechar 0
AnchorPoint: "Auxiliary" 265 660 basechar 0
AnchorPoint: "Podvertka" 225 0 basechar 0
AnchorPoint: "Flexion" 395 640 basechar 0
AnchorPoint: "Podtinka" 0 -50 basechar 0
AnchorPoint: "TonalRange" 415 660 basechar 0
AnchorPoint: "Tochka" 210 325 basechar 0
AnchorPoint: "Omet" 205 500 basechar 0
AnchorPoint: "PitchMark" -40 500 basechar 0
LayerCount: 3
Fore
SplineSet
32 552 m 1
 177 455 l 1
 168 346 l 1
 23 443 l 1
 32 552 l 1
32 184 m 1
 177 87 l 1
 168 -22 l 1
 23 75 l 1
 32 184 l 1
32 368 m 1
 177 271 l 1
 168 162 l 1
 23 259 l 1
 32 368 l 1
EndSplineSet
Validated: 3073
Layer: 2
SplineSet
49 552 m 1,0,-1
 194 455 l 1,1,-1
 185 346 l 1,2,-1
 40 443 l 1,3,-1
 49 552 l 1,0,-1
49 184 m 1,4,-1
 194 87 l 1,5,-1
 185 -22 l 1,6,-1
 40 75 l 1,7,-1
 49 184 l 1,4,-1
49 368 m 1,8,-1
 194 271 l 1,9,-1
 185 162 l 1,10,-1
 40 259 l 1,11,-1
 49 368 l 1,8,-1
EndSplineSet
Position2: "Advance neume with cinnabar mark-1" dx=200 dy=0 dh=0 dv=0
Colour: ffc259
EndChar

StartChar: uniEE8A
Encoding: 61066 61066 111
Width: 240
VWidth: 999
GlyphClass: 2
Flags: W
HStem: -4 112<124.008 169.548>
VStem: 68 49<48.5 209.314> 117 52<367.678 508> 117 36<360.356 425.472>
AnchorPoint: "Lomka" 540 150 basechar 0
AnchorPoint: "Tikhaya" 0 -30 basechar 0
AnchorPoint: "Borzaya" 0 150 basechar 0
AnchorPoint: "Zevok" 50 0 basechar 0
AnchorPoint: "Kachka" 50 660 basechar 0
AnchorPoint: "Kupnaya" 50 -50 basechar 0
AnchorPoint: "Auxiliary" 265 660 basechar 0
AnchorPoint: "Podvertka" 200 0 basechar 0
AnchorPoint: "Flexion" 395 640 basechar 0
AnchorPoint: "Podtinka" 0 -50 basechar 0
AnchorPoint: "TonalRange" 415 660 basechar 0
AnchorPoint: "Tochka" 250 325 basechar 0
AnchorPoint: "Zaderzhka" 30 -120 basechar 0
AnchorPoint: "Omet" 205 500 basechar 0
AnchorPoint: "Podchashie" 100 -30 basechar 0
AnchorPoint: "PitchMark" -40 500 basechar 0
LayerCount: 3
Fore
SplineSet
120 553 m 0xa0
 156 546 169 526 169 490 c 0xa0
 169 461 164 418 153 360 c 1x90
 158 361 162 362 167 363 c 2
 199 369 l 1
 189 245 l 1
 164 241 144 236 128 230 c 1
 123 204 117 191 117 167 c 0
 117 131 128 108 156 108 c 0
 164 108 174 113 184 123 c 0
 194 133 203 148 212 169 c 0
 215 177 227 182 224 170 c 0
 216 136 209 94 197 64 c 0
 194 58 190 51 186 42 c 0
 177 24 155 -4 132 -4 c 0
 78 -4 68 20 68 77 c 0xc0
 68 102 75 147 88 211 c 1
 64 198 48 182 39 165 c 1
 51 291 l 1
 58 312 79 330 115 346 c 1
 116 357 117 366 117 375 c 0
 117 414 105 433 74 433 c 0
 53 433 36 418 24 389 c 0
 21 383 18 380 14 380 c 0
 13 380 12 383 12 388 c 0
 12 393 17 411 26 441 c 0
 43 497 43 496 69 532 c 0
 79 546 93 553 110 553 c 0
 115 553 115 553 120 553 c 0xa0
EndSplineSet
Validated: 3073
Layer: 2
SplineSet
117 167 m 0,0,1
 117 117 117 117 146 109 c 0,2,3
 155 108 155 108 156 108 c 0,4,5
 168 108 168 108 183.5 123 c 128,-1,6
 199 138 199 138 212 169 c 0,7,8
 216 178 216 178 222 177 c 0,9,10
 226 176 226 176 224.5 170 c 128,-1,11
 223 164 223 164 219 146 c 128,-1,12
 215 128 215 128 212.5 118.5 c 128,-1,13
 210 109 210 109 205.5 91.5 c 128,-1,14
 201 74 201 74 197 64.5 c 0,15,16
 192 56 192 56 186 42 c 0,17,18
 176 22 176 22 160 9 c 128,-1,19
 144 -4 144 -4 132 -4 c 0,20,21
 86 -4 86 -4 74 25 c 0,22,23
 68 39 68 39 68 77 c 128,-1,24
 68 115 68 115 88 211 c 1,25,26
 52 191 52 191 39 165 c 1,27,-1
 51 291 l 1,28,29
 61 322 61 322 115 346 c 1,30,31
 117 362 117 362 117 375 c 0,32,33
 117 423 117 423 90 431 c 1,34,35
 77 433 77 433 74 433 c 0,36,37
 42 433 42 433 24 389 c 0,38,39
 20 380 20 380 14 380 c 0,40,41
 12 380 12 380 12 388 c 128,-1,42
 12 396 12 396 25.5 441 c 128,-1,43
 39 486 39 486 46.5 499 c 128,-1,44
 54 512 54 512 69 532.5 c 128,-1,45
 84 553 84 553 110 553 c 0,46,47
 115 553 115 553 120 553 c 0,48,49
 153 547 153 547 161 527.5 c 128,-1,50
 169 508 169 508 169 490 c 0,51,52
 169 447 169 447 153 360 c 1,53,54
 160 362 160 362 167 363 c 2,55,-1
 199 369 l 1,56,-1
 189 245 l 1,57,58
 152 239 152 239 128 230 c 1,59,60
 123 205 123 205 120 191.5 c 128,-1,61
 117 178 117 178 117 167 c 0,0,1
EndSplineSet
Position2: "Advance neume with cinnabar mark-1" dx=200 dy=0 dh=0 dv=0
Colour: ffc259
EndChar

StartChar: uniEE8B
Encoding: 61067 61067 112
Width: 230
VWidth: 999
GlyphClass: 2
Flags: W
VStem: 31 40<290 399.582> 155 40<118.412 215>
AnchorPoint: "Lomka" 540 150 basechar 0
AnchorPoint: "Tikhaya" 0 -30 basechar 0
AnchorPoint: "Borzaya" 0 150 basechar 0
AnchorPoint: "Zevok" 50 0 basechar 0
AnchorPoint: "Kachka" 50 660 basechar 0
AnchorPoint: "Kupnaya" 50 -50 basechar 0
AnchorPoint: "Auxiliary" 265 660 basechar 0
AnchorPoint: "Podvertka" 200 0 basechar 0
AnchorPoint: "Flexion" 395 640 basechar 0
AnchorPoint: "Podtinka" 0 -50 basechar 0
AnchorPoint: "TonalRange" 415 660 basechar 0
AnchorPoint: "Tochka" 240 325 basechar 0
AnchorPoint: "Zaderzhka" 30 -120 basechar 0
AnchorPoint: "Omet" 205 500 basechar 0
AnchorPoint: "Podchashie" 100 -30 basechar 0
AnchorPoint: "PitchMark" -40 500 basechar 0
LayerCount: 3
Fore
SplineSet
113 540 m 0
 115 540 122 530 134 508 c 0
 146 486 160 452 174 405 c 0
 188 358 195 310 195 260 c 0
 195 210 188 161 174 114 c 0
 160 67 147 32 133 10 c 2
 113 -23 l 1
 111 -20 108 -15 104 -10 c 0
 87 17 70 53 54 100 c 0
 38 147 31 198 31 252 c 0
 31 306 38 357 52 404 c 0
 66 451 80 486 92 508 c 0
 104 530 111 540 113 540 c 0
83 196 m 1
 95 161 114 130 140 104 c 1
 150 125 155 162 155 215 c 1
 130 212 106 205 83 196 c 1
145 314 m 1
 134 349 114 382 86 413 c 1
 76 388 71 349 71 296 c 2
 71 290 l 1
 90 302 115 310 145 314 c 1
EndSplineSet
Validated: 3073
Layer: 2
SplineSet
113 540 m 128,-1,1
 116 540 116 540 134.5 507.5 c 128,-1,2
 153 475 153 475 174 405 c 128,-1,3
 195 335 195 335 195 260 c 128,-1,4
 195 185 195 185 174.5 114 c 128,-1,5
 154 43 154 43 133 10 c 2,6,-1
 113 -23 l 1,7,8
 110 -18 110 -18 104 -10 c 0,9,10
 78 30 78 30 54.5 100.5 c 128,-1,11
 31 171 31 171 31 252.5 c 128,-1,12
 31 334 31 334 52 404.5 c 128,-1,13
 73 475 73 475 91.5 507.5 c 128,-1,0
 110 540 110 540 113 540 c 128,-1,1
83 196 m 1,14,15
 101 143 101 143 140 104 c 1,16,17
 155 135 155 135 155 215 c 1,18,19
 118 210 118 210 83 196 c 1,14,15
145 314 m 1,20,21
 128 367 128 367 86 413 c 1,22,23
 71 376 71 376 71 296 c 2,24,-1
 71 290 l 1,25,26
 100 308 100 308 145 314 c 1,20,21
EndSplineSet
Position2: "Advance neume with cinnabar mark-1" dx=200 dy=0 dh=0 dv=0
Colour: ffc259
EndChar

StartChar: uniEE73
Encoding: 61043 61043 113
Width: 625
VWidth: 999
GlyphClass: 2
Flags: W
HStem: 0 21G<32.0417 47.0833> 451 125<478.289 544.923>
AnchorPoint: "Lomka" 540 150 basechar 0
AnchorPoint: "Tikhaya" 0 370 basechar 0
AnchorPoint: "Borzaya" 0 150 basechar 0
AnchorPoint: "Zevok" 630 350 basechar 0
AnchorPoint: "Kupnaya" 50 -50 basechar 0
AnchorPoint: "Kachka" 0 270 basechar 0
AnchorPoint: "Auxiliary" 265 660 basechar 0
AnchorPoint: "Podvertka" 630 380 basechar 0
AnchorPoint: "Flexion" 395 640 basechar 0
AnchorPoint: "Podtinka" 0 -50 basechar 0
AnchorPoint: "TonalRange" 415 660 basechar 0
AnchorPoint: "Zaderzhka" 630 460 basechar 0
AnchorPoint: "Omet" 485 300 basechar 0
AnchorPoint: "Tochka" 485 325 basechar 0
AnchorPoint: "Podchashie" 378 245 basechar 0
AnchorPoint: "PitchMark" 0 500 basechar 0
LayerCount: 3
Fore
SplineSet
519 576 m 0
 544 576 588 520 588 494 c 0
 588 493 588 493 588 492 c 2
 575 374 l 1
 569 402 553 426 526 447 c 0
 523 450 518 451 513 451 c 0
 497 451 469 436 430 407 c 0
 345 344 225 224 71 48 c 1
 30 0 l 1
 79 480 l 1
 105 496 l 1
 70 162 l 1
 111 213 164 272 231 339 c 1
 254 577 l 1
 277 585 l 1
 255 364 l 1
 271 380 289 397 308 415 c 1
 326 593 l 1
 349 601 l 1
 333 437 l 1
 355 457 379 477 406 498 c 0
 468 550 506 576 519 576 c 0
EndSplineSet
Validated: 3073
Layer: 2
SplineSet
521 576 m 132,-1,1
 540 576 540 576 568 545 c 132,-1,2
 596 514 596 514 595 492 c 5,3,-1
 577 374 l 5,4,5
 568 416 568 416 528 447 c 4,6,7
 522.87 450.908 522.87 450.908 515.025 450.908 c 4,8,9
 490.756 450.908 490.756 450.908 432.378 407.454 c 4,10,11
 303.736 311.698 303.736 311.698 73 48 c 5,12,-1
 32 0 l 5,13,-1
 81 480 l 5,14,-1
 107 496 l 5,15,-1
 72 162 l 5,16,17
 133.38 238.038 133.38 238.038 232.528 339.255 c 5,18,-1
 256 577 l 5,19,-1
 279 585 l 5,20,-1
 256.583 363.637 l 5,21,22
 281.009 388.139 281.009 388.139 310.25 414.789 c 5,23,-1
 328 593 l 5,24,-1
 351 601 l 5,25,-1
 334.771 436.769 l 5,26,27
 368.347 466.39 368.347 466.39 407.5 498.5 c 4,28,0
 502 576 502 576 521 576 c 132,-1,1
EndSplineSet
Position2: "Advance neume with cinnabar mark-1" dx=200 dy=0 dh=0 dv=0
Colour: ffc259
EndChar

StartChar: uniEE9B
Encoding: 61083 61083 114
Width: 790
VWidth: 999
GlyphClass: 2
Flags: W
HStem: 0 21G<196.869 198 446.024 466> 451 125<644.474 710.206>
AnchorPoint: "Lomka" -340 150 basechar 0
AnchorPoint: "Tikhaya" 0 100 basechar 0
AnchorPoint: "Borzaya" 0 150 basechar 0
AnchorPoint: "Zevok" 800 350 basechar 0
AnchorPoint: "Kachka" 50 660 basechar 0
AnchorPoint: "Kupnaya" 50 -50 basechar 0
AnchorPoint: "Auxiliary" 425 660 basechar 0
AnchorPoint: "Podvertka" 800 380 basechar 0
AnchorPoint: "Flexion" 555 640 basechar 0
AnchorPoint: "Podtinka" 0 -140 basechar 0
AnchorPoint: "TonalRange" 575 660 basechar 0
AnchorPoint: "Zaderzhka" 800 460 basechar 0
AnchorPoint: "Omet" 655 300 basechar 0
AnchorPoint: "Tochka" 655 325 basechar 0
AnchorPoint: "Podchashie" 543 245 basechar 0
AnchorPoint: "PitchMark" 0 500 basechar 0
LayerCount: 3
Fore
SplineSet
684 576 m 0
 697 576 711 566 729 545 c 0
 746 525 753 508 753 494 c 0
 753 493 753 493 753 492 c 2
 740 374 l 1
 734 402 718 426 691 447 c 0
 688 450 683 451 678 451 c 2
 677 451 l 2
 660 451 635 439 603 414 c 0
 569.95 389.212 535.207 359.911 498.348 325.672 c 1
 466 6 l 1
 444 0 l 1
 474.691 303.299 l 1
 470.159 298.938 465.596 294.506 461 290 c 0
 410 240 355 182 295 116 c 0
 235 50 201 11 195 0 c 1
 205 107 l 1
 213 122 240 157 285 212 c 0
 383 332 447 396 571 498 c 0
 634 550 671 576 684 576 c 0
42 -9 m 1
 63 52 151 71 151 71 c 1
 141 -53 l 1
 141 -53 61 -72 30 -135 c 1
 42 -9 l 1
106 247 m 1
 127 308 215 327 215 327 c 1
 205 203 l 1
 205 203 125 184 94 121 c 1
 106 247 l 1
EndSplineSet
Validated: 3073
Layer: 2
SplineSet
24 87 m 1,0,1
 33 114 33 114 60.5 134 c 128,-1,2
 88 154 88 154 110 160 c 2,3,-1
 133 167 l 1,4,-1
 123 43 l 1,5,6
 120 42 120 42 114 40 c 0,7,8
 90 34 90 34 59.5 14.5 c 128,-1,9
 29 -5 29 -5 12 -39 c 1,10,-1
 24 87 l 1,0,1
88 343 m 1,11,12
 97 370 97 370 124.5 390 c 128,-1,13
 152 410 152 410 174 416 c 2,14,-1
 197 423 l 1,15,-1
 187 299 l 1,16,17
 184 298 184 298 178 296 c 0,18,19
 154 290 154 290 123.5 270.5 c 128,-1,20
 93 251 93 251 76 217 c 1,21,-1
 88 343 l 1,11,12
667 672 m 128,-1,23
 686 672 686 672 712.5 641 c 128,-1,24
 739 610 739 610 738 588 c 1,25,-1
 723 470 l 1,26,27
 714 513 714 513 675 543 c 0,28,29
 670 547 670 547 661 547 c 0,30,31
 638 547 638 547 585.5 508 c 128,-1,32
 533 469 533 469 481 420 c 1,33,-1
 450 122 l 1,34,-1
 426 95 l 1,35,-1
 457 397 l 1,36,37
 368 310 368 310 277.5 211.5 c 128,-1,38
 187 113 187 113 178 96 c 1,39,-1
 189 203 l 1,40,41
 201 227 201 227 268 309 c 128,-1,42
 335 391 335 391 397 454 c 128,-1,43
 459 517 459 517 553.5 594.5 c 128,-1,22
 648 672 648 672 667 672 c 128,-1,23
EndSplineSet
Position2: "Advance neume with cinnabar mark-1" dx=200 dy=0 dh=0 dv=0
Colour: ffc259
EndChar

StartChar: uniEE9C
Encoding: 61084 61084 115
Width: 790
VWidth: 0
GlyphClass: 2
Flags: W
HStem: 0 21G<196.869 198> 451 125<644.474 710.206>
AnchorPoint: "Lomka" 705 150 basechar 0
AnchorPoint: "Tikhaya" 0 100 basechar 0
AnchorPoint: "Borzaya" 0 150 basechar 0
AnchorPoint: "Zevok" 800 350 basechar 0
AnchorPoint: "Kachka" 50 660 basechar 0
AnchorPoint: "Kupnaya" 50 -50 basechar 0
AnchorPoint: "Auxiliary" 425 660 basechar 0
AnchorPoint: "Podvertka" 800 380 basechar 0
AnchorPoint: "Flexion" 555 640 basechar 0
AnchorPoint: "Podtinka" 0 -140 basechar 0
AnchorPoint: "TonalRange" 575 660 basechar 0
AnchorPoint: "Zaderzhka" 800 460 basechar 0
AnchorPoint: "Omet" 655 300 basechar 0
AnchorPoint: "Tochka" 655 325 basechar 0
AnchorPoint: "Podchashie" 559 -89 basechar 0
AnchorPoint: "PitchMark" 0 500 basechar 0
LayerCount: 3
Fore
SplineSet
106 247 m 1
 127 308 215 327 215 327 c 1
 205 203 l 1
 205 203 125 184 94 121 c 1
 106 247 l 1
42 -9 m 1
 63 52 151 71 151 71 c 1
 141 -53 l 1
 141 -53 61 -72 30 -135 c 1
 42 -9 l 1
684 576 m 0
 697 576 711 566 729 545 c 0
 746 525 753 508 753 494 c 0
 753 493 753 493 753 492 c 1
 740 374 l 1
 734 402 718 426 691 447 c 0
 688 450 683 451 678 451 c 0
 677 451 l 0
 660 451 635 439 603 414 c 0
 559 381 512 340 461 290 c 0
 410 240 355 182 295 116 c 0
 235 50 201 11 195 0 c 1
 205 107 l 1
 213 122 240 157 285 212 c 0
 383 332 447 396 571 498 c 0
 634 550 671 576 684 576 c 0
513 47 m 1
 507 -17 499 -90 499 -90 c 1
 477 -96 l 1
 489 34 l 1
 469 22 451 5 440 -17 c 1
 452 110 l 1
 460 133 480 150 502 162 c 1
 510 243 l 1
 533 251 l 1
 529 208 529 218 525 174 c 1
 553 186 577 190 577 190 c 1
 567 66 l 1
 567 66 542 60 513 47 c 1
EndSplineSet
Validated: 3073
Layer: 2
SplineSet
666 672 m 132,-1,1
 685 672 685 672 711.5 641 c 132,-1,2
 738 610 738 610 737 588 c 5,3,-1
 722 470 l 5,4,5
 713 513 713 513 674 543 c 4,6,7
 669 547 669 547 661 547 c 4,8,9
 637 547 637 547 578.5 503.5 c 132,-1,10
 520 460 520 460 444 385.5 c 132,-1,11
 368 311 368 311 277 212 c 132,-1,12
 186 113 186 113 177 96 c 5,13,-1
 188 203 l 5,14,15
 200 227 200 227 267 309 c 132,-1,16
 334 391 334 391 396 454 c 132,-1,17
 458 517 458 517 552.5 594.5 c 132,-1,0
 647 672 647 672 666 672 c 132,-1,1
23 87 m 5,18,19
 32 114 32 114 59.5 134 c 132,-1,20
 87 154 87 154 109 160 c 6,21,-1
 132 167 l 5,22,23
 131 162 131 162 122 43 c 4,24,25
 120 42 120 42 114 40 c 4,26,27
 90 34 90 34 59 14.5 c 132,-1,28
 28 -5 28 -5 11 -39 c 5,29,-1
 23 87 l 5,18,19
87 343 m 5,30,31
 96 370 96 370 123.5 390 c 132,-1,32
 151 410 151 410 173 416 c 6,33,-1
 196 423 l 5,34,-1
 186 299 l 5,35,36
 184 298 184 298 178 296 c 4,37,38
 154 290 154 290 123 270.5 c 132,-1,39
 92 251 92 251 75 217 c 5,40,-1
 87 343 l 5,30,31
495 143 m 5,41,-1
 481 6 l 5,42,-1
 459 0 l 5,43,-1
 471 130 l 5,44,45
 437 110 437 110 422 79 c 5,46,-1
 434 206 l 5,47,48
 445 237 445 237 484 258 c 5,49,-1
 492 339 l 5,50,-1
 515 347 l 5,51,52
 513 326 513 326 511 309.5 c 132,-1,53
 509 293 509 293 507 270 c 5,54,55
 535 282 535 282 552 284 c 5,56,-1
 559 286 l 5,57,-1
 549 162 l 5,58,59
 524 156 524 156 495 143 c 5,41,-1
EndSplineSet
Position2: "Advance neume with cinnabar mark-1" dx=200 dy=0 dh=0 dv=0
Colour: ffc259
EndChar

StartChar: uniEE91
Encoding: 61073 61073 116
Width: 365
VWidth: 999
GlyphClass: 2
Flags: W
HStem: 0 21G<240 260>
VStem: 30 309
AnchorPoint: "Lomka" 540 150 basechar 0
AnchorPoint: "Tikhaya" 0 200 basechar 0
AnchorPoint: "Borzaya" 0 150 basechar 0
AnchorPoint: "Zevok" 140 0 basechar 0
AnchorPoint: "Kachka" 50 660 basechar 0
AnchorPoint: "Kupnaya" 50 -50 basechar 0
AnchorPoint: "Podchashie" 190 0 basechar 0
AnchorPoint: "Auxiliary" 180 670 basechar 0
AnchorPoint: "Podvertka" 220 0 basechar 0
AnchorPoint: "Flexion" 395 640 basechar 0
AnchorPoint: "Podtinka" 0 -100 basechar 0
AnchorPoint: "TonalRange" 415 660 basechar 0
AnchorPoint: "Tochka" 375 325 basechar 0
AnchorPoint: "Zaderzhka" 30 -120 basechar 0
AnchorPoint: "Omet" 205 500 basechar 0
AnchorPoint: "PitchMark" 0 500 basechar 0
LayerCount: 3
Fore
SplineSet
106 343 m 1
 127 404 215 423 215 423 c 1
 205 299 l 1
 205 299 125 280 94 217 c 1
 106 343 l 1
42 87 m 1
 63 148 151 167 151 167 c 1
 141 43 l 1
 141 43 61 24 30 -39 c 1
 42 87 l 1
274 143 m 1
 268 79 260 6 260 6 c 1
 238 0 l 1
 251 130 l 1
 231 118 212 101 201 79 c 1
 213 206 l 1
 221 229 241 246 263 258 c 1
 271 339 l 1
 294 347 l 1
 290 304 290 314 286 270 c 1
 314 282 339 286 339 286 c 1
 328 162 l 1
 328 162 303 156 274 143 c 1
EndSplineSet
Validated: 3073
Layer: 2
SplineSet
252 143 m 1,0,1
 238 6 l 1,2,-1
 216 0 l 1,3,-1
 229 130 l 1,4,5
 194 109 194 109 179 79 c 1,6,-1
 191 206 l 1,7,8
 202 237 202 237 241 258 c 1,9,-1
 249 339 l 1,10,-1
 272 347 l 1,11,12
 270 326 270 326 268 309.5 c 128,-1,13
 266 293 266 293 264 270 c 1,14,15
 291 281 291 281 310 284 c 1,16,-1
 317 286 l 1,17,-1
 306 162 l 1,18,19
 281 156 281 156 252 143 c 1,0,1
20 87 m 1,20,21
 29 114 29 114 56.5 134 c 128,-1,22
 84 154 84 154 106 160 c 2,23,-1
 129 167 l 1,24,-1
 119 43 l 1,25,26
 116 42 116 42 110 40 c 0,27,28
 86 34 86 34 55.5 14.5 c 128,-1,29
 25 -5 25 -5 8 -39 c 1,30,-1
 20 87 l 1,20,21
84 343 m 1,31,32
 93 370 93 370 120.5 390 c 128,-1,33
 148 410 148 410 170 416 c 2,34,-1
 193 423 l 1,35,-1
 183 299 l 1,36,37
 180 298 180 298 174 296 c 0,38,39
 150 290 150 290 119.5 270.5 c 128,-1,40
 89 251 89 251 72 217 c 1,41,-1
 84 343 l 1,31,32
EndSplineSet
Position2: "Advance neume with cinnabar mark-1" dx=200 dy=0 dh=0 dv=0
Colour: ffc259
EndChar

StartChar: uniEE9A
Encoding: 61082 61082 117
Width: 790
VWidth: 999
GlyphClass: 2
Flags: W
HStem: 0 21G<196.869 198> 451 125<644.474 710.206>
AnchorPoint: "Lomka" 705 150 basechar 0
AnchorPoint: "Tikhaya" 0 100 basechar 0
AnchorPoint: "Borzaya" 0 150 basechar 0
AnchorPoint: "Zevok" 800 350 basechar 0
AnchorPoint: "Kachka" 50 660 basechar 0
AnchorPoint: "Kupnaya" 50 -50 basechar 0
AnchorPoint: "Auxiliary" 425 660 basechar 0
AnchorPoint: "Podvertka" 800 380 basechar 0
AnchorPoint: "Flexion" 555 640 basechar 0
AnchorPoint: "Podtinka" 0 -140 basechar 0
AnchorPoint: "TonalRange" 575 660 basechar 0
AnchorPoint: "Zaderzhka" 800 460 basechar 0
AnchorPoint: "Omet" 655 300 basechar 0
AnchorPoint: "Tochka" 655 325 basechar 0
AnchorPoint: "Podchashie" 543 245 basechar 0
AnchorPoint: "PitchMark" 0 500 basechar 0
LayerCount: 3
Fore
SplineSet
106 247 m 1
 127 308 215 327 215 327 c 1
 205 203 l 1
 205 203 125 184 94 121 c 1
 106 247 l 1
42 -9 m 1
 63 52 151 71 151 71 c 1
 141 -53 l 1
 141 -53 61 -72 30 -135 c 1
 42 -9 l 1
684 576 m 0
 697 576 711 566 729 545 c 0
 746 525 753 508 753 494 c 0
 753 493 753 493 753 492 c 1
 740 374 l 1
 734 402 718 426 691 447 c 0
 688 450 683 451 678 451 c 0
 677 451 l 0
 660 451 635 439 603 414 c 0
 559 381 512 340 461 290 c 0
 410 240 355 182 295 116 c 0
 235 50 201 11 195 0 c 1
 205 107 l 1
 213 122 240 157 285 212 c 0
 383 332 447 396 571 498 c 0
 634 550 671 576 684 576 c 0
EndSplineSet
Validated: 3073
Layer: 2
SplineSet
667 672 m 132,-1,1
 686 672 686 672 712.5 641 c 132,-1,2
 739 610 739 610 738 588 c 6,3,-1
 723 470 l 5,4,5
 714 513 714 513 675 543 c 4,6,7
 654 559 654 559 587.5 509.5 c 132,-1,8
 521 460 521 460 459 399 c 4,9,10
 369 311 369 311 278 212 c 132,-1,11
 187 113 187 113 178 96 c 5,12,-1
 189 203 l 5,13,14
 201 227 201 227 268 309 c 132,-1,15
 335 391 335 391 397 454 c 132,-1,16
 459 517 459 517 553.5 594.5 c 132,-1,0
 648 672 648 672 667 672 c 132,-1,1
88 343 m 5,17,18
 97 370 97 370 124.5 390 c 132,-1,19
 152 410 152 410 174 416 c 6,20,-1
 197 423 l 5,21,-1
 187 299 l 6,22,23
 184 298 184 298 178.5 296.5 c 132,-1,24
 173 295 173 295 157.5 288.5 c 132,-1,25
 142 282 142 282 128.5 273.5 c 132,-1,26
 115 265 115 265 100 250 c 132,-1,27
 85 235 85 235 76 217 c 5,28,-1
 88 343 l 5,17,18
24 87 m 5,29,30
 33 114 33 114 60.5 134 c 132,-1,31
 88 154 88 154 110 160 c 6,32,-1
 133 167 l 5,33,-1
 123 43 l 6,34,35
 120 42 120 42 114.5 40.5 c 132,-1,36
 109 39 109 39 93.5 32.5 c 132,-1,37
 78 26 78 26 64.5 17.5 c 132,-1,38
 51 9 51 9 36 -6 c 132,-1,39
 21 -21 21 -21 12 -39 c 5,40,-1
 24 87 l 5,29,30
EndSplineSet
Position2: "Advance neume with cinnabar mark-1" dx=200 dy=0 dh=0 dv=0
Colour: ffc259
EndChar

StartChar: uniEE93
Encoding: 61075 61075 118
Width: 350
VWidth: 999
GlyphClass: 2
Flags: W
VStem: 30 295
AnchorPoint: "Lomka" 420 150 basechar 0
AnchorPoint: "Tikhaya" 0 200 basechar 0
AnchorPoint: "Borzaya" 0 150 basechar 0
AnchorPoint: "Zevok" 270 500 basechar 0
AnchorPoint: "Kachka" 50 660 basechar 0
AnchorPoint: "Kupnaya" 50 -50 basechar 0
AnchorPoint: "Auxiliary" 180 670 basechar 0
AnchorPoint: "Podvertka" 220 0 basechar 0
AnchorPoint: "Flexion" 395 640 basechar 0
AnchorPoint: "Podtinka" 0 -100 basechar 0
AnchorPoint: "TonalRange" 415 660 basechar 0
AnchorPoint: "Tochka" 360 325 basechar 0
AnchorPoint: "Zaderzhka" 30 -120 basechar 0
AnchorPoint: "Omet" 205 500 basechar 0
AnchorPoint: "Podchashie" 320 -30 basechar 0
AnchorPoint: "PitchMark" 0 500 basechar 0
LayerCount: 3
Fore
SplineSet
244 226 m 1
 325 107 l 1
 313 -20 l 1
 232 99 l 1
 244 226 l 1
106 343 m 1
 127 404 215 423 215 423 c 1
 205 299 l 1
 205 299 125 280 94 217 c 1
 106 343 l 1
42 87 m 1
 63 148 151 167 151 167 c 1
 141 43 l 1
 141 43 61 24 30 -39 c 1
 42 87 l 1
EndSplineSet
Validated: 3073
Layer: 2
SplineSet
228 218 m 1,0,-1
 309 99 l 1,1,-1
 297 -28 l 1,2,-1
 216 91 l 1,3,-1
 228 218 l 1,0,-1
106 343 m 1,4,5
 115 370 115 370 142.5 390 c 128,-1,6
 170 410 170 410 192 416 c 2,7,-1
 215 423 l 1,8,-1
 205 299 l 1,9,10
 202 298 202 298 196 296 c 0,11,12
 172 290 172 290 141.5 270.5 c 128,-1,13
 111 251 111 251 94 217 c 1,14,-1
 106 343 l 1,4,5
42 87 m 1,15,16
 51 114 51 114 78.5 134 c 128,-1,17
 106 154 106 154 128 160 c 2,18,-1
 151 167 l 1,19,-1
 141 43 l 1,20,21
 138 42 138 42 132 40 c 0,22,23
 108 34 108 34 77.5 14.5 c 128,-1,24
 47 -5 47 -5 30 -39 c 1,25,-1
 42 87 l 1,15,16
EndSplineSet
Position2: "Advance neume with cinnabar mark-1" dx=200 dy=0 dh=0 dv=0
Colour: ffc259
EndChar

StartChar: uniEE92
Encoding: 61074 61074 119
Width: 525
VWidth: 0
GlyphClass: 2
Flags: W
HStem: 0 21G<405 426> 137 134<232.569 297.563>
VStem: 203 10<83.7422 104.195> 304 27<10.9733 144>
AnchorPoint: "Lomka" 540 150 basechar 0
AnchorPoint: "Tikhaya" 0 200 basechar 0
AnchorPoint: "Borzaya" 0 150 basechar 0
AnchorPoint: "Zevok" 140 0 basechar 0
AnchorPoint: "Kachka" 50 660 basechar 0
AnchorPoint: "Kupnaya" 50 -50 basechar 0
AnchorPoint: "Podchashie" 190 0 basechar 0
AnchorPoint: "Auxiliary" 180 670 basechar 0
AnchorPoint: "Podvertka" 220 0 basechar 0
AnchorPoint: "Flexion" 395 640 basechar 0
AnchorPoint: "Podtinka" 0 -100 basechar 0
AnchorPoint: "TonalRange" 415 660 basechar 0
AnchorPoint: "Tochka" 535 325 basechar 0
AnchorPoint: "Zaderzhka" 30 -120 basechar 0
AnchorPoint: "Omet" 205 500 basechar 0
AnchorPoint: "PitchMark" 0 500 basechar 0
LayerCount: 3
Fore
SplineSet
440 143 m 1
 426 6 l 1
 403 0 l 1
 416 130 l 1
 393 117 377 100 367 79 c 1
 379 206 l 1
 386 227 403 244 429 258 c 1
 437 339 l 1
 459 347 l 1
 458 334 457 325 457 319 c 0
 456 306 455 289 452 270 c 1
 475 280 488 281 504 286 c 1
 494 162 l 1
 477 158 459 152 440 143 c 1
311 -19 m 0
 310 -24 306 -26 301 -26 c 0
 297 -26 292 -21 293 -16 c 0
 300 35 304 68 304 82 c 0
 304 116 291 134 265 137 c 1
 259 137 l 2
 236 137 221 121 213 90 c 0
 212 85 205 76 203 83 c 0
 203 105 206 138 211 183 c 0
 218 242 239 271 274 271 c 0
 306 271 324 240 329 178 c 0
 330 165 331 151 331 137 c 0
 331 87 324 35 311 -19 c 0
106 343 m 1
 112 361 125 377 143 390 c 0
 161 403 177 412 192 416 c 2
 215 423 l 1
 205 299 l 1
 188 293 164 284 147 274 c 0
 124 259 106 240 94 217 c 1
 106 343 l 1
42 87 m 1
 48 105 61 121 79 134 c 0
 97 147 113 156 128 160 c 2
 151 167 l 1
 141 43 l 1
 124 37 100 28 83 18 c 0
 60 3 42 -16 30 -39 c 1
 42 87 l 1
EndSplineSet
Validated: 3073
Layer: 2
SplineSet
417 143 m 1,0,1
 403 6 l 1,2,-1
 380 0 l 1,3,-1
 393 130 l 1,4,5
 359 110 359 110 344 79 c 1,6,-1
 356 206 l 1,7,8
 367 237 367 237 406 258 c 1,9,-1
 414 339 l 1,10,-1
 436 347 l 1,11,12
 434 328 434 328 434 319 c 0,13,14
 433 299 433 299 429 270 c 1,15,16
 457 282 457 282 474 284 c 1,17,-1
 481 286 l 1,18,-1
 471 162 l 1,19,20
 446 156 446 156 417 143 c 1,0,1
288 -19 m 0,21,22
 286 -26 286 -26 278 -26 c 0,23,24
 276 -26 276 -26 272.5 -23.5 c 128,-1,25
 269 -21 269 -21 270 -16 c 0,26,27
 281 61 281 61 281 82 c 0,28,29
 281 133 281 133 242 137 c 1,30,-1
 236 137 l 2,31,32
 202 137 202 137 190 90 c 0,33,34
 189 82 189 82 183 81 c 0,35,36
 181 80 181 80 180 83 c 0,37,38
 180 116 180 116 188 183 c 0,39,40
 199 271 199 271 251 271 c 0,41,42
 299 271 299 271 306 178 c 0,43,44
 308 158 308 158 308 137 c 0,45,46
 308 62 308 62 288 -19 c 0,21,22
83 343 m 1,47,48
 92 370 92 370 119.5 390 c 128,-1,49
 147 410 147 410 169 416 c 2,50,-1
 192 423 l 1,51,-1
 182 299 l 1,52,53
 179 298 179 298 173.5 296.5 c 0,54,55
 168 294 168 294 152 288 c 0,56,57
 138 282 138 282 124 274 c 0,58,59
 89 252 89 252 71 217 c 1,60,-1
 83 343 l 1,47,48
19 87 m 1,61,62
 28 114 28 114 55.5 134 c 128,-1,63
 83 154 83 154 105 160 c 2,64,-1
 128 167 l 1,65,-1
 118 43 l 1,66,67
 115 42 115 42 109.5 40.5 c 0,68,69
 104 38 104 38 88 32 c 0,70,71
 74 26 74 26 60 18 c 0,72,73
 25 -4 25 -4 7 -39 c 1,74,-1
 19 87 l 1,61,62
EndSplineSet
Position2: "Advance neume with cinnabar mark-1" dx=200 dy=0 dh=0 dv=0
Colour: ffc259
EndChar

StartChar: uniEE9E
Encoding: 61086 61086 120
Width: 950
VWidth: 999
GlyphClass: 2
Flags: W
HStem: 0 21G<356.869 358> 65 134<60.4374 124.588> 89 134<222.437 286.588> 451 125<804.474 870.206>
VStem: 30 11<10.051 31.4036> 131 27<-61.0176 109.5> 192 11<34.051 55.4036> 293 27<-37.0176 133.5>
AnchorPoint: "Lomka" 875 150 basechar 0
AnchorPoint: "Tikhaya" 0 -30 basechar 0
AnchorPoint: "Borzaya" 0 150 basechar 0
AnchorPoint: "Zevok" 960 350 basechar 0
AnchorPoint: "Kupnaya" 50 -50 basechar 0
AnchorPoint: "Kachka" 0 270 basechar 0
AnchorPoint: "Auxiliary" 585 660 basechar 0
AnchorPoint: "Podvertka" 960 380 basechar 0
AnchorPoint: "Flexion" 715 640 basechar 0
AnchorPoint: "Podtinka" 0 -100 basechar 0
AnchorPoint: "TonalRange" 735 660 basechar 0
AnchorPoint: "Zaderzhka" 960 460 basechar 0
AnchorPoint: "Omet" 805 300 basechar 0
AnchorPoint: "Tochka" 805 325 basechar 0
AnchorPoint: "Podchashie" 701 245 basechar 0
AnchorPoint: "PitchMark" 0 500 basechar 0
LayerCount: 3
Fore
SplineSet
263 223 m 0xbf
 301 223 320 178 320 89 c 0
 320 39 313 -13 300 -67 c 0
 299 -72 296 -74 291 -74 c 0
 287 -74 282 -69 283 -64 c 0
 290 -17 293 15 293 34 c 0
 293 68 280 86 255 89 c 1
 248 89 l 2
 226 89 211 73 203 42 c 0
 202 37 199 34 195 33 c 0
 192 32 191 34 192 39 c 0
 198 126 199 223 263 223 c 0xbf
101 199 m 0xdf
 139 199 158 154 158 65 c 0
 158 15 151 -37 138 -91 c 0
 137 -96 134 -98 129 -98 c 0
 125 -98 120 -93 121 -88 c 0
 128 -41 131 -9 131 10 c 0
 131 44 118 62 93 65 c 1
 86 65 l 2
 64 65 49 49 41 18 c 0
 40 13 37 10 33 9 c 0
 30 8 29 10 30 15 c 0
 36 102 37 199 101 199 c 0xdf
844 576 m 0
 857 576 871 566 889 545 c 0
 906 525 913 508 913 494 c 0
 913 493 913 493 913 492 c 1
 900 374 l 1
 894 402 878 426 851 447 c 0
 848 450 843 451 838 451 c 0
 837 451 l 0
 820 451 795 439 763 414 c 0
 719 381 672 340 621 290 c 0
 570 240 515 182 455 116 c 0
 395 50 361 11 355 0 c 1
 365 107 l 1
 373 122 400 157 445 212 c 0
 543 332 607 396 731 498 c 0
 794 550 831 576 844 576 c 0
EndSplineSet
Validated: 3073
Layer: 2
SplineSet
817 590 m 128,-1,1
 836 590 836 590 862 559 c 128,-1,2
 888 528 888 528 887 506 c 1,3,-1
 873 388 l 1,4,5
 864 430 864 430 824 461 c 0,6,7
 819 465 819 465 811 465 c 0,8,9
 787 465 787 465 728.5 421.5 c 128,-1,10
 670 378 670 378 594 303.5 c 128,-1,11
 518 229 518 229 427.5 130 c 128,-1,12
 337 31 337 31 328 14 c 1,13,-1
 338 121 l 1,14,15
 350 145 350 145 417 227 c 128,-1,16
 484 309 484 309 546 372 c 128,-1,17
 608 435 608 435 703 512.5 c 128,-1,0
 798 590 798 590 817 590 c 128,-1,1
238 237 m 0,18,19
 295 237 295 237 295 103 c 0,20,21
 295 28 295 28 275 -53 c 0,22,23
 273 -60 273 -60 265 -60 c 0,24,25
 263 -60 263 -60 259.5 -57.5 c 128,-1,26
 256 -55 256 -55 257 -50 c 0,27,28
 268 27 268 27 268 48 c 0,29,30
 268 99 268 99 229 103 c 1,31,-1
 223 103 l 2,32,33
 189 103 189 103 177 56 c 0,34,35
 176 50 176 50 172 48 c 0,36,37
 167 46 167 46 167 50 c 0,38,39
 167 56 167 56 170 96 c 0,40,41
 173 142 173 142 174 149 c 0,42,43
 185 237 185 237 238 237 c 0,18,19
78 213 m 0,44,45
 135 213 135 213 135 79 c 0,46,47
 135 4 135 4 115 -77 c 0,48,49
 113 -84 113 -84 105 -84 c 0,50,51
 103 -84 103 -84 99.5 -81.5 c 128,-1,52
 96 -79 96 -79 97 -74 c 0,53,54
 108 3 108 3 108 24 c 0,55,56
 108 75 108 75 69 79 c 1,57,-1
 63 79 l 2,58,59
 29 79 29 79 17 32 c 0,60,61
 16 26 16 26 12 24 c 0,62,63
 7 22 7 22 7 26 c 0,64,65
 7 32 7 32 10 72 c 0,66,67
 13 118 13 118 14 125 c 0,68,69
 25 213 25 213 78 213 c 0,44,45
EndSplineSet
Position2: "Advance neume with cinnabar mark-1" dx=200 dy=0 dh=0 dv=0
Colour: ffc259
EndChar

StartChar: uniEE9F
Encoding: 61087 61087 121
Width: 950
VWidth: 0
GlyphClass: 2
Flags: W
HStem: 0 21G<356.869 358> 65 134<60.4374 124.588> 89 134<222.437 286.588> 451 125<804.474 870.206>
VStem: 30 11<10.051 31.4036> 131 27<-61.0176 109.5> 192 11<34.051 55.4036> 293 27<-37.0176 133.5>
AnchorPoint: "Lomka" 875 150 basechar 0
AnchorPoint: "Tikhaya" 0 -30 basechar 0
AnchorPoint: "Borzaya" 0 150 basechar 0
AnchorPoint: "Zevok" 960 350 basechar 0
AnchorPoint: "Kachka" 50 660 basechar 0
AnchorPoint: "Kupnaya" 50 -50 basechar 0
AnchorPoint: "Auxiliary" 585 660 basechar 0
AnchorPoint: "Podvertka" 960 380 basechar 0
AnchorPoint: "Flexion" 715 640 basechar 0
AnchorPoint: "Podtinka" 0 -100 basechar 0
AnchorPoint: "TonalRange" 735 660 basechar 0
AnchorPoint: "Zaderzhka" 960 460 basechar 0
AnchorPoint: "Omet" 825 300 basechar 0
AnchorPoint: "Tochka" 825 325 basechar 0
AnchorPoint: "Podchashie" 729 93 basechar 0
AnchorPoint: "PitchMark" 0 500 basechar 0
LayerCount: 3
Fore
SplineSet
263 223 m 0xbf
 301 223 320 178 320 89 c 0
 320 39 313 -13 300 -67 c 0
 299 -72 296 -74 291 -74 c 0
 287 -74 282 -69 283 -64 c 0
 290 -17 293 15 293 34 c 0
 293 68 280 86 255 89 c 1
 248 89 l 2
 226 89 211 73 203 42 c 0
 202 37 199 34 195 33 c 0
 192 32 191 34 192 39 c 0
 198 126 199 223 263 223 c 0xbf
101 199 m 0xdf
 139 199 158 154 158 65 c 0
 158 15 151 -37 138 -91 c 0
 137 -96 134 -98 129 -98 c 0
 125 -98 120 -93 121 -88 c 0
 128 -41 131 -9 131 10 c 0
 131 44 118 62 93 65 c 1
 86 65 l 2
 64 65 49 49 41 18 c 0
 40 13 37 10 33 9 c 0
 30 8 29 10 30 15 c 0
 36 102 37 199 101 199 c 0xdf
844 576 m 0
 857 576 871 566 889 545 c 0
 906 525 913 508 913 494 c 0
 913 493 913 493 913 492 c 1
 900 374 l 1
 894 402 878 426 851 447 c 0
 848 450 843 451 838 451 c 0
 837 451 l 0
 820 451 795 439 763 414 c 0
 719 381 672 340 621 290 c 0
 570 240 515 182 455 116 c 0
 395 50 361 11 355 0 c 1
 365 107 l 1
 373 122 400 157 445 212 c 0
 543 332 607 396 731 498 c 0
 794 550 831 576 844 576 c 0
594 150.6 m 1
 615 211.6 678 219.6 678 219.6 c 1
 668 95.5996 l 1
 668 95.5996 613 86.5996 582 23.5996 c 1
 594 150.6 l 1
724 269.6 m 1
 745 330.6 808 338.6 808 338.6 c 1
 798 214.6 l 1
 798 214.6 743 205.6 712 142.6 c 1
 724 269.6 l 1
EndSplineSet
Validated: 3073
Layer: 2
Refer: 83 61009 N 1 0 0 1 1019 -333 2
Refer: 120 61086 N 1 0 0 1 0 0 2
Position2: "Advance neume with cinnabar mark-1" dx=200 dy=0 dh=0 dv=0
Colour: ffc259
EndChar

StartChar: uniEEA0
Encoding: 61088 61088 122
Width: 950
VWidth: 999
GlyphClass: 2
Flags: W
HStem: -1 22G<191.89 195.5 356.869 358> 65 134<60.4374 124.588> 451 125<804.474 870.206>
VStem: 30 11<10.051 31.4036> 131 27<-61.0176 109.5>
AnchorPoint: "Lomka" 875 150 basechar 0
AnchorPoint: "Tikhaya" 0 -30 basechar 0
AnchorPoint: "Borzaya" 0 150 basechar 0
AnchorPoint: "Zevok" 960 350 basechar 0
AnchorPoint: "Kachka" 50 660 basechar 0
AnchorPoint: "Kupnaya" 50 -50 basechar 0
AnchorPoint: "Auxiliary" 585 660 basechar 0
AnchorPoint: "Podvertka" 960 380 basechar 0
AnchorPoint: "Flexion" 715 640 basechar 0
AnchorPoint: "Podtinka" 0 -100 basechar 0
AnchorPoint: "TonalRange" 735 660 basechar 0
AnchorPoint: "Zaderzhka" 960 460 basechar 0
AnchorPoint: "Omet" 805 300 basechar 0
AnchorPoint: "Tochka" 805 325 basechar 0
AnchorPoint: "Podchashie" 701 245 basechar 0
AnchorPoint: "PitchMark" 0 500 basechar 0
LayerCount: 3
Fore
SplineSet
844 576 m 0
 857 576 871 566 889 545 c 0
 906 525 913 508 913 494 c 0
 913 493 913 493 913 492 c 1
 900 374 l 1
 894 402 878 426 851 447 c 0
 848 450 843 451 838 451 c 0
 837 451 l 0
 820 451 795 439 763 414 c 0
 719 381 672 340 621 290 c 0
 570 240 515 182 455 116 c 0
 395 50 361 11 355 0 c 1
 365 107 l 1
 373 122 400 157 445 212 c 0
 543 332 607 396 731 498 c 0
 794 550 831 576 844 576 c 0
263 63 m 1
 257 -1 249 -74 249 -74 c 1
 226 -80 l 1
 239 50 l 1
 219 38 201 21 190 -1 c 1
 202 126 l 1
 210 149 230 166 252 178 c 1
 260 259 l 1
 282 267 l 1
 278 224 279 234 275 190 c 1
 303 202 327 206 327 206 c 1
 317 82 l 1
 317 82 292 76 263 63 c 1
101 199 m 0
 139 199 158 154 158 65 c 0
 158 15 151 -37 138 -91 c 0
 137 -96 134 -98 129 -98 c 0
 125 -98 120 -93 121 -88 c 0
 128 -41 131 -9 131 10 c 0
 131 44 118 62 93 65 c 1
 86 65 l 2
 64 65 49 49 41 18 c 0
 40 13 37 10 33 9 c 0
 30 8 29 10 30 15 c 0
 36 102 37 199 101 199 c 0
EndSplineSet
Validated: 3073
Layer: 2
SplineSet
238 73 m 1,0,1
 224 -64 l 1,2,-1
 201 -70 l 1,3,-1
 214 60 l 1,4,5
 180 40 180 40 165 9 c 1,6,-1
 177 136 l 1,7,8
 188 167 188 167 227 188 c 1,9,-1
 235 269 l 1,10,-1
 257 277 l 1,11,12
 255 258 255 258 254 243.5 c 128,-1,13
 253 229 253 229 250 200 c 1,14,15
 278 212 278 212 295 214 c 1,16,-1
 302 216 l 1,17,-1
 292 92 l 1,18,19
 267 86 267 86 238 73 c 1,0,1
816 586 m 128,-1,21
 835 586 835 586 861 555 c 128,-1,22
 887 524 887 524 886 502 c 1,23,-1
 872 384 l 1,24,25
 863 426 863 426 823 457 c 0,26,27
 818 461 818 461 810 461 c 0,28,29
 786 461 786 461 727.5 417.5 c 128,-1,30
 669 374 669 374 593 299.5 c 128,-1,31
 517 225 517 225 426.5 126 c 128,-1,32
 336 27 336 27 327 10 c 1,33,-1
 337 117 l 1,34,35
 349 141 349 141 416 223 c 128,-1,36
 483 305 483 305 545 368 c 128,-1,37
 607 431 607 431 702 508.5 c 128,-1,20
 797 586 797 586 816 586 c 128,-1,21
77 209 m 0,38,39
 134 209 134 209 134 75 c 0,40,41
 134 0 134 0 114 -81 c 0,42,43
 112 -88 112 -88 104 -88 c 0,44,45
 102 -88 102 -88 98.5 -85.5 c 128,-1,46
 95 -83 95 -83 96 -78 c 0,47,48
 107 -1 107 -1 107 20 c 0,49,50
 107 71 107 71 68 75 c 1,51,-1
 62 75 l 2,52,53
 28 75 28 75 16 28 c 0,54,55
 15 21 15 21 10.5 19.5 c 128,-1,56
 6 18 6 18 6 22 c 0,57,58
 6 29 6 29 9 71.5 c 128,-1,59
 12 114 12 114 13 121 c 0,60,61
 24 209 24 209 77 209 c 0,38,39
EndSplineSet
Position2: "Advance neume with cinnabar mark-1" dx=200 dy=0 dh=0 dv=0
Colour: ffc259
EndChar

StartChar: uniEE7E
Encoding: 61054 61054 123
Width: 410
VWidth: 999
GlyphClass: 2
Flags: W
HStem: 0 15G<176.5 179.5 345 351.5> 84 94<48.6637 109.37> 108 94<208.664 269.37> 371 125<200 275.483>
VStem: 112 9<2.02298 16.4071> 113 31<19.5513 135> 272 9<26.023 40.4071> 273 31<43.5513 159> 348 34<46.8179 282.938>
AnchorPoint: "Lomka" 540 150 basechar 0
AnchorPoint: "Tikhaya" 0 -30 basechar 0
AnchorPoint: "Borzaya" 0 150 basechar 0
AnchorPoint: "Zevok" 50 0 basechar 0
AnchorPoint: "Kachka" 50 660 basechar 0
AnchorPoint: "Kupnaya" 50 -50 basechar 0
AnchorPoint: "Auxiliary" 265 660 basechar 0
AnchorPoint: "Podvertka" 400 0 basechar 0
AnchorPoint: "Flexion" 395 640 basechar 0
AnchorPoint: "Podtinka" 0 -50 basechar 0
AnchorPoint: "TonalRange" 415 660 basechar 0
AnchorPoint: "Tochka" 420 325 basechar 0
AnchorPoint: "Zaderzhka" 30 -120 basechar 0
AnchorPoint: "Omet" 205 500 basechar 0
AnchorPoint: "Podchashie" 348 0 basechar 0
AnchorPoint: "PitchMark" 40 500 basechar 0
LayerCount: 3
Fore
SplineSet
348 190 m 2x9080
 348 305 295 371 188 371 c 1
 200 496 l 1
 248 496 290 474 327 430 c 0
 364 386 382 325 382 245 c 0
 382 165 375 85 360 6 c 0
 359 -2 355 -6 348 -6 c 0
 342 -6 334 -1 336 6 c 0
 344 75 348 117 348 131 c 2
 348 190 l 2x9080
248 202 m 0xb180
 283 202 304 176 304 142 c 0xb180
 304 104 296 67 281 30 c 0
 276 18 271 25 272 36 c 0xb280
 272 42 273 51 273 65 c 0
 273 94 261 108 238 108 c 0
 213 108 195 75 184 8 c 0
 183 2 181 0 178 0 c 0
 175 0 174 10 174 32 c 0
 174 54 178 83 185 118 c 0
 196 174 217 202 248 202 c 0xb180
88 178 m 0xd480
 123 178 144 152 144 118 c 0xd480
 144 80 136 43 121 6 c 0
 116 -6 111 1 112 12 c 0xd880
 112 18 113 27 113 41 c 0
 113 70 101 84 78 84 c 0
 53 84 35 51 24 -16 c 0
 23 -22 21 -25 18 -25 c 0
 15 -25 14 -14 14 8 c 0
 14 30 18 59 25 94 c 0
 36 150 57 178 88 178 c 0xd480
EndSplineSet
Validated: 3073
Layer: 2
SplineSet
360 6 m 0,0,1
 358 -6 358 -6 348 -6 c 0,2,3
 342 -6 342 -6 338.5 -2 c 128,-1,4
 335 2 335 2 336 6 c 0,5,6
 348 110 348 110 348 131 c 2,7,8
 348 190 l 2,9,10
 348 266 348 266 321 306 c 0,11,12
 280 371 280 371 188 371 c 1,13,-1
 200 496 l 1,14,15
 272 496 272 496 327 430.5 c 128,-1,16
 382 365 382 365 382 245 c 128,-1,17
 382 125 382 125 360 6 c 0,0,1
248 202 m 0,18,19
 274 202 274 202 289 185 c 128,-1,20
 304 168 304 168 304 142 c 0,21,22
 304 85 304 85 281 30 c 0,23,24
 277 21 277 21 274.5 24 c 128,-1,25
 272 27 272 27 272.5 35.5 c 128,-1,26
 273 44 273 44 273 65 c 0,27,28
 273 108 273 108 238 108 c 0,29,30
 201 108 201 108 184 8 c 0,31,32
 182 -1 182 -1 178 -1 c 128,-1,33
 174 -1 174 -1 174 32 c 128,-1,34
 174 65 174 65 185 118 c 0,35,36
 202 202 202 202 248 202 c 0,18,19
88 178 m 0,37,38
 114 178 114 178 129 161 c 128,-1,39
 144 144 144 144 144 118 c 0,40,41
 144 61 144 61 121 6 c 0,42,43
 117 -3 117 -3 114.5 0 c 128,-1,44
 112 3 112 3 112.5 11.5 c 128,-1,45
 113 20 113 20 113 41 c 0,46,47
 113 84 113 84 78 84 c 0,48,49
 41 84 41 84 24 -16 c 0,50,51
 22 -25 22 -25 18 -25 c 128,-1,52
 14 -25 14 -25 14 8 c 128,-1,53
 14 41 14 41 25 94 c 0,54,55
 42 178 42 178 88 178 c 0,37,38
EndSplineSet
Position2: "Advance neume with cinnabar mark-1" dx=200 dy=0 dh=0 dv=0
Colour: ffc259
EndChar

StartChar: uniEA9A
Encoding: 60058 60058 124
Width: 360
GlyphClass: 2
Flags: HW
LayerCount: 3
Fore
SplineSet
332 344 m 5
 342 320 348 306 348 301 c 4
 348 295 346 291 344 286 c 4
 341 279 279 195 274 189 c 4
 267 181 261 183 257 193 c 4
 247 222 239 241 233 251 c 4
 227.499 260.78 223.492 267.197 223.492 273.906 c 4
 223.492 278.173 225.113 282.558 229 288 c 5
 297 375 l 6
 301 380 306 381 309 378 c 4
 314 375 322 363 332 344 c 5
226 115 m 0
 226 103 153 -3 146 -3 c 0
 144 -3 142 -2 141 0 c 0
 139 3 132 25 118 67 c 0
 79 185 45 263 15 301 c 0
 13 303 12 307 12 310 c 0
 12 315 13 319 17 325 c 2
 85 412 l 2
 87 415 90 417 92 417 c 0
 96 417 101 410 108 396 c 1
 141 344 174 270 208 174 c 0
 220 141 226 121 226 115 c 0
EndSplineSet
Position2: "Advance neume with cinnabar mark-1" dx=160 dy=0 dh=0 dv=0
Colour: ffff
EndChar

StartChar: uniEEAB
Encoding: 61099 61099 125
Width: 1070
VWidth: 999
GlyphClass: 2
Flags: W
HStem: -7 21G<149 172.258 476.869 478> 451 125<924.474 990.206>
AnchorPoint: "Lomka" 985 150 basechar 0
AnchorPoint: "Tikhaya" 260 100 basechar 0
AnchorPoint: "Borzaya" 510 450 basechar 0
AnchorPoint: "Zevok" 1080 350 basechar 0
AnchorPoint: "Kachka" 50 660 basechar 0
AnchorPoint: "Kupnaya" 50 -50 basechar 0
AnchorPoint: "Auxiliary" 705 660 basechar 0
AnchorPoint: "Podvertka" 1080 380 basechar 0
AnchorPoint: "Flexion" 835 640 basechar 0
AnchorPoint: "Podtinka" 0 -50 basechar 0
AnchorPoint: "TonalRange" 855 660 basechar 0
AnchorPoint: "Zaderzhka" 1080 460 basechar 0
AnchorPoint: "Omet" 205 500 basechar 0
AnchorPoint: "Tochka" 915 325 basechar 0
AnchorPoint: "Podchashie" 813 245 basechar 0
AnchorPoint: "PitchMark" 0 500 basechar 0
LayerCount: 3
Fore
SplineSet
160 506 m 0
 162 506 169 496 180 476 c 0
 201 439 227 355 232 302 c 1
 244 302 246 305 262 317 c 0
 274 326 286 340 295 359 c 1
 284 248 l 1
 275 222 256 197 232 194 c 1
 225 144 200 60 179 24 c 2
 160 -7 l 1
 138 26 127 46 110 103 c 0
 99 140 92 172 89 201 c 1
 76 201 74 198 58 186 c 0
 46 177 34 163 25 144 c 1
 35 254 l 1
 44 280 64 306 90 308 c 1
 96 357 120 440 140 476 c 0
 151 496 158 506 160 506 c 0
184 109 m 1
 196 133 202 167 202 210 c 0
 202 253 196 287 186 312 c 0
 176 337 159 363 136 390 c 1
 127 369 122 337 122 296 c 0
 122 213 143 151 184 109 c 1
386 247 m 1
 407 308 495 327 495 327 c 1
 485 203 l 1
 485 203 405 184 374 121 c 1
 386 247 l 1
322 -9 m 1
 343 52 431 71 431 71 c 1
 421 -53 l 1
 421 -53 341 -72 310 -135 c 1
 322 -9 l 1
964 576 m 0
 977 576 991 566 1009 545 c 0
 1026 525 1033 508 1033 494 c 0
 1033 493 1033 493 1033 492 c 1
 1020 374 l 1
 1014 402 998 426 971 447 c 0
 968 450 963 451 958 451 c 0
 957 451 l 0
 940 451 915 439 883 414 c 0
 839 381 792 340 741 290 c 0
 690 240 635 182 575 116 c 0
 515 50 481 11 475 0 c 1
 485 107 l 1
 493 122 520 157 565 212 c 0
 663 332 727 396 851 498 c 0
 914 550 951 576 964 576 c 0
EndSplineSet
Validated: 3073
Layer: 2
Refer: 100 61100 N 1 0 0 1 0 0 2
Refer: 117 61082 N 1 0 0 1 274 -96 2
Ligature2: "Support for deprecated mappings (ccmp)-1" uniEEAC uniEE9A
LCarets2: 1 0 
Position2: "Advance neume with cinnabar mark-1" dx=200 dy=0 dh=0 dv=0
Colour: ffc259
EndChar

StartChar: uniEE82
Encoding: 61058 61058 126
Width: 625
VWidth: 999
GlyphClass: 2
Flags: W
HStem: 0 21G<31.8692 33> 46 94<335.335 407.663> 451 125<479.474 545.206>
VStem: 300 31<94 197.966> 444 10<224.868 248.647>
AnchorPoint: "Lomka" 540 150 basechar 0
AnchorPoint: "Tikhaya" 0 370 basechar 0
AnchorPoint: "Borzaya" 0 150 basechar 0
AnchorPoint: "Zevok" 630 350 basechar 0
AnchorPoint: "Kachka" 50 660 basechar 0
AnchorPoint: "Kupnaya" 50 -50 basechar 0
AnchorPoint: "Auxiliary" 265 660 basechar 0
AnchorPoint: "Podvertka" 630 380 basechar 0
AnchorPoint: "Flexion" 395 640 basechar 0
AnchorPoint: "Podtinka" 0 -50 basechar 0
AnchorPoint: "TonalRange" 415 660 basechar 0
AnchorPoint: "Zaderzhka" 630 460 basechar 0
AnchorPoint: "Omet" 515 300 basechar 0
AnchorPoint: "Tochka" 515 325 basechar 0
AnchorPoint: "Podchashie" 375 0 basechar 0
AnchorPoint: "PitchMark" 0 500 basechar 0
LayerCount: 3
Fore
SplineSet
454 232 m 0
 454 157 427 46 365 46 c 0
 322 46 300 70 300 118 c 0
 300 147 308 180 323 219 c 0
 330 234 333 223 332 208 c 0
 331 199 331 190 331 180 c 0
 331 157 349 140 374 140 c 0
 408 140 438 209 444 240 c 0
 445 246 447 249 451 249 c 0
 453 249 454 243 454 232 c 0
519 576 m 0
 532 576 546 566 564 545 c 0
 581 525 588 508 588 494 c 0
 588 493 588 493 588 492 c 1
 575 374 l 1
 569 402 553 426 526 447 c 0
 523 450 518 451 513 451 c 0
 512 451 l 0
 495 451 470 439 438 414 c 0
 394 381 347 340 296 290 c 0
 245 240 190 182 130 116 c 0
 70 50 36 11 30 0 c 1
 40 107 l 1
 48 122 75 157 120 212 c 0
 218 332 282 396 406 498 c 0
 469 550 506 576 519 576 c 0
EndSplineSet
Validated: 3073
Layer: 2
SplineSet
363 67 m 0,0,1
 298 67 298 67 298 139 c 0,2,3
 298 182 298 182 321 240 c 0,4,5
 326 250 326 250 328.5 246.5 c 128,-1,6
 331 243 331 243 330 229.5 c 128,-1,7
 329 216 329 216 329 201 c 128,-1,8
 329 186 329 186 340 173.5 c 128,-1,9
 351 161 351 161 372 161 c 128,-1,10
 393 161 393 161 414.5 194.5 c 128,-1,11
 436 228 436 228 442 261 c 0,12,13
 443 270 443 270 449 270 c 0,14,15
 452 270 452 270 452 264 c 128,-1,16
 452 258 452 258 452 252 c 0,17,18
 452 190 452 190 433 137 c 0,19,20
 407 67 407 67 363 67 c 0,0,1
497 576 m 128,-1,22
 516 576 516 576 544 545 c 128,-1,23
 572 514 572 514 571 492 c 1,24,-1
 553 374 l 1,25,26
 544 416 544 416 504 447 c 0,27,28
 499 451 499 451 491 451 c 0,29,30
 467 451 467 451 408 407 c 0,31,32
 279 311 279 311 49 48 c 1,33,-1
 8 0 l 1,34,-1
 20 123 l 1,35,36
 138 268 138 268 213.5 344.5 c 128,-1,37
 289 421 289 421 383.5 498.5 c 128,-1,21
 478 576 478 576 497 576 c 128,-1,22
EndSplineSet
Position2: "Advance neume with cinnabar mark-1" dx=200 dy=0 dh=0 dv=0
Colour: ffc259
EndChar

StartChar: uniEE83
Encoding: 61059 61059 127
Width: 625
VWidth: 0
GlyphClass: 2
Flags: W
HStem: 0 21G<31.8692 33> 451 125<479.474 545.206>
AnchorPoint: "Lomka" 540 150 basechar 0
AnchorPoint: "Tikhaya" 0 370 basechar 0
AnchorPoint: "Borzaya" 0 150 basechar 0
AnchorPoint: "Zevok" 630 350 basechar 0
AnchorPoint: "Kachka" 50 660 basechar 0
AnchorPoint: "Kupnaya" 50 -50 basechar 0
AnchorPoint: "Auxiliary" 265 660 basechar 0
AnchorPoint: "Podvertka" 630 380 basechar 0
AnchorPoint: "Flexion" 395 640 basechar 0
AnchorPoint: "Podtinka" 0 -50 basechar 0
AnchorPoint: "TonalRange" 415 660 basechar 0
AnchorPoint: "Zaderzhka" 630 460 basechar 0
AnchorPoint: "Omet" 515 300 basechar 0
AnchorPoint: "Tochka" 515 325 basechar 0
AnchorPoint: "Podchashie" 426 101 basechar 0
AnchorPoint: "PitchMark" 0 500 basechar 0
LayerCount: 3
Fore
SplineSet
519 576 m 0
 532 576 546 566 564 545 c 0
 581 525 588 508 588 494 c 0
 588 493 588 493 588 492 c 1
 575 374 l 1
 569 402 553 426 526 447 c 0
 523 450 518 451 513 451 c 0
 512 451 l 0
 495 451 470 439 438 414 c 0
 394 381 347 340 296 290 c 0
 245 240 190 182 130 116 c 0
 70 50 36 11 30 0 c 1
 40 107 l 1
 48 122 75 157 120 212 c 0
 218 332 282 396 406 498 c 0
 469 550 506 576 519 576 c 0
295 159 m 1
 316 220 379 228 379 228 c 1
 369 104 l 1
 369 104 314 95 283 32 c 1
 295 159 l 1
EndSplineSet
Validated: 3073
Layer: 2
SplineSet
280 158 m 1,0,1
 289 185 289 185 310 202.5 c 128,-1,2
 331 220 331 220 348 224 c 2,3,-1
 364 228 l 1,4,-1
 354 104 l 1,5,6
 348 103 348 103 338 100 c 128,-1,7
 328 97 328 97 305 78.5 c 128,-1,8
 282 60 282 60 268 32 c 1,9,-1
 280 158 l 1,0,1
504 576 m 128,-1,11
 523 576 523 576 551 545 c 128,-1,12
 579 514 579 514 578 492 c 1,13,-1
 560 374 l 1,14,15
 551 416 551 416 511 447 c 0,16,17
 506 451 506 451 498 451 c 0,18,19
 474 451 474 451 415 407 c 0,20,21
 286 311 286 311 56 48 c 1,22,-1
 15 0 l 1,23,-1
 27 123 l 1,24,25
 145 268 145 268 220.5 344.5 c 128,-1,26
 296 421 296 421 390.5 498.5 c 128,-1,10
 485 576 485 576 504 576 c 128,-1,11
EndSplineSet
Position2: "Advance neume with cinnabar mark-1" dx=200 dy=0 dh=0 dv=0
Colour: ffc259
EndChar

StartChar: uniEEAA
Encoding: 61098 61098 128
Width: 715
VWidth: 0
GlyphClass: 2
Flags: W
HStem: 0 21G<32.0417 40.5> 451 125<569.049 637.264>
AnchorPoint: "Lomka" 540 150 basechar 0
AnchorPoint: "Tikhaya" 0 -30 basechar 0
AnchorPoint: "Borzaya" 0 150 basechar 0
AnchorPoint: "Zevok" 730 350 basechar 0
AnchorPoint: "Kachka" 50 660 basechar 0
AnchorPoint: "Kupnaya" 50 -50 basechar 0
AnchorPoint: "Auxiliary" 425 660 basechar 0
AnchorPoint: "Podvertka" 730 380 basechar 0
AnchorPoint: "Flexion" 480 640 basechar 0
AnchorPoint: "Podtinka" 0 -50 basechar 0
AnchorPoint: "TonalRange" 500 660 basechar 0
AnchorPoint: "Zaderzhka" 730 460 basechar 0
AnchorPoint: "Omet" 205 500 basechar 0
AnchorPoint: "Tochka" 585 325 basechar 0
AnchorPoint: "Podchashie" 503 245 basechar 0
AnchorPoint: "PitchMark" 0 500 basechar 0
LayerCount: 3
Fore
SplineSet
70 162 m 1
 83 184 100 203 122 220 c 0
 144 237 161.741 248.692 177 254 c 2
 200 262 l 1
 185 122 l 1
 177 120 163 115 146 107 c 0
 90 82 51 46 30 0 c 1
 79 480 l 1
 105 496 l 1
 70 162 l 1
610 576 m 0
 623 576 638 566 656 545 c 0
 673 525 678 509 678 495 c 0
 678 494 678 493 678 492 c 1
 666 374 l 1
 660 403 644 427 618 447 c 0
 615 450 610 451 605 451 c 0
 589 451 561 437 522 408 c 0
 483 379 438 339 388 290 c 0
 338 241 304 206 286 187 c 0
 268 168 257 152 251 140 c 1
 267 266 l 1
 267 267 l 1
 272 284 295 313 338 356 c 0
 381 399 433 446 496 498 c 0
 559 550 597 576 610 576 c 0
EndSplineSet
Validated: 3073
Layer: 2
SplineSet
68 162 m 1,0,1
 87 195 87 195 119.5 220 c 128,-1,2
 152 245 152 245 175 254 c 2,3,-1
 197 262 l 1,4,-1
 182 122 l 1,5,6
 171 119 171 119 145 107 c 0,7,8
 60 68 60 68 28 0 c 1,9,-1
 77 480 l 1,10,-1
 103 496 l 1,11,-1
 68 162 l 1,0,1
612 576 m 128,-1,13
 631 576 631 576 657.5 545 c 128,-1,14
 684 514 684 514 683 492 c 1,15,-1
 668 374 l 1,16,17
 659 417 659 417 620 447 c 0,18,19
 615 451 615 451 607 451 c 0,20,21
 583 451 583 451 524.5 407.5 c 128,-1,22
 466 364 466 364 390.5 290 c 128,-1,23
 315 216 315 216 288.5 187 c 128,-1,24
 262 158 262 158 253 140 c 1,25,-1
 269 266 l 1,26,-1
 269 267 l 1,27,28
 276 292 276 292 340 356.5 c 128,-1,29
 404 421 404 421 498.5 498.5 c 128,-1,12
 593 576 593 576 612 576 c 128,-1,13
EndSplineSet
Position2: "Advance neume with cinnabar mark-1" dx=200 dy=0 dh=0 dv=0
Colour: ffc259
EndChar

StartChar: uniEE75
Encoding: 61045 61045 129
Width: 225
VWidth: 999
GlyphClass: 2
Flags: W
HStem: 0 21G<32.0417 40.5>
VStem: 30 169
AnchorPoint: "Lomka" 540 150 basechar 0
AnchorPoint: "Tikhaya" 0 -30 basechar 0
AnchorPoint: "Borzaya" 0 150 basechar 0
AnchorPoint: "Zevok" 180 60 basechar 0
AnchorPoint: "Kachka" 50 660 basechar 0
AnchorPoint: "Kupnaya" 50 -50 basechar 0
AnchorPoint: "Auxiliary" 265 660 basechar 0
AnchorPoint: "Podvertka" 250 90 basechar 0
AnchorPoint: "Flexion" 395 640 basechar 0
AnchorPoint: "Podtinka" 0 -50 basechar 0
AnchorPoint: "TonalRange" 415 660 basechar 0
AnchorPoint: "Tochka" 235 325 basechar 0
AnchorPoint: "Zaderzhka" 225 180 basechar 0
AnchorPoint: "Omet" 205 500 basechar 0
AnchorPoint: "Podchashie" 100 -30 basechar 0
AnchorPoint: "PitchMark" 0 500 basechar 0
LayerCount: 3
Fore
SplineSet
70 162 m 1
 83 184 100 203 122 220 c 0
 144 237 162 248 177 254 c 2
 199 262 l 1
 184 122 l 1
 176 120 163 115 146 107 c 0
 90 82 51 46 30 0 c 1
 79 480 l 1
 105 496 l 1
 70 162 l 1
EndSplineSet
Validated: 3073
Layer: 2
SplineSet
70 162 m 5,0,1
 89 195 89 195 121.5 220 c 132,-1,2
 154 245 154 245 177 254 c 6,3,-1
 199 262 l 5,4,-1
 184 122 l 5,5,6
 172 119 172 119 146 107 c 4,7,8
 62 69 62 69 30 0 c 5,9,-1
 79 480 l 5,10,-1
 105 496 l 5,11,-1
 70 162 l 5,0,1
EndSplineSet
Position2: "Advance neume with cinnabar mark-1" dx=200 dy=0 dh=0 dv=0
Colour: ffc259
EndChar

StartChar: uniEE74
Encoding: 61044 61044 130
Width: 625
VWidth: 999
GlyphClass: 3
Flags: W
HStem: 0 21G<32.0417 47.0833> 450 126<471.313 535.97>
AnchorPoint: "Lomka" 540 150 basechar 0
AnchorPoint: "Tikhaya" 0 370 basechar 0
AnchorPoint: "Borzaya" 0 150 basechar 0
AnchorPoint: "Zevok" 630 350 basechar 0
AnchorPoint: "Kachka" 50 660 basechar 0
AnchorPoint: "Kupnaya" 50 -50 basechar 0
AnchorPoint: "Auxiliary" 265 660 basechar 0
AnchorPoint: "Podvertka" 630 380 basechar 0
AnchorPoint: "Flexion" 395 640 basechar 0
AnchorPoint: "Podtinka" 0 -50 basechar 0
AnchorPoint: "TonalRange" 415 660 basechar 0
AnchorPoint: "Zaderzhka" 630 460 basechar 0
AnchorPoint: "Omet" 515 300 basechar 0
AnchorPoint: "Tochka" 515 325 basechar 0
AnchorPoint: "Podchashie" 378 245 basechar 0
AnchorPoint: "PitchMark" 0 500 basechar 0
LayerCount: 3
Fore
SplineSet
519 576 m 0
 544 576 588 520 588 494 c 0
 588 493 588 493 588 492 c 2
 575 374 l 1
 569 402 553 426 526 447 c 0
 523 449 519 450 514 450 c 0
 492 450 478 453 419 404 c 1
 465 373 l 1
 456 270 l 1
 354 338 l 1
 344 239 l 1
 322 229 l 1
 331 325 l 1
 256 252 152 141 71 48 c 1
 30 0 l 1
 79 480 l 1
 105 496 l 1
 70 162 l 1
 115 217 202 311 279 388 c 1
 233 419 l 1
 243 522 l 1
 344 454 l 1
 353 542 l 1
 376 555 l 1
 367 471 l 1
 468 559 501 576 519 576 c 0
EndSplineSet
Validated: 3105
Layer: 2
SplineSet
342 444 m 5,0,1
 494 576 494 576 521 576 c 4,2,3
 540 576 540 576 568 545 c 132,-1,4
 596 514 596 514 595 492 c 5,5,-1
 577 374 l 5,6,7
 568 416 568 416 528 447 c 4,8,9
 523 450 523 450 516 450 c 4,10,11
 483 450 483 450 394 377 c 5,12,-1
 440 346 l 5,13,-1
 431 243 l 5,14,-1
 329 311 l 5,15,-1
 319 212 l 5,16,-1
 297 202 l 5,17,-1
 306 298 l 5,18,19
 194 188 194 188 73 48 c 5,20,-1
 32 0 l 5,21,-1
 81 480 l 5,22,-1
 107 496 l 5,23,-1
 72 162 l 5,24,25
 139 245 139 245 254 361 c 5,26,-1
 208 392 l 5,27,-1
 218 495 l 5,28,-1
 319 427 l 5,29,-1
 328 515 l 5,30,-1
 351 528 l 5,31,-1
 342 444 l 5,0,1
EndSplineSet
Position2: "Advance neume with cinnabar mark-1" dx=200 dy=0 dh=0 dv=0
Colour: ffc259
EndChar

StartChar: uniEE7D
Encoding: 61053 61053 131
Width: 450
VWidth: 999
GlyphClass: 2
Flags: W
HStem: 206 108<69.6788 136.817>
VStem: 10 27<-42.8159 141.02> 144 32<48.7511 257>
AnchorPoint: "Lomka" 370 150 basechar 0
AnchorPoint: "Tikhaya" 0 150 basechar 0
AnchorPoint: "Borzaya" 0 150 basechar 0
AnchorPoint: "Zevok" 50 0 basechar 0
AnchorPoint: "Kachka" 50 660 basechar 0
AnchorPoint: "Kupnaya" 50 -50 basechar 0
AnchorPoint: "Auxiliary" 265 660 basechar 0
AnchorPoint: "Podvertka" 380 110 basechar 0
AnchorPoint: "Flexion" 395 640 basechar 0
AnchorPoint: "Podtinka" 0 -100 basechar 0
AnchorPoint: "TonalRange" 415 660 basechar 0
AnchorPoint: "Tochka" 460 325 basechar 0
AnchorPoint: "Zaderzhka" 30 -120 basechar 0
AnchorPoint: "Omet" 205 500 basechar 0
AnchorPoint: "Podchashie" 100 -30 basechar 0
AnchorPoint: "PitchMark" 0 500 basechar 0
LayerCount: 3
Fore
SplineSet
310 319 m 1
 316 337 329 353 350 366 c 0
 371 379 391 388 409 392 c 2
 435 399 l 1
 425 275 l 1
 397 268 383 264 350 246 c 0
 327 233 309 216 298 193 c 1
 310 319 l 1
265 393 m 1
 234 77 l 1
 211 71 l 1
 243 385 l 1
 265 393 l 1
37 -28 m 0
 37 -34 29 -43 22 -43 c 0
 14 -44 10 -39 10 -30 c 2
 10 -12 l 2
 10 133 27 230 60 280 c 0
 75 303 93 314 114 314 c 0
 155 314 176 286 176 228 c 0
 176 170 169 99 155 15 c 0
 152 8 148 4 142 4 c 0
 136 4 132 5 131 10 c 1
 131 12 l 1
 140 87 144 130 144 141 c 0
 144 184 131 206 106 206 c 0
 69 206 48 165 41 82 c 0
 40 45 38 8 37 -28 c 0
EndSplineSet
Validated: 3073
Layer: 2
SplineSet
308 319 m 1,0,1
 317 346 317 346 348.5 366 c 128,-1,2
 380 386 380 386 407 392 c 1,3,-1
 433 399 l 1,4,-1
 423 275 l 1,5,6
 419 274 419 274 401 270 c 128,-1,7
 383 266 383 266 348 246.5 c 128,-1,8
 313 227 313 227 296 193 c 1,9,-1
 308 319 l 1,0,1
263 393 m 1,10,-1
 232 77 l 1,11,-1
 209 71 l 1,12,-1
 241 385 l 1,13,-1
 263 393 l 1,10,-1
129 12 m 1,14,15
 142 125 142 125 142 141 c 0,16,17
 142 206 142 206 104 206 c 0,18,19
 49 206 49 206 39 82 c 0,20,21
 37 26 37 26 35 -28 c 0,22,23
 35 -32 35 -32 30.5 -37.5 c 128,-1,24
 26 -43 26 -43 20 -43 c 0,25,26
 8 -44 8 -44 8 -30 c 2,27,-1
 8 -12 l 2,28,29
 8 205 8 205 58 280 c 0,30,31
 80 314 80 314 112 314 c 0,32,33
 174 314 174 314 174 227.5 c 128,-1,34
 174 141 174 141 153 15 c 0,35,36
 149 4 149 4 140 3.5 c 128,-1,37
 131 3 131 3 129 10 c 1,38,-1
 129 12 l 1,14,15
EndSplineSet
Position2: "Advance neume with cinnabar mark-1" dx=200 dy=0 dh=0 dv=0
Colour: ffc259
EndChar

StartChar: uniEE7F
Encoding: 61055 61055 132
Width: 545
VWidth: 999
GlyphClass: 2
Flags: W
HStem: 0 21G<179.5 182.5> 30 106<367.552 466.3> 84 94<51.6637 112.37> 108 94<211.664 272.37>
VStem: 116 31<26.8191 78.9965> 116 8<3.52825 14.6724> 276 31<50.8191 102.996> 276 8<27.5282 38.6724> 336 34<137.47 214.16> 378 26<418.5 521.999> 396 11<520.513 543.981> 501 22<179.369 286>
AnchorPoint: "Lomka" 540 150 basechar 0
AnchorPoint: "Tikhaya" 0 -30 basechar 0
AnchorPoint: "Borzaya" 0 150 basechar 0
AnchorPoint: "Zevok" 50 0 basechar 0
AnchorPoint: "Kachka" 50 660 basechar 0
AnchorPoint: "Kupnaya" 50 -50 basechar 0
AnchorPoint: "Auxiliary" 265 660 basechar 0
AnchorPoint: "Podvertka" 520 0 basechar 0
AnchorPoint: "Flexion" 395 640 basechar 0
AnchorPoint: "Podtinka" 0 -50 basechar 0
AnchorPoint: "TonalRange" 415 660 basechar 0
AnchorPoint: "Tochka" 555 325 basechar 0
AnchorPoint: "Zaderzhka" 30 -120 basechar 0
AnchorPoint: "Omet" 205 500 basechar 0
AnchorPoint: "Podchashie" 400 0 basechar 0
AnchorPoint: "PitchMark" 40 500 basechar 0
LayerCount: 3
Fore
SplineSet
337 80 m 0xc0d0
 337 82 336 94 336 96 c 0
 336 121 342 198 349 215 c 0
 351 219 354 221 359 221 c 0
 366 221 370 219 370 214 c 0
 370 207 365 185 365 177 c 0
 365 150 376 136 398 136 c 0
 438 136 501 168 501 206 c 0
 501 221 497 236 487 250 c 0
 477 264 464 277 447 292 c 0
 430 307 418 321 411 332 c 0
 389 365 378 400 378 437 c 0xc0d0
 378 459 389 524 396 537 c 0
 396 542 398 544 402 544 c 0
 405 544 407 541 407 538 c 2
 407 537 l 1xc0b0
 405 528 404 517 404 504 c 0
 404 463 442 417 465 388 c 0
 480 370 490 357 497 348 c 0
 511 330 523 302 523 270 c 0
 523 194 521 143 516 118 c 0
 509 87 498 63 471 48 c 0
 455 39 426 30 400 30 c 0
 364 30 340 48 337 80 c 0xc0d0
251 202 m 0x9290
 286 202 307 176 307 142 c 0x9290
 307 104 299 67 284 30 c 0
 279 18 275 25 276 36 c 0xc190
 276 42 276 51 276 65 c 0
 276 94 264 108 241 108 c 0
 216 108 198 75 187 8 c 0
 186 2 184 0 181 0 c 0
 178 0 177 10 177 32 c 0
 177 54 181 83 188 118 c 0
 199 174 220 202 251 202 c 0x9290
91 178 m 0xa890
 126 178 147 152 147 118 c 0xa890
 147 80 139 43 124 6 c 0
 119 -6 115 1 116 12 c 0xa490
 116 18 116 27 116 41 c 0
 116 70 104 84 81 84 c 0
 56 84 38 51 27 -16 c 0
 26 -22 24 -25 21 -25 c 0
 18 -25 17 -14 17 8 c 0
 17 30 21 59 28 94 c 0
 39 150 60 178 91 178 c 0xa890
EndSplineSet
Validated: 3073
Layer: 2
SplineSet
370 215 m 2,0,-1
 366 177 l 1,1,2
 366 137 366 137 398 137 c 0,3,4
 433 137 433 137 467 159 c 0,5,6
 501 182 501 182 501 206 c 0,7,8
 501 247 501 247 447 294 c 0,9,10
 378 356 378 356 378 438 c 0,11,12
 378 491 378 491 387 498.5 c 128,-1,13
 396 506 396 506 396 526 c 2,14,-1
 396 540 l 2,15,16
 396 536 396 536 401.5 539 c 128,-1,17
 407 542 407 542 407 540 c 2,18,-1
 407 538 l 1,19,20
 404 524 404 524 404 501 c 128,-1,21
 404 478 404 478 425 446 c 128,-1,22
 446 414 446 414 498 349 c 0,23,24
 523 318 523 318 523 274 c 0,25,26
 523 152 523 152 517.5 129 c 128,-1,27
 512 106 512 106 510 98 c 0,28,29
 499 64 499 64 467.5 46.5 c 128,-1,30
 436 29 436 29 392 29 c 0,31,32
 372 29 372 29 354.5 44.5 c 128,-1,33
 337 60 337 60 337 81 c 1,34,-1
 336 97 l 1,35,36
 336 125 336 125 340.5 166 c 128,-1,37
 345 207 345 207 349 217 c 0,38,39
 352 223 352 223 361 223 c 128,-1,40
 370 223 370 223 370 215 c 2,0,-1
251 202 m 0,41,42
 277 202 277 202 292 185 c 128,-1,43
 307 168 307 168 307 142 c 0,44,45
 307 85 307 85 284 30 c 0,46,47
 280 21 280 21 277.5 24 c 128,-1,48
 275 27 275 27 275.5 35.5 c 128,-1,49
 276 44 276 44 276 65 c 0,50,51
 276 108 276 108 241 108 c 0,52,53
 204 108 204 108 187 8 c 0,54,55
 185 -1 185 -1 181 -1 c 128,-1,56
 177 -1 177 -1 177 32 c 128,-1,57
 177 65 177 65 188 118 c 0,58,59
 205 202 205 202 251 202 c 0,41,42
91 178 m 0,60,61
 117 178 117 178 132 161 c 128,-1,62
 147 144 147 144 147 118 c 0,63,64
 147 61 147 61 124 6 c 0,65,66
 120 -3 120 -3 117.5 0 c 128,-1,67
 115 3 115 3 115.5 11.5 c 128,-1,68
 116 20 116 20 116 41 c 0,69,70
 116 84 116 84 81 84 c 0,71,72
 44 84 44 84 27 -16 c 0,73,74
 25 -25 25 -25 21 -25 c 128,-1,75
 17 -25 17 -25 17 8 c 128,-1,76
 17 41 17 41 28 94 c 0,77,78
 45 178 45 178 91 178 c 0,60,61
EndSplineSet
Position2: "Advance neume with cinnabar mark-1" dx=200 dy=0 dh=0 dv=0
Colour: ffc259
EndChar

StartChar: uniEE7A
Encoding: 61050 61050 133
Width: 255
VWidth: 999
GlyphClass: 2
Flags: W
HStem: 259 104<96.4066 180.778>
VStem: 22 22<-52.9434 138.467> 182.75 19.25<4.59036 78.3868> 197 31<85.9516 292.5>
AnchorPoint: "Lomka" 540 150 basechar 0
AnchorPoint: "Tikhaya" 0 80 basechar 0
AnchorPoint: "Zaderzhka" 255 180 basechar 0
AnchorPoint: "Borzaya" 0 150 basechar 0
AnchorPoint: "Zevok" 50 0 basechar 0
AnchorPoint: "Kachka" 50 660 basechar 0
AnchorPoint: "Kupnaya" 50 -50 basechar 0
AnchorPoint: "Auxiliary" 265 660 basechar 0
AnchorPoint: "Podvertka" 250 0 basechar 0
AnchorPoint: "Flexion" 395 640 basechar 0
AnchorPoint: "Podtinka" 0 -100 basechar 0
AnchorPoint: "TonalRange" 415 660 basechar 0
AnchorPoint: "Tochka" 265 325 basechar 0
AnchorPoint: "Omet" 205 500 basechar 0
AnchorPoint: "Podchashie" 100 -30 basechar 0
AnchorPoint: "PitchMark" 0 500 basechar 0
LayerCount: 3
Fore
SplineSet
182.75 18.5 m 1xe0
 186.917 51.6667 197 118 197 157 c 0
 197 225 179 259 142 259 c 0
 89 259 59 207 50 103 c 0
 47 54 45 18 44 -6 c 0
 43 -35 43.75 -53 32 -53 c 0
 26.75 -53 23.4909 -48.1155 22 -41 c 0
 20.1667 -32.25 20.417 -7.5 20.417 -7.5 c 0
 20.417 243.5 65 363 151 363 c 0
 202 363 228 328 228 257 c 0xd0
 228 192.692 215.014 95.0826 202 17 c 0
 200.75 9.5 196.506 4.5 191.25 4.5 c 0
 186.75 4.5 181.25 9 182.75 18.5 c 1xe0
EndSplineSet
Validated: 19489
Layer: 2
SplineSet
31 -53 m 128,-1,1
 26 -53 26 -53 22 -41 c 1,2,-1
 22 -14 l 2,3,4
 22 363 22 363 151 363 c 0,5,6
 228 363 228 363 228 257 c 0,7,8
 228 185 228 185 212 85 c 1,9,-1
 202 14 l 2,10,11
 201 14 201 14 200 12 c 0,12,13
 189 -4 189 -4 182 16 c 1,14,15
 184 34 184 34 190.5 76.5 c 128,-1,16
 197 119 197 119 197 157 c 0,17,18
 197 259 197 259 142 259 c 0,19,20
 63 259 63 259 50 103 c 0,21,22
 45 30 45 30 44 -6.5 c 128,-1,23
 43 -43 43 -43 39.5 -48 c 128,-1,0
 36 -53 36 -53 31 -53 c 128,-1,1
EndSplineSet
Position2: "Advance neume with cinnabar mark-1" dx=200 dy=0 dh=0 dv=0
Colour: ffc259
EndChar

StartChar: uniEE86
Encoding: 61062 61062 134
Width: 625
VWidth: 999
GlyphClass: 2
Flags: W
HStem: 0 21.5996G<32.0417 47.0833 228.89 242.5> 451 125<478.289 544.923>
AnchorPoint: "Lomka" 540 150 basechar 0
AnchorPoint: "Tikhaya" 0 370 basechar 0
AnchorPoint: "Borzaya" 0 150 basechar 0
AnchorPoint: "Zevok" 630 350 basechar 0
AnchorPoint: "Kachka" 50 660 basechar 0
AnchorPoint: "Kupnaya" 50 -50 basechar 0
AnchorPoint: "Auxiliary" 265 660 basechar 0
AnchorPoint: "Podvertka" 630 380 basechar 0
AnchorPoint: "Flexion" 395 640 basechar 0
AnchorPoint: "Podtinka" 0 -50 basechar 0
AnchorPoint: "TonalRange" 415 660 basechar 0
AnchorPoint: "Zaderzhka" 630 460 basechar 0
AnchorPoint: "Omet" 515 300 basechar 0
AnchorPoint: "Tochka" 485 325 basechar 0
AnchorPoint: "Podchashie" 370 70 basechar 0
AnchorPoint: "PitchMark" 0 500 basechar 0
LayerCount: 3
Fore
SplineSet
239 127.6 m 1
 260 188.6 323 196.6 323 196.6 c 1
 313 72.5996 l 1
 313 72.5996 258 63.5996 227 0.599609 c 1
 239 127.6 l 1
369 246.6 m 1
 390 307.6 453 315.6 453 315.6 c 1
 443 191.6 l 1
 443 191.6 388 182.6 357 119.6 c 1
 369 246.6 l 1
519 576 m 0
 544 576 588 521 588 494 c 0
 588 494 588 493 588 492 c 2
 575 374 l 1
 569 402 553 426 526 447 c 0
 523 450 518 451 513 451 c 0
 497 451 469 436 430 407 c 0
 345 344 225 224 71 48 c 1
 30 0 l 1
 79 480 l 1
 105 496 l 1
 70 162 l 1
 168 283 280 395 406 498 c 0
 468 550 506 576 519 576 c 0
EndSplineSet
Validated: 3073
Layer: 2
Refer: 83 61009 S 1 0 0 1 711 -340.067 2
Refer: 97 61040 N 1 0 0 1 0 0 2
Position2: "Advance neume with cinnabar mark-1" dx=200 dy=0 dh=0 dv=0
Colour: ffc259
EndChar

StartChar: uniEEAF
Encoding: 61103 61103 135
Width: 825
VWidth: 999
GlyphClass: 2
Flags: W
HStem: 0 21G<235.5 247.5> 450 126<678.494 746.2>
AnchorPoint: "Lomka" 705 150 basechar 0
AnchorPoint: "Tikhaya" 0 200 basechar 0
AnchorPoint: "Borzaya" 0 150 basechar 0
AnchorPoint: "Zevok" 840 350 basechar 0
AnchorPoint: "Kachka" 50 660 basechar 0
AnchorPoint: "Kupnaya" 50 -50 basechar 0
AnchorPoint: "Auxiliary" 425 660 basechar 0
AnchorPoint: "Podvertka" 840 380 basechar 0
AnchorPoint: "Flexion" 645 640 basechar 0
AnchorPoint: "Podtinka" 0 -100 basechar 0
AnchorPoint: "TonalRange" 665 660 basechar 0
AnchorPoint: "Zaderzhka" 840 460 basechar 0
AnchorPoint: "Omet" 205 500 basechar 0
AnchorPoint: "Tochka" 685 325 basechar 0
AnchorPoint: "Podchashie" 578 245 basechar 0
AnchorPoint: "PitchMark" 0 500 basechar 0
LayerCount: 3
Fore
SplineSet
106 343 m 1
 127 404 215 423 215 423 c 1
 205 299 l 1
 205 299 125 280 94 217 c 1
 106 343 l 1
42 87 m 1
 63 148 151 167 151 167 c 1
 141 43 l 1
 141 43 61 24 30 -39 c 1
 42 87 l 1
605 498 m 0
 668 550 706 576 719 576 c 0
 732 576 747 566 766 545 c 0
 785 524 789 507 788 492 c 1
 775 374 l 1
 769 402 753 426 726 447 c 0
 723 450 718 450 713 450 c 0
 697 450 670 437 631 408 c 0
 592 379 553 345 513 306 c 0
 428 222 347 136 272 48 c 1
 230 0 l 1
 241 110 278 475 289 583 c 1
 410 502 l 1
 400 399 l 1
 301 465 l 1
 270 162 l 1
 368 283 480 395 605 498 c 0
EndSplineSet
Validated: 3105
Ligature2: "Support for deprecated mappings (ccmp)-1" uniEE8F uniEEAE
LCarets2: 1 0 
Position2: "Advance neume with cinnabar mark-1" dx=200 dy=0 dh=0 dv=0
Colour: ffc259
EndChar

StartChar: uniEE78
Encoding: 61048 61048 136
Width: 250
VWidth: 999
GlyphClass: 2
Flags: W
HStem: -6 21G<178.5 185.5> 371 125<35 110.225>
VStem: 182 35<48.6146 286.634>
AnchorPoint: "Lomka" -200 150 basechar 0
AnchorPoint: "Tikhaya" 0 180 basechar 0
AnchorPoint: "Zaderzhka" 250 180 basechar 0
AnchorPoint: "Borzaya" 0 150 basechar 0
AnchorPoint: "Zevok" 50 0 basechar 0
AnchorPoint: "Kachka" 50 660 basechar 0
AnchorPoint: "Kupnaya" 50 -50 basechar 0
AnchorPoint: "Auxiliary" 265 660 basechar 0
AnchorPoint: "Podvertka" 240 0 basechar 0
AnchorPoint: "Flexion" 395 640 basechar 0
AnchorPoint: "Podtinka" 0 -50 basechar 0
AnchorPoint: "TonalRange" 415 660 basechar 0
AnchorPoint: "Tochka" 260 325 basechar 0
AnchorPoint: "Omet" 205 500 basechar 0
AnchorPoint: "Podchashie" 183 0 basechar 0
AnchorPoint: "PitchMark" -40 500 basechar 0
LayerCount: 3
Fore
SplineSet
182 190 m 2
 182 305 129 371 23 371 c 1
 35 496 l 1
 83 496 125 474 162 430 c 0
 199 386 217 326 217 248 c 0
 217 170 209 89 194 6 c 0
 193 -2 189 -6 182 -6 c 0
 175 -6 169 -1 171 6 c 0
 178 69 182 109 182 126 c 2
 182 190 l 2
EndSplineSet
Validated: 3073
Layer: 2
SplineSet
194 6 m 0,0,1
 192 -6 192 -6 182 -6 c 0,2,3
 176 -6 176 -6 173 -2 c 128,-1,4
 170 2 170 2 171 6 c 0,5,6
 182 100 182 100 182 126 c 2,7,8
 182 190 l 2,9,10
 182 266 182 266 155 306 c 0,11,12
 114 371 114 371 23 371 c 1,13,-1
 35 496 l 1,14,15
 107 496 107 496 162 430.5 c 128,-1,16
 217 365 217 365 217 248 c 128,-1,17
 217 131 217 131 194 6 c 0,0,1
EndSplineSet
Position2: "Advance neume with cinnabar mark-1" dx=200 dy=0 dh=0 dv=0
Colour: ffc259
EndChar

StartChar: uniEEAE
Encoding: 61102 61102 137
Width: 625
VWidth: 999
GlyphClass: 2
Flags: W
HStem: 0 21G<35.5 47.5> 450 126<478.494 546.2>
AnchorPoint: "Lomka" 540 150 basechar 0
AnchorPoint: "Tikhaya" 0 -30 basechar 0
AnchorPoint: "Borzaya" 0 150 basechar 0
AnchorPoint: "Zevok" 630 350 basechar 0
AnchorPoint: "Kachka" 50 660 basechar 0
AnchorPoint: "Kupnaya" 50 -50 basechar 0
AnchorPoint: "Auxiliary" 265 660 basechar 0
AnchorPoint: "Podvertka" 630 380 basechar 0
AnchorPoint: "Flexion" 395 640 basechar 0
AnchorPoint: "Podtinka" 0 -50 basechar 0
AnchorPoint: "TonalRange" 415 660 basechar 0
AnchorPoint: "Zaderzhka" 630 460 basechar 0
AnchorPoint: "Omet" 205 500 basechar 0
AnchorPoint: "Tochka" 485 325 basechar 0
AnchorPoint: "Podchashie" 378 245 basechar 0
AnchorPoint: "PitchMark" 0 500 basechar 0
LayerCount: 3
Fore
SplineSet
405 498 m 0
 468 550 506 576 519 576 c 0
 532 576 547 566 566 545 c 0
 585 524 589 507 588 492 c 1
 575 374 l 1
 569 402 553 426 526 447 c 0
 523 450 518 450 513 450 c 0
 497 450 470 437 431 408 c 0
 392 379 353 345 313 306 c 0
 228 222 147 136 72 48 c 1
 30 0 l 1
 41 110 78 475 89 583 c 1
 210 502 l 1
 200 399 l 1
 101 465 l 1
 70 162 l 1
 168 283 280 395 405 498 c 0
EndSplineSet
Validated: 3105
Layer: 2
SplineSet
408 498 m 0,0,1
 502 576 502 576 521.5 576 c 128,-1,2
 541 576 541 576 569 545 c 128,-1,3
 597 514 597 514 596 492 c 1,4,-1
 578 374 l 1,5,6
 569 416 569 416 529 447 c 0,7,8
 524 451 524 451 516 451 c 0,9,10
 492 451 492 451 434 407.5 c 128,-1,11
 376 364 376 364 316 306 c 0,12,13
 188 180 188 180 75 48 c 1,14,-1
 33 0 l 1,15,16
 43 102 43 102 63 296.5 c 128,-1,17
 83 491 83 491 92 583 c 1,18,-1
 213 502 l 1,19,-1
 203 399 l 1,20,-1
 104 465 l 1,21,-1
 73 162 l 1,22,23
 220 344 220 344 408 498 c 0,0,1
EndSplineSet
Position2: "Advance neume with cinnabar mark-1" dx=200 dy=0 dh=0 dv=0
Colour: ffc259
EndChar

StartChar: uniEE81
Encoding: 61057 61057 138
Width: 225
VWidth: 999
GlyphClass: 2
Flags: W
HStem: 0 106<49.7806 150.57>
VStem: 20 29<108.904 171.804> 62 26<379.5 491.847> 80 11<490.513 513.987> 185 22<148.28 255.5>
AnchorPoint: "Lomka" 540 150 basechar 0
AnchorPoint: "Tikhaya" 0 -30 basechar 0
AnchorPoint: "Borzaya" 0 150 basechar 0
AnchorPoint: "Zevok" 50 0 basechar 0
AnchorPoint: "Kachka" 50 660 basechar 0
AnchorPoint: "Kupnaya" 50 -50 basechar 0
AnchorPoint: "Auxiliary" 265 660 basechar 0
AnchorPoint: "Podvertka" 200 0 basechar 0
AnchorPoint: "Flexion" 395 640 basechar 0
AnchorPoint: "Podtinka" 0 -50 basechar 0
AnchorPoint: "TonalRange" 415 660 basechar 0
AnchorPoint: "Tochka" 235 325 basechar 0
AnchorPoint: "Zaderzhka" 30 -120 basechar 0
AnchorPoint: "Omet" 205 500 basechar 0
AnchorPoint: "Podchashie" 100 -30 basechar 0
AnchorPoint: "PitchMark" -40 500 basechar 0
LayerCount: 3
Fore
SplineSet
52 168 m 0xe8
 52 164 49 149 49 136 c 0
 49 110 60 106 91 106 c 0xd8
 109 106 128 113 151 128 c 0
 174 143 185 158 185 174 c 0
 185 190 181 206 171 220 c 0
 161 234 148 247 131 262 c 0
 85 303 62 352 62 407 c 0xe8
 62 429 73 494 80 507 c 0
 80 512 81 514 85 514 c 0
 89 514 91 512 91 508 c 2
 91 507 l 1xd8
 89 498 88 486 88 470 c 0
 88 454 95 436 109 415 c 0
 123 394 146 361 181 318 c 0
 198 297 207 271 207 240 c 0
 207 135 207 114 195 66 c 0
 192 62 188 55 183 44 c 0
 170 20 126 0 75 0 c 0
 46 0 23 22 21 50 c 2
 20 66 l 1
 20 139 27 175 41 175 c 0
 48 175 52 172 52 168 c 0xe8
28 301 m 1
 125 236 l 1
 119 158 l 1
 22 223 l 1
 28 301 l 1
EndSplineSet
Validated: 3073
Layer: 2
SplineSet
23 66 m 1,0,1
 23 175 23 175 44 175 c 0,2,3
 55 175 55 175 55 168.5 c 128,-1,4
 55 162 55 162 52 141 c 0,5,6
 51 120 51 120 59 113 c 128,-1,7
 67 106 67 106 93.5 106 c 128,-1,8
 120 106 120 106 154 128 c 128,-1,9
 188 150 188 150 188 174.5 c 128,-1,10
 188 199 188 199 173.5 219.5 c 128,-1,11
 159 240 159 240 134 262 c 0,12,13
 65 324 65 324 65 407 c 0,14,15
 65 431 65 431 72 465.5 c 128,-1,16
 79 500 79 500 83 507 c 0,17,18
 83 514 83 514 88.5 514 c 128,-1,19
 94 514 94 514 94 508 c 2,20,-1
 94 507 l 1,21,22
 91 494 91 494 91 470.5 c 128,-1,23
 91 447 91 447 111.5 415 c 128,-1,24
 132 383 132 383 184 318 c 0,25,26
 210 286 210 286 210 240 c 0,27,28
 210 126 210 126 205 100 c 128,-1,29
 200 74 200 74 198 66 c 0,30,31
 194 60 194 60 186 44 c 0,32,33
 170 14 170 14 110 1 c 0,34,35
 98 -2 98 -2 78.5 -2 c 128,-1,36
 59 -2 59 -2 42.5 12.5 c 128,-1,37
 26 27 26 27 24 50 c 2,38,-1
 23 66 l 1,0,1
31 301 m 1,39,-1
 128 236 l 1,40,-1
 122 158 l 1,41,-1
 25 223 l 1,42,-1
 31 301 l 1,39,-1
EndSplineSet
Position2: "Advance neume with cinnabar mark-1" dx=200 dy=0 dh=0 dv=0
LCarets2: 1 0 
Colour: ffc259
EndChar

StartChar: uniEE17
Encoding: 60951 60951 139
Width: 0
VWidth: 999
GlyphClass: 4
Flags: W
HStem: 202 13<-212.991 -184 -147.373 -74 -37.373 -14.076> 305 52<-259.851 -233.63> 343 13<-381.924 -356 -322.135 -259 -190 -67 -33.1174 -0.0468979>
VStem: -365 36<204.023 342.69> -260 27<309.22 343.717> -187 38<215 341.941> -77 38<215 341.941>
AnchorPoint: "PitchMark" 0 345 mark 0
LayerCount: 3
Fore
SplineSet
-77 264 m 4xbe
 -77 292 -73 322 -67 343 c 5
 -142 343 l 5
 -147 319 -149 293 -149 266 c 4
 -149 249 -148 232 -147 215 c 5
 -74 215 l 5
 -75 229 -77 247 -77 264 c 4xbe
-187 264 m 4
 -187 292 -183 322 -177 343 c 5
 -192 343 l 6
 -198 343 -200 346 -199 350 c 4
 -199 354 -197 356 -190 356 c 4
 -176 356 -156 356 -134 356 c 4
 -89 356 -38 356 -9 356 c 4
 -1 356 0 353 0 348 c 5
 -1 344 -2 343 -9 343 c 6
 -32 343 l 5
 -37 319 -39 293 -39 266 c 4
 -39 249 -38 232 -37 215 c 5
 -22 214 l 6
 -15 214 -14 211 -14 207 c 4
 -14 203 -15 202 -23 202 c 6
 -206 202 l 6
 -212 202 -213 205 -213 209 c 4
 -213 213 -210 214 -204 214 c 4
 -198 215 -191 215 -184 215 c 5
 -185 230 -187 247 -187 264 c 4
-365 263 m 4
 -365 290 -361 326 -356 344 c 5
 -375 344 l 6
 -381 344 -382 347 -382 351 c 4
 -382 355 -380 356 -373 357 c 5
 -327 357 -280 357 -234 357 c 4
 -226 357 -225 353 -225 349 c 4
 -226 343 -232 337 -233 329 c 4
 -236 315 -229 305 -236 305 c 4xde
 -243 305 -257 315 -260 324 c 4
 -261 330 -261 338 -259 344 c 5
 -280 344 -300 344 -321 344 c 5
 -326 316 -329 291 -329 261 c 4
 -329 243 -327 230 -326 210 c 4
 -325 204 -338 204 -344 204 c 4
 -350 204 -361 204 -362 210 c 4
 -363 226 -365 244 -365 263 c 4
EndSplineSet
Validated: 19457
Layer: 2
SplineSet
-89 215 m 1,0,1
 -92 257 -92 257 -92 282.5 c 128,-1,2
 -92 308 -92 308 -82 343 c 1,3,-1
 -157 343 l 1,4,5
 -164 309 -164 309 -164 279 c 128,-1,6
 -164 249 -164 249 -162 215 c 1,7,-1
 -89 215 l 1,0,1
-199 215 m 1,8,9
 -202 260 -202 260 -202 284 c 128,-1,10
 -202 308 -202 308 -192 343 c 1,11,-1
 -207 343 l 2,12,13
 -216 343 -216 343 -214 350 c 1,14,15
 -214 356 -214 356 -205 356 c 2,16,-1
 -24 356 l 2,17,18
 -15 356 -15 356 -15 348 c 1,19,20
 -16 343 -16 343 -24 343 c 2,21,-1
 -47 343 l 1,22,23
 -54 309 -54 309 -54 279 c 128,-1,24
 -54 249 -54 249 -52 215 c 1,25,-1
 -37 214 l 2,26,27
 -29 214 -29 214 -29 207 c 0,28,29
 -29 202 -29 202 -38 202 c 2,30,-1
 -221 202 l 2,31,32
 -228 202 -228 202 -228 209 c 0,33,34
 -228 214 -228 214 -220.5 214.5 c 128,-1,35
 -213 215 -213 215 -199 215 c 1,8,9
-344 261 m 1,36,-1
 -341 210 l 2,37,38
 -340 204 -340 204 -358 204 c 128,-1,39
 -376 204 -376 204 -377 210 c 0,40,41
 -380 258 -380 258 -380 285 c 128,-1,42
 -380 312 -380 312 -371 344 c 1,43,-1
 -390 344 l 2,44,45
 -397 344 -397 344 -397 351 c 0,46,47
 -397 356 -397 356 -388 357 c 1,48,-1
 -249 357 l 2,49,50
 -240 357 -240 357 -240 349 c 0,51,52
 -240 346 -240 346 -245 337 c 0,53,54
 -249 328 -249 328 -248 316.5 c 128,-1,55
 -247 305 -247 305 -251.5 305 c 128,-1,56
 -256 305 -256 305 -266 312 c 128,-1,57
 -276 319 -276 319 -276 328 c 0,58,59
 -276 338 -276 338 -274 344 c 1,60,-1
 -336 344 l 1,61,62
 -344 299 -344 299 -344 261 c 1,36,-1
EndSplineSet
Validated: 1
Colour: ffc259
EndChar

